G04 #@! TF.GenerationSoftware,KiCad,Pcbnew,(5.0.1)-3*
G04 #@! TF.CreationDate,2018-11-20T19:11:30+01:00*
G04 #@! TF.ProjectId,WeatherClock,57656174686572436C6F636B2E6B6963,rev?*
G04 #@! TF.SameCoordinates,Original*
G04 #@! TF.FileFunction,Legend,Top*
G04 #@! TF.FilePolarity,Positive*
%FSLAX46Y46*%
G04 Gerber Fmt 4.6, Leading zero omitted, Abs format (unit mm)*
G04 Created by KiCad (PCBNEW (5.0.1)-3) date 20.11.2018 19:11:30*
%MOMM*%
%LPD*%
G01*
G04 APERTURE LIST*
%ADD10C,0.150000*%
%ADD11C,0.127000*%
%ADD12C,0.120000*%
%ADD13C,0.050000*%
G04 APERTURE END LIST*
D10*
X176141571Y-93099000D02*
X176046333Y-93051380D01*
X175903476Y-93051380D01*
X175760619Y-93099000D01*
X175665380Y-93194238D01*
X175617761Y-93289476D01*
X175570142Y-93479952D01*
X175570142Y-93622809D01*
X175617761Y-93813285D01*
X175665380Y-93908523D01*
X175760619Y-94003761D01*
X175903476Y-94051380D01*
X175998714Y-94051380D01*
X176141571Y-94003761D01*
X176189190Y-93956142D01*
X176189190Y-93622809D01*
X175998714Y-93622809D01*
X176617761Y-94051380D02*
X176617761Y-93051380D01*
X177189190Y-94051380D01*
X177189190Y-93051380D01*
X177665380Y-94051380D02*
X177665380Y-93051380D01*
X177903476Y-93051380D01*
X178046333Y-93099000D01*
X178141571Y-93194238D01*
X178189190Y-93289476D01*
X178236809Y-93479952D01*
X178236809Y-93622809D01*
X178189190Y-93813285D01*
X178141571Y-93908523D01*
X178046333Y-94003761D01*
X177903476Y-94051380D01*
X177665380Y-94051380D01*
X179379666Y-93765666D02*
X179855857Y-93765666D01*
X179284428Y-94051380D02*
X179617761Y-93051380D01*
X179951095Y-94051380D01*
X182141571Y-93527571D02*
X182284428Y-93575190D01*
X182332047Y-93622809D01*
X182379666Y-93718047D01*
X182379666Y-93860904D01*
X182332047Y-93956142D01*
X182284428Y-94003761D01*
X182189190Y-94051380D01*
X181808238Y-94051380D01*
X181808238Y-93051380D01*
X182141571Y-93051380D01*
X182236809Y-93099000D01*
X182284428Y-93146619D01*
X182332047Y-93241857D01*
X182332047Y-93337095D01*
X182284428Y-93432333D01*
X182236809Y-93479952D01*
X182141571Y-93527571D01*
X181808238Y-93527571D01*
X184284428Y-94003761D02*
X184427285Y-94051380D01*
X184665380Y-94051380D01*
X184760619Y-94003761D01*
X184808238Y-93956142D01*
X184855857Y-93860904D01*
X184855857Y-93765666D01*
X184808238Y-93670428D01*
X184760619Y-93622809D01*
X184665380Y-93575190D01*
X184474904Y-93527571D01*
X184379666Y-93479952D01*
X184332047Y-93432333D01*
X184284428Y-93337095D01*
X184284428Y-93241857D01*
X184332047Y-93146619D01*
X184379666Y-93099000D01*
X184474904Y-93051380D01*
X184713000Y-93051380D01*
X184855857Y-93099000D01*
D11*
G04 #@! TO.C,GLCD1*
X108750000Y-80420000D02*
X179450000Y-80420000D01*
X108750000Y-119220000D02*
X108750000Y-80420000D01*
X179450000Y-119220000D02*
X108750000Y-119220000D01*
X179450000Y-80420000D02*
X179450000Y-119220000D01*
X188000000Y-72970000D02*
X98000000Y-72970000D01*
X188000000Y-126670000D02*
X188000000Y-72970000D01*
X98000000Y-126670000D02*
X188000000Y-126670000D01*
X98000000Y-72970000D02*
X98000000Y-126670000D01*
X190500000Y-64770000D02*
X190500000Y-134770000D01*
X97500000Y-64770000D02*
X190500000Y-64770000D01*
X97500000Y-134770000D02*
X97500000Y-64770000D01*
X190500000Y-134770000D02*
X97500000Y-134770000D01*
D12*
G04 #@! TO.C,J3*
X178435000Y-111125000D02*
X179705000Y-111125000D01*
X178435000Y-112395000D02*
X178435000Y-111125000D01*
X180747929Y-117855000D02*
X181202071Y-117855000D01*
X180747929Y-117095000D02*
X181202071Y-117095000D01*
X183287929Y-117855000D02*
X183685000Y-117855000D01*
X183287929Y-117095000D02*
X183685000Y-117095000D01*
X192345000Y-117855000D02*
X186345000Y-117855000D01*
X192345000Y-117095000D02*
X192345000Y-117855000D01*
X186345000Y-117095000D02*
X192345000Y-117095000D01*
X183685000Y-116205000D02*
X186345000Y-116205000D01*
X180747929Y-115315000D02*
X181202071Y-115315000D01*
X180747929Y-114555000D02*
X181202071Y-114555000D01*
X183287929Y-115315000D02*
X183685000Y-115315000D01*
X183287929Y-114555000D02*
X183685000Y-114555000D01*
X192345000Y-115315000D02*
X186345000Y-115315000D01*
X192345000Y-114555000D02*
X192345000Y-115315000D01*
X186345000Y-114555000D02*
X192345000Y-114555000D01*
X183685000Y-113665000D02*
X186345000Y-113665000D01*
X180815000Y-112775000D02*
X181202071Y-112775000D01*
X180815000Y-112015000D02*
X181202071Y-112015000D01*
X183287929Y-112775000D02*
X183685000Y-112775000D01*
X183287929Y-112015000D02*
X183685000Y-112015000D01*
X186345000Y-112675000D02*
X192345000Y-112675000D01*
X186345000Y-112555000D02*
X192345000Y-112555000D01*
X186345000Y-112435000D02*
X192345000Y-112435000D01*
X186345000Y-112315000D02*
X192345000Y-112315000D01*
X186345000Y-112195000D02*
X192345000Y-112195000D01*
X186345000Y-112075000D02*
X192345000Y-112075000D01*
X192345000Y-112775000D02*
X186345000Y-112775000D01*
X192345000Y-112015000D02*
X192345000Y-112775000D01*
X186345000Y-112015000D02*
X192345000Y-112015000D01*
X186345000Y-111065000D02*
X183685000Y-111065000D01*
X186345000Y-118805000D02*
X186345000Y-111065000D01*
X183685000Y-118805000D02*
X186345000Y-118805000D01*
X183685000Y-111065000D02*
X183685000Y-118805000D01*
G04 #@! TO.C,P1*
X149286000Y-80234000D02*
X149286000Y-82364000D01*
X149286000Y-75623000D02*
X149286000Y-77754000D01*
X142546000Y-78085000D02*
X142546000Y-79904000D01*
X143082000Y-82364000D02*
X149286000Y-82364000D01*
X143082000Y-75623000D02*
X149286000Y-75623000D01*
G04 #@! TO.C,BT1*
X115370000Y-90286000D02*
X115370000Y-93904000D01*
X113660000Y-90286000D02*
X115370000Y-90286000D01*
X119870000Y-96748700D02*
X119870000Y-112443300D01*
X113660000Y-118906000D02*
X115370000Y-118906000D01*
X115370000Y-115288000D02*
X115370000Y-118906000D01*
X108150000Y-118906000D02*
X108150000Y-115288000D01*
X109860000Y-118906000D02*
X108150000Y-118906000D01*
X103650000Y-112443300D02*
X103650000Y-108456000D01*
X105850000Y-106256000D02*
X103650000Y-108456000D01*
X105850000Y-106256000D02*
X105850000Y-102936000D01*
X105850000Y-102936000D02*
X103650000Y-100736000D01*
X103650000Y-100736000D02*
X103650000Y-96748700D01*
X108150000Y-93904000D02*
X108150000Y-90286000D01*
X109860000Y-90286000D02*
X108150000Y-90286000D01*
X119871789Y-96750630D02*
G75*
G03X115370000Y-93904000I-8111789J-7845370D01*
G01*
X103648211Y-112441370D02*
G75*
G03X108150000Y-115288000I8111789J7845370D01*
G01*
X119871789Y-112441370D02*
G75*
G02X115370000Y-115288000I-8111789J7845370D01*
G01*
X103648211Y-96750630D02*
G75*
G02X108150000Y-93904000I8111789J-7845370D01*
G01*
G04 #@! TO.C,J4*
X186719379Y-99754463D02*
X187169379Y-99754463D01*
X186719379Y-99754463D02*
X186719379Y-99304463D01*
X187269379Y-94154463D02*
X187269379Y-94604463D01*
X189119379Y-94154463D02*
X187269379Y-94154463D01*
X191669379Y-101954463D02*
X191419379Y-101954463D01*
X191669379Y-94154463D02*
X191419379Y-94154463D01*
X189119379Y-101954463D02*
X187269379Y-101954463D01*
X187269379Y-101954463D02*
X187269379Y-101504463D01*
G04 #@! TO.C,J2*
X109220000Y-85725000D02*
X107950000Y-85725000D01*
X109220000Y-84455000D02*
X109220000Y-85725000D01*
X106907071Y-73915000D02*
X106452929Y-73915000D01*
X106907071Y-74675000D02*
X106452929Y-74675000D01*
X104367071Y-73915000D02*
X103970000Y-73915000D01*
X104367071Y-74675000D02*
X103970000Y-74675000D01*
X95310000Y-73915000D02*
X101310000Y-73915000D01*
X95310000Y-74675000D02*
X95310000Y-73915000D01*
X101310000Y-74675000D02*
X95310000Y-74675000D01*
X103970000Y-75565000D02*
X101310000Y-75565000D01*
X106907071Y-76455000D02*
X106452929Y-76455000D01*
X106907071Y-77215000D02*
X106452929Y-77215000D01*
X104367071Y-76455000D02*
X103970000Y-76455000D01*
X104367071Y-77215000D02*
X103970000Y-77215000D01*
X95310000Y-76455000D02*
X101310000Y-76455000D01*
X95310000Y-77215000D02*
X95310000Y-76455000D01*
X101310000Y-77215000D02*
X95310000Y-77215000D01*
X103970000Y-78105000D02*
X101310000Y-78105000D01*
X106907071Y-78995000D02*
X106452929Y-78995000D01*
X106907071Y-79755000D02*
X106452929Y-79755000D01*
X104367071Y-78995000D02*
X103970000Y-78995000D01*
X104367071Y-79755000D02*
X103970000Y-79755000D01*
X95310000Y-78995000D02*
X101310000Y-78995000D01*
X95310000Y-79755000D02*
X95310000Y-78995000D01*
X101310000Y-79755000D02*
X95310000Y-79755000D01*
X103970000Y-80645000D02*
X101310000Y-80645000D01*
X106907071Y-81535000D02*
X106452929Y-81535000D01*
X106907071Y-82295000D02*
X106452929Y-82295000D01*
X104367071Y-81535000D02*
X103970000Y-81535000D01*
X104367071Y-82295000D02*
X103970000Y-82295000D01*
X95310000Y-81535000D02*
X101310000Y-81535000D01*
X95310000Y-82295000D02*
X95310000Y-81535000D01*
X101310000Y-82295000D02*
X95310000Y-82295000D01*
X103970000Y-83185000D02*
X101310000Y-83185000D01*
X106840000Y-84075000D02*
X106452929Y-84075000D01*
X106840000Y-84835000D02*
X106452929Y-84835000D01*
X104367071Y-84075000D02*
X103970000Y-84075000D01*
X104367071Y-84835000D02*
X103970000Y-84835000D01*
X101310000Y-84175000D02*
X95310000Y-84175000D01*
X101310000Y-84295000D02*
X95310000Y-84295000D01*
X101310000Y-84415000D02*
X95310000Y-84415000D01*
X101310000Y-84535000D02*
X95310000Y-84535000D01*
X101310000Y-84655000D02*
X95310000Y-84655000D01*
X101310000Y-84775000D02*
X95310000Y-84775000D01*
X95310000Y-84075000D02*
X101310000Y-84075000D01*
X95310000Y-84835000D02*
X95310000Y-84075000D01*
X101310000Y-84835000D02*
X95310000Y-84835000D01*
X101310000Y-85785000D02*
X103970000Y-85785000D01*
X101310000Y-72965000D02*
X101310000Y-85785000D01*
X103970000Y-72965000D02*
X101310000Y-72965000D01*
X103970000Y-85785000D02*
X103970000Y-72965000D01*
G04 #@! TO.C,Q1*
X144005000Y-112380000D02*
G75*
G03X144005000Y-107330000I0J2525000D01*
G01*
X137755000Y-112380000D02*
G75*
G02X137755000Y-107330000I0J2525000D01*
G01*
X137755000Y-112380000D02*
X144005000Y-112380000D01*
X137755000Y-107330000D02*
X144005000Y-107330000D01*
G04 #@! TO.C,GLCD1*
D13*
X178882857Y-68715000D02*
X178797142Y-68667380D01*
X178668571Y-68667380D01*
X178540000Y-68715000D01*
X178454285Y-68810238D01*
X178411428Y-68905476D01*
X178368571Y-69095952D01*
X178368571Y-69238809D01*
X178411428Y-69429285D01*
X178454285Y-69524523D01*
X178540000Y-69619761D01*
X178668571Y-69667380D01*
X178754285Y-69667380D01*
X178882857Y-69619761D01*
X178925714Y-69572142D01*
X178925714Y-69238809D01*
X178754285Y-69238809D01*
X179740000Y-69667380D02*
X179311428Y-69667380D01*
X179311428Y-68667380D01*
X180554285Y-69572142D02*
X180511428Y-69619761D01*
X180382857Y-69667380D01*
X180297142Y-69667380D01*
X180168571Y-69619761D01*
X180082857Y-69524523D01*
X180040000Y-69429285D01*
X179997142Y-69238809D01*
X179997142Y-69095952D01*
X180040000Y-68905476D01*
X180082857Y-68810238D01*
X180168571Y-68715000D01*
X180297142Y-68667380D01*
X180382857Y-68667380D01*
X180511428Y-68715000D01*
X180554285Y-68762619D01*
X180940000Y-69667380D02*
X180940000Y-68667380D01*
X181154285Y-68667380D01*
X181282857Y-68715000D01*
X181368571Y-68810238D01*
X181411428Y-68905476D01*
X181454285Y-69095952D01*
X181454285Y-69238809D01*
X181411428Y-69429285D01*
X181368571Y-69524523D01*
X181282857Y-69619761D01*
X181154285Y-69667380D01*
X180940000Y-69667380D01*
X182311428Y-69667380D02*
X181797142Y-69667380D01*
X182054285Y-69667380D02*
X182054285Y-68667380D01*
X181968571Y-68810238D01*
X181882857Y-68905476D01*
X181797142Y-68953095D01*
X176855000Y-70572380D02*
X177369285Y-70572380D01*
X177112142Y-71572380D02*
X177112142Y-70572380D01*
X178140714Y-70620000D02*
X178055000Y-70572380D01*
X177926428Y-70572380D01*
X177797857Y-70620000D01*
X177712142Y-70715238D01*
X177669285Y-70810476D01*
X177626428Y-71000952D01*
X177626428Y-71143809D01*
X177669285Y-71334285D01*
X177712142Y-71429523D01*
X177797857Y-71524761D01*
X177926428Y-71572380D01*
X178012142Y-71572380D01*
X178140714Y-71524761D01*
X178183571Y-71477142D01*
X178183571Y-71143809D01*
X178012142Y-71143809D01*
X179040714Y-71572380D02*
X178526428Y-71572380D01*
X178783571Y-71572380D02*
X178783571Y-70572380D01*
X178697857Y-70715238D01*
X178612142Y-70810476D01*
X178526428Y-70858095D01*
X179383571Y-70667619D02*
X179426428Y-70620000D01*
X179512142Y-70572380D01*
X179726428Y-70572380D01*
X179812142Y-70620000D01*
X179855000Y-70667619D01*
X179897857Y-70762857D01*
X179897857Y-70858095D01*
X179855000Y-71000952D01*
X179340714Y-71572380D01*
X179897857Y-71572380D01*
X180412142Y-71000952D02*
X180326428Y-70953333D01*
X180283571Y-70905714D01*
X180240714Y-70810476D01*
X180240714Y-70762857D01*
X180283571Y-70667619D01*
X180326428Y-70620000D01*
X180412142Y-70572380D01*
X180583571Y-70572380D01*
X180669285Y-70620000D01*
X180712142Y-70667619D01*
X180755000Y-70762857D01*
X180755000Y-70810476D01*
X180712142Y-70905714D01*
X180669285Y-70953333D01*
X180583571Y-71000952D01*
X180412142Y-71000952D01*
X180326428Y-71048571D01*
X180283571Y-71096190D01*
X180240714Y-71191428D01*
X180240714Y-71381904D01*
X180283571Y-71477142D01*
X180326428Y-71524761D01*
X180412142Y-71572380D01*
X180583571Y-71572380D01*
X180669285Y-71524761D01*
X180712142Y-71477142D01*
X180755000Y-71381904D01*
X180755000Y-71191428D01*
X180712142Y-71096190D01*
X180669285Y-71048571D01*
X180583571Y-71000952D01*
X181526428Y-70572380D02*
X181355000Y-70572380D01*
X181269285Y-70620000D01*
X181226428Y-70667619D01*
X181140714Y-70810476D01*
X181097857Y-71000952D01*
X181097857Y-71381904D01*
X181140714Y-71477142D01*
X181183571Y-71524761D01*
X181269285Y-71572380D01*
X181440714Y-71572380D01*
X181526428Y-71524761D01*
X181569285Y-71477142D01*
X181612142Y-71381904D01*
X181612142Y-71143809D01*
X181569285Y-71048571D01*
X181526428Y-71000952D01*
X181440714Y-70953333D01*
X181269285Y-70953333D01*
X181183571Y-71000952D01*
X181140714Y-71048571D01*
X181097857Y-71143809D01*
X182383571Y-70905714D02*
X182383571Y-71572380D01*
X182169285Y-70524761D02*
X181955000Y-71239047D01*
X182512142Y-71239047D01*
G04 #@! TO.C,J3*
D10*
X185026666Y-109577380D02*
X185026666Y-110291666D01*
X184979047Y-110434523D01*
X184883809Y-110529761D01*
X184740952Y-110577380D01*
X184645714Y-110577380D01*
X185407619Y-109577380D02*
X186026666Y-109577380D01*
X185693333Y-109958333D01*
X185836190Y-109958333D01*
X185931428Y-110005952D01*
X185979047Y-110053571D01*
X186026666Y-110148809D01*
X186026666Y-110386904D01*
X185979047Y-110482142D01*
X185931428Y-110529761D01*
X185836190Y-110577380D01*
X185550476Y-110577380D01*
X185455238Y-110529761D01*
X185407619Y-110482142D01*
G04 #@! TO.C,P1*
X145177904Y-74946380D02*
X145177904Y-73946380D01*
X145558857Y-73946380D01*
X145654095Y-73994000D01*
X145701714Y-74041619D01*
X145749333Y-74136857D01*
X145749333Y-74279714D01*
X145701714Y-74374952D01*
X145654095Y-74422571D01*
X145558857Y-74470190D01*
X145177904Y-74470190D01*
X146701714Y-74946380D02*
X146130285Y-74946380D01*
X146416000Y-74946380D02*
X146416000Y-73946380D01*
X146320761Y-74089238D01*
X146225523Y-74184476D01*
X146130285Y-74232095D01*
G04 #@! TO.C,BT1*
X104068571Y-105381714D02*
X104116190Y-105238857D01*
X104163809Y-105191238D01*
X104259047Y-105143619D01*
X104401904Y-105143619D01*
X104497142Y-105191238D01*
X104544761Y-105238857D01*
X104592380Y-105334095D01*
X104592380Y-105715047D01*
X103592380Y-105715047D01*
X103592380Y-105381714D01*
X103640000Y-105286476D01*
X103687619Y-105238857D01*
X103782857Y-105191238D01*
X103878095Y-105191238D01*
X103973333Y-105238857D01*
X104020952Y-105286476D01*
X104068571Y-105381714D01*
X104068571Y-105715047D01*
X103592380Y-104857904D02*
X103592380Y-104286476D01*
X104592380Y-104572190D02*
X103592380Y-104572190D01*
X104592380Y-103429333D02*
X104592380Y-104000761D01*
X104592380Y-103715047D02*
X103592380Y-103715047D01*
X103735238Y-103810285D01*
X103830476Y-103905523D01*
X103878095Y-104000761D01*
G04 #@! TO.C,J4*
X185371759Y-98387796D02*
X186086045Y-98387796D01*
X186228902Y-98435415D01*
X186324140Y-98530653D01*
X186371759Y-98673510D01*
X186371759Y-98768748D01*
X185705093Y-97483034D02*
X186371759Y-97483034D01*
X185324140Y-97721129D02*
X186038426Y-97959224D01*
X186038426Y-97340177D01*
G04 #@! TO.C,J2*
X101961666Y-86177380D02*
X101961666Y-86891666D01*
X101914047Y-87034523D01*
X101818809Y-87129761D01*
X101675952Y-87177380D01*
X101580714Y-87177380D01*
X102390238Y-86272619D02*
X102437857Y-86225000D01*
X102533095Y-86177380D01*
X102771190Y-86177380D01*
X102866428Y-86225000D01*
X102914047Y-86272619D01*
X102961666Y-86367857D01*
X102961666Y-86463095D01*
X102914047Y-86605952D01*
X102342619Y-87177380D01*
X102961666Y-87177380D01*
G04 #@! TO.C,Q1*
X140784761Y-106877619D02*
X140689523Y-106830000D01*
X140594285Y-106734761D01*
X140451428Y-106591904D01*
X140356190Y-106544285D01*
X140260952Y-106544285D01*
X140308571Y-106782380D02*
X140213333Y-106734761D01*
X140118095Y-106639523D01*
X140070476Y-106449047D01*
X140070476Y-106115714D01*
X140118095Y-105925238D01*
X140213333Y-105830000D01*
X140308571Y-105782380D01*
X140499047Y-105782380D01*
X140594285Y-105830000D01*
X140689523Y-105925238D01*
X140737142Y-106115714D01*
X140737142Y-106449047D01*
X140689523Y-106639523D01*
X140594285Y-106734761D01*
X140499047Y-106782380D01*
X140308571Y-106782380D01*
X141689523Y-106782380D02*
X141118095Y-106782380D01*
X141403809Y-106782380D02*
X141403809Y-105782380D01*
X141308571Y-105925238D01*
X141213333Y-106020476D01*
X141118095Y-106068095D01*
G04 #@! TD*
M02*
