M48
;DRILL file {KiCad (5.0.1)-3} date 20.11.2018 19:11:33
;FORMAT={-:-/ absolute / metric / decimal}
FMAT,2
METRIC,TZ
T1C0.400
T2C0.500
T3C0.600
T4C0.750
T5C0.800
T6C0.850
T7C1.000
T8C1.050
T9C1.500
T10C1.600
T11C2.540
%
G90
G05
M71
T1
X127.635Y-78.74
X129.54Y-101.854
X132.08Y-97.79
X132.08Y-100.33
X132.842Y-103.886
X135.89Y-77.216
X139.065Y-98.425
X141.365Y-84.441
X148.717Y-102.743
X150.584Y-117.348
X151.13Y-114.046
X153.035Y-107.315
X156.083Y-107.061
X160.909Y-74.803
X165.245Y-73.043
X171.695Y-95.386
X176.022Y-74.676
T2
X111.76Y-122.936
X118.364Y-85.344
X142.24Y-96.095
X147.955Y-127.635
X155.33Y-95.495
X172.085Y-72.771
X185.377Y-96.752
X121.285Y-87.63
X121.285Y-89.53
T4
X170.395Y-103.72
X171.665Y-103.72
X172.935Y-103.72
T5
X138.43Y-109.855
X143.33Y-109.855
T6
X187.569Y-95.554
X187.569Y-100.554
T7
X165.964Y-124.968
X173.564Y-124.968
X128.24Y-67.27
X130.78Y-67.27
X133.32Y-67.27
X135.86Y-67.27
X138.4Y-67.27
X140.94Y-67.27
X143.48Y-67.27
X146.02Y-67.27
X148.56Y-67.27
X151.1Y-67.27
X153.64Y-67.27
X156.18Y-67.27
X158.72Y-67.27
X161.26Y-67.27
X163.8Y-67.27
X166.34Y-67.27
X168.88Y-67.27
X171.42Y-67.27
X173.96Y-67.27
X176.5Y-67.27
X105.41Y-74.295
X105.41Y-76.835
X105.41Y-79.375
X105.41Y-81.915
X105.41Y-84.455
X107.95Y-74.295
X107.95Y-76.835
X107.95Y-79.375
X107.95Y-81.915
X107.95Y-84.455
X172.72Y-78.82
X172.72Y-81.32
X172.72Y-83.82
X187.22Y-78.82
X187.22Y-83.82
X179.705Y-112.395
X179.705Y-114.935
X179.705Y-117.475
X182.245Y-112.395
X182.245Y-114.935
X182.245Y-117.475
X177.038Y-91.186
X179.578Y-91.186
X182.118Y-91.186
X184.658Y-91.186
T8
X120.015Y-119.38
X120.015Y-121.92
X122.555Y-119.38
X122.555Y-121.92
X125.095Y-119.38
X125.095Y-121.92
X127.635Y-119.38
X127.635Y-121.92
T10
X101.14Y-122.937
X104.14Y-118.237
X107.14Y-122.937
T11
X100.Y-67.27
X100.Y-132.27
X188.Y-67.27
X188.Y-132.27
T3
X189.919Y-94.554G85X190.619Y-94.554
G05
X190.619Y-101.554G85X189.919Y-101.554
G05
T9
X179.57Y-75.72G85X180.87Y-75.72
G05
X179.57Y-86.92G85X180.87Y-86.92
G05
T0
M30
