G04 #@! TF.GenerationSoftware,KiCad,Pcbnew,(5.0.1)-3*
G04 #@! TF.CreationDate,2018-11-20T19:11:30+01:00*
G04 #@! TF.ProjectId,WeatherClock,57656174686572436C6F636B2E6B6963,rev?*
G04 #@! TF.SameCoordinates,Original*
G04 #@! TF.FileFunction,Soldermask,Top*
G04 #@! TF.FilePolarity,Negative*
%FSLAX46Y46*%
G04 Gerber Fmt 4.6, Leading zero omitted, Abs format (unit mm)*
G04 Created by KiCad (PCBNEW (5.0.1)-3) date 20.11.2018 19:11:30*
%MOMM*%
%LPD*%
G01*
G04 APERTURE LIST*
%ADD10C,0.100000*%
G04 APERTURE END LIST*
D10*
G36*
X188444579Y-130364112D02*
X188570544Y-130389168D01*
X188717991Y-130450243D01*
X188926512Y-130536615D01*
X189246880Y-130750678D01*
X189519322Y-131023120D01*
X189733385Y-131343488D01*
X189880832Y-131699457D01*
X189956000Y-132077349D01*
X189956000Y-132462651D01*
X189880832Y-132840543D01*
X189733385Y-133196512D01*
X189519322Y-133516880D01*
X189246880Y-133789322D01*
X188926512Y-134003385D01*
X188717991Y-134089757D01*
X188570544Y-134150832D01*
X188444579Y-134175888D01*
X188192651Y-134226000D01*
X187807349Y-134226000D01*
X187555421Y-134175888D01*
X187429456Y-134150832D01*
X187282009Y-134089757D01*
X187073488Y-134003385D01*
X186753120Y-133789322D01*
X186480678Y-133516880D01*
X186266615Y-133196512D01*
X186119168Y-132840543D01*
X186044000Y-132462651D01*
X186044000Y-132077349D01*
X186119168Y-131699457D01*
X186266615Y-131343488D01*
X186480678Y-131023120D01*
X186753120Y-130750678D01*
X187073488Y-130536615D01*
X187282009Y-130450243D01*
X187429456Y-130389168D01*
X187555421Y-130364112D01*
X187807349Y-130314000D01*
X188192651Y-130314000D01*
X188444579Y-130364112D01*
X188444579Y-130364112D01*
G37*
G36*
X100444579Y-130364112D02*
X100570544Y-130389168D01*
X100717991Y-130450243D01*
X100926512Y-130536615D01*
X101246880Y-130750678D01*
X101519322Y-131023120D01*
X101733385Y-131343488D01*
X101880832Y-131699457D01*
X101956000Y-132077349D01*
X101956000Y-132462651D01*
X101880832Y-132840543D01*
X101733385Y-133196512D01*
X101519322Y-133516880D01*
X101246880Y-133789322D01*
X100926512Y-134003385D01*
X100717991Y-134089757D01*
X100570544Y-134150832D01*
X100444579Y-134175888D01*
X100192651Y-134226000D01*
X99807349Y-134226000D01*
X99555421Y-134175888D01*
X99429456Y-134150832D01*
X99282009Y-134089757D01*
X99073488Y-134003385D01*
X98753120Y-133789322D01*
X98480678Y-133516880D01*
X98266615Y-133196512D01*
X98119168Y-132840543D01*
X98044000Y-132462651D01*
X98044000Y-132077349D01*
X98119168Y-131699457D01*
X98266615Y-131343488D01*
X98480678Y-131023120D01*
X98753120Y-130750678D01*
X99073488Y-130536615D01*
X99282009Y-130450243D01*
X99429456Y-130389168D01*
X99555421Y-130364112D01*
X99807349Y-130314000D01*
X100192651Y-130314000D01*
X100444579Y-130364112D01*
X100444579Y-130364112D01*
G37*
G36*
X167015000Y-126019000D02*
X164913000Y-126019000D01*
X164913000Y-123917000D01*
X167015000Y-123917000D01*
X167015000Y-126019000D01*
X167015000Y-126019000D01*
G37*
G36*
X173870565Y-123957389D02*
X174061834Y-124036615D01*
X174233976Y-124151637D01*
X174380363Y-124298024D01*
X174495385Y-124470166D01*
X174574611Y-124661435D01*
X174615000Y-124864484D01*
X174615000Y-125071516D01*
X174574611Y-125274565D01*
X174495385Y-125465834D01*
X174380363Y-125637976D01*
X174233976Y-125784363D01*
X174061834Y-125899385D01*
X173870565Y-125978611D01*
X173667516Y-126019000D01*
X173460484Y-126019000D01*
X173257435Y-125978611D01*
X173066166Y-125899385D01*
X172894024Y-125784363D01*
X172747637Y-125637976D01*
X172632615Y-125465834D01*
X172553389Y-125274565D01*
X172513000Y-125071516D01*
X172513000Y-124864484D01*
X172553389Y-124661435D01*
X172632615Y-124470166D01*
X172747637Y-124298024D01*
X172894024Y-124151637D01*
X173066166Y-124036615D01*
X173257435Y-123957389D01*
X173460484Y-123917000D01*
X173667516Y-123917000D01*
X173870565Y-123957389D01*
X173870565Y-123957389D01*
G37*
G36*
X108491000Y-124288000D02*
X105789000Y-124288000D01*
X105789000Y-121586000D01*
X108491000Y-121586000D01*
X108491000Y-124288000D01*
X108491000Y-124288000D01*
G37*
G36*
X101403567Y-121611959D02*
X101534072Y-121637918D01*
X101779939Y-121739759D01*
X101926090Y-121837415D01*
X102001215Y-121887612D01*
X102189388Y-122075785D01*
X102189390Y-122075788D01*
X102337241Y-122297061D01*
X102439082Y-122542928D01*
X102491000Y-122803938D01*
X102491000Y-123070062D01*
X102439082Y-123331072D01*
X102337241Y-123576939D01*
X102189890Y-123797464D01*
X102189388Y-123798215D01*
X102001215Y-123986388D01*
X102001212Y-123986390D01*
X101779939Y-124134241D01*
X101534072Y-124236082D01*
X101403567Y-124262041D01*
X101273063Y-124288000D01*
X101006937Y-124288000D01*
X100876433Y-124262041D01*
X100745928Y-124236082D01*
X100500061Y-124134241D01*
X100278788Y-123986390D01*
X100278785Y-123986388D01*
X100090612Y-123798215D01*
X100090110Y-123797464D01*
X99942759Y-123576939D01*
X99840918Y-123331072D01*
X99789000Y-123070062D01*
X99789000Y-122803938D01*
X99840918Y-122542928D01*
X99942759Y-122297061D01*
X100090610Y-122075788D01*
X100090612Y-122075785D01*
X100278785Y-121887612D01*
X100353910Y-121837415D01*
X100500061Y-121739759D01*
X100745928Y-121637918D01*
X100876433Y-121611959D01*
X101006937Y-121586000D01*
X101273063Y-121586000D01*
X101403567Y-121611959D01*
X101403567Y-121611959D01*
G37*
G36*
X127879581Y-121113723D02*
X128032179Y-121176931D01*
X128169513Y-121268695D01*
X128286305Y-121385487D01*
X128378069Y-121522821D01*
X128441277Y-121675419D01*
X128473500Y-121837414D01*
X128473500Y-122002586D01*
X128441277Y-122164581D01*
X128378069Y-122317179D01*
X128286305Y-122454513D01*
X128169513Y-122571305D01*
X128032179Y-122663069D01*
X127879581Y-122726277D01*
X127717586Y-122758500D01*
X127552414Y-122758500D01*
X127390419Y-122726277D01*
X127237821Y-122663069D01*
X127100487Y-122571305D01*
X126983695Y-122454513D01*
X126891931Y-122317179D01*
X126828723Y-122164581D01*
X126796500Y-122002586D01*
X126796500Y-121837414D01*
X126828723Y-121675419D01*
X126891931Y-121522821D01*
X126983695Y-121385487D01*
X127100487Y-121268695D01*
X127237821Y-121176931D01*
X127390419Y-121113723D01*
X127552414Y-121081500D01*
X127717586Y-121081500D01*
X127879581Y-121113723D01*
X127879581Y-121113723D01*
G37*
G36*
X120259581Y-121113723D02*
X120412179Y-121176931D01*
X120549513Y-121268695D01*
X120666305Y-121385487D01*
X120758069Y-121522821D01*
X120821277Y-121675419D01*
X120853500Y-121837414D01*
X120853500Y-122002586D01*
X120821277Y-122164581D01*
X120758069Y-122317179D01*
X120666305Y-122454513D01*
X120549513Y-122571305D01*
X120412179Y-122663069D01*
X120259581Y-122726277D01*
X120097586Y-122758500D01*
X119932414Y-122758500D01*
X119770419Y-122726277D01*
X119617821Y-122663069D01*
X119480487Y-122571305D01*
X119363695Y-122454513D01*
X119271931Y-122317179D01*
X119208723Y-122164581D01*
X119176500Y-122002586D01*
X119176500Y-121837414D01*
X119208723Y-121675419D01*
X119271931Y-121522821D01*
X119363695Y-121385487D01*
X119480487Y-121268695D01*
X119617821Y-121176931D01*
X119770419Y-121113723D01*
X119932414Y-121081500D01*
X120097586Y-121081500D01*
X120259581Y-121113723D01*
X120259581Y-121113723D01*
G37*
G36*
X122799581Y-121113723D02*
X122952179Y-121176931D01*
X123089513Y-121268695D01*
X123206305Y-121385487D01*
X123298069Y-121522821D01*
X123361277Y-121675419D01*
X123393500Y-121837414D01*
X123393500Y-122002586D01*
X123361277Y-122164581D01*
X123298069Y-122317179D01*
X123206305Y-122454513D01*
X123089513Y-122571305D01*
X122952179Y-122663069D01*
X122799581Y-122726277D01*
X122637586Y-122758500D01*
X122472414Y-122758500D01*
X122310419Y-122726277D01*
X122157821Y-122663069D01*
X122020487Y-122571305D01*
X121903695Y-122454513D01*
X121811931Y-122317179D01*
X121748723Y-122164581D01*
X121716500Y-122002586D01*
X121716500Y-121837414D01*
X121748723Y-121675419D01*
X121811931Y-121522821D01*
X121903695Y-121385487D01*
X122020487Y-121268695D01*
X122157821Y-121176931D01*
X122310419Y-121113723D01*
X122472414Y-121081500D01*
X122637586Y-121081500D01*
X122799581Y-121113723D01*
X122799581Y-121113723D01*
G37*
G36*
X125339581Y-121113723D02*
X125492179Y-121176931D01*
X125629513Y-121268695D01*
X125746305Y-121385487D01*
X125838069Y-121522821D01*
X125901277Y-121675419D01*
X125933500Y-121837414D01*
X125933500Y-122002586D01*
X125901277Y-122164581D01*
X125838069Y-122317179D01*
X125746305Y-122454513D01*
X125629513Y-122571305D01*
X125492179Y-122663069D01*
X125339581Y-122726277D01*
X125177586Y-122758500D01*
X125012414Y-122758500D01*
X124850419Y-122726277D01*
X124697821Y-122663069D01*
X124560487Y-122571305D01*
X124443695Y-122454513D01*
X124351931Y-122317179D01*
X124288723Y-122164581D01*
X124256500Y-122002586D01*
X124256500Y-121837414D01*
X124288723Y-121675419D01*
X124351931Y-121522821D01*
X124443695Y-121385487D01*
X124560487Y-121268695D01*
X124697821Y-121176931D01*
X124850419Y-121113723D01*
X125012414Y-121081500D01*
X125177586Y-121081500D01*
X125339581Y-121113723D01*
X125339581Y-121113723D01*
G37*
G36*
X113566000Y-120597000D02*
X109954000Y-120597000D01*
X109954000Y-117955000D01*
X113566000Y-117955000D01*
X113566000Y-120597000D01*
X113566000Y-120597000D01*
G37*
G36*
X122799581Y-118573723D02*
X122952179Y-118636931D01*
X123089513Y-118728695D01*
X123206305Y-118845487D01*
X123298069Y-118982821D01*
X123361277Y-119135419D01*
X123393500Y-119297414D01*
X123393500Y-119462586D01*
X123361277Y-119624581D01*
X123298069Y-119777179D01*
X123206305Y-119914513D01*
X123089513Y-120031305D01*
X122952179Y-120123069D01*
X122799581Y-120186277D01*
X122637586Y-120218500D01*
X122472414Y-120218500D01*
X122310419Y-120186277D01*
X122157821Y-120123069D01*
X122020487Y-120031305D01*
X121903695Y-119914513D01*
X121811931Y-119777179D01*
X121748723Y-119624581D01*
X121716500Y-119462586D01*
X121716500Y-119297414D01*
X121748723Y-119135419D01*
X121811931Y-118982821D01*
X121903695Y-118845487D01*
X122020487Y-118728695D01*
X122157821Y-118636931D01*
X122310419Y-118573723D01*
X122472414Y-118541500D01*
X122637586Y-118541500D01*
X122799581Y-118573723D01*
X122799581Y-118573723D01*
G37*
G36*
X120853500Y-120218500D02*
X119176500Y-120218500D01*
X119176500Y-118541500D01*
X120853500Y-118541500D01*
X120853500Y-120218500D01*
X120853500Y-120218500D01*
G37*
G36*
X125339581Y-118573723D02*
X125492179Y-118636931D01*
X125629513Y-118728695D01*
X125746305Y-118845487D01*
X125838069Y-118982821D01*
X125901277Y-119135419D01*
X125933500Y-119297414D01*
X125933500Y-119462586D01*
X125901277Y-119624581D01*
X125838069Y-119777179D01*
X125746305Y-119914513D01*
X125629513Y-120031305D01*
X125492179Y-120123069D01*
X125339581Y-120186277D01*
X125177586Y-120218500D01*
X125012414Y-120218500D01*
X124850419Y-120186277D01*
X124697821Y-120123069D01*
X124560487Y-120031305D01*
X124443695Y-119914513D01*
X124351931Y-119777179D01*
X124288723Y-119624581D01*
X124256500Y-119462586D01*
X124256500Y-119297414D01*
X124288723Y-119135419D01*
X124351931Y-118982821D01*
X124443695Y-118845487D01*
X124560487Y-118728695D01*
X124697821Y-118636931D01*
X124850419Y-118573723D01*
X125012414Y-118541500D01*
X125177586Y-118541500D01*
X125339581Y-118573723D01*
X125339581Y-118573723D01*
G37*
G36*
X128473500Y-120218500D02*
X126796500Y-120218500D01*
X126796500Y-118541500D01*
X128473500Y-118541500D01*
X128473500Y-120218500D01*
X128473500Y-120218500D01*
G37*
G36*
X104403567Y-116911959D02*
X104534072Y-116937918D01*
X104779939Y-117039759D01*
X105000464Y-117187110D01*
X105001215Y-117187612D01*
X105189388Y-117375785D01*
X105189390Y-117375788D01*
X105337241Y-117597061D01*
X105439082Y-117842928D01*
X105491000Y-118103938D01*
X105491000Y-118370062D01*
X105439082Y-118631072D01*
X105337241Y-118876939D01*
X105266492Y-118982821D01*
X105189388Y-119098215D01*
X105001215Y-119286388D01*
X105001212Y-119286390D01*
X104779939Y-119434241D01*
X104534072Y-119536082D01*
X104403567Y-119562041D01*
X104273063Y-119588000D01*
X104006937Y-119588000D01*
X103876433Y-119562041D01*
X103745928Y-119536082D01*
X103500061Y-119434241D01*
X103278788Y-119286390D01*
X103278785Y-119286388D01*
X103090612Y-119098215D01*
X103013508Y-118982821D01*
X102942759Y-118876939D01*
X102840918Y-118631072D01*
X102789000Y-118370062D01*
X102789000Y-118103938D01*
X102840918Y-117842928D01*
X102942759Y-117597061D01*
X103090610Y-117375788D01*
X103090612Y-117375785D01*
X103278785Y-117187612D01*
X103279536Y-117187110D01*
X103500061Y-117039759D01*
X103745928Y-116937918D01*
X103876433Y-116911959D01*
X104006937Y-116886000D01*
X104273063Y-116886000D01*
X104403567Y-116911959D01*
X104403567Y-116911959D01*
G37*
G36*
X182355443Y-116580519D02*
X182421627Y-116587037D01*
X182534853Y-116621384D01*
X182591467Y-116638557D01*
X182730087Y-116712652D01*
X182747991Y-116722222D01*
X182783729Y-116751552D01*
X182885186Y-116834814D01*
X182968448Y-116936271D01*
X182997778Y-116972009D01*
X182997779Y-116972011D01*
X183081443Y-117128533D01*
X183081443Y-117128534D01*
X183132963Y-117298373D01*
X183150359Y-117475000D01*
X183132963Y-117651627D01*
X183098616Y-117764853D01*
X183081443Y-117821467D01*
X183069971Y-117842929D01*
X182997778Y-117977991D01*
X182968448Y-118013729D01*
X182885186Y-118115186D01*
X182783729Y-118198448D01*
X182747991Y-118227778D01*
X182747989Y-118227779D01*
X182591467Y-118311443D01*
X182534853Y-118328616D01*
X182421627Y-118362963D01*
X182355442Y-118369482D01*
X182289260Y-118376000D01*
X182200740Y-118376000D01*
X182134558Y-118369482D01*
X182068373Y-118362963D01*
X181955147Y-118328616D01*
X181898533Y-118311443D01*
X181742011Y-118227779D01*
X181742009Y-118227778D01*
X181706271Y-118198448D01*
X181604814Y-118115186D01*
X181521552Y-118013729D01*
X181492222Y-117977991D01*
X181420029Y-117842929D01*
X181408557Y-117821467D01*
X181391384Y-117764853D01*
X181357037Y-117651627D01*
X181339641Y-117475000D01*
X181357037Y-117298373D01*
X181408557Y-117128534D01*
X181408557Y-117128533D01*
X181492221Y-116972011D01*
X181492222Y-116972009D01*
X181521552Y-116936271D01*
X181604814Y-116834814D01*
X181706271Y-116751552D01*
X181742009Y-116722222D01*
X181759913Y-116712652D01*
X181898533Y-116638557D01*
X181955147Y-116621384D01*
X182068373Y-116587037D01*
X182134557Y-116580519D01*
X182200740Y-116574000D01*
X182289260Y-116574000D01*
X182355443Y-116580519D01*
X182355443Y-116580519D01*
G37*
G36*
X179815443Y-116580519D02*
X179881627Y-116587037D01*
X179994853Y-116621384D01*
X180051467Y-116638557D01*
X180190087Y-116712652D01*
X180207991Y-116722222D01*
X180243729Y-116751552D01*
X180345186Y-116834814D01*
X180428448Y-116936271D01*
X180457778Y-116972009D01*
X180457779Y-116972011D01*
X180541443Y-117128533D01*
X180541443Y-117128534D01*
X180592963Y-117298373D01*
X180610359Y-117475000D01*
X180592963Y-117651627D01*
X180558616Y-117764853D01*
X180541443Y-117821467D01*
X180529971Y-117842929D01*
X180457778Y-117977991D01*
X180428448Y-118013729D01*
X180345186Y-118115186D01*
X180243729Y-118198448D01*
X180207991Y-118227778D01*
X180207989Y-118227779D01*
X180051467Y-118311443D01*
X179994853Y-118328616D01*
X179881627Y-118362963D01*
X179815442Y-118369482D01*
X179749260Y-118376000D01*
X179660740Y-118376000D01*
X179594558Y-118369482D01*
X179528373Y-118362963D01*
X179415147Y-118328616D01*
X179358533Y-118311443D01*
X179202011Y-118227779D01*
X179202009Y-118227778D01*
X179166271Y-118198448D01*
X179064814Y-118115186D01*
X178981552Y-118013729D01*
X178952222Y-117977991D01*
X178880029Y-117842929D01*
X178868557Y-117821467D01*
X178851384Y-117764853D01*
X178817037Y-117651627D01*
X178799641Y-117475000D01*
X178817037Y-117298373D01*
X178868557Y-117128534D01*
X178868557Y-117128533D01*
X178952221Y-116972011D01*
X178952222Y-116972009D01*
X178981552Y-116936271D01*
X179064814Y-116834814D01*
X179166271Y-116751552D01*
X179202009Y-116722222D01*
X179219913Y-116712652D01*
X179358533Y-116638557D01*
X179415147Y-116621384D01*
X179528373Y-116587037D01*
X179594557Y-116580519D01*
X179660740Y-116574000D01*
X179749260Y-116574000D01*
X179815443Y-116580519D01*
X179815443Y-116580519D01*
G37*
G36*
X179815442Y-114040518D02*
X179881627Y-114047037D01*
X179994853Y-114081384D01*
X180051467Y-114098557D01*
X180190087Y-114172652D01*
X180207991Y-114182222D01*
X180243729Y-114211552D01*
X180345186Y-114294814D01*
X180428448Y-114396271D01*
X180457778Y-114432009D01*
X180457779Y-114432011D01*
X180541443Y-114588533D01*
X180541443Y-114588534D01*
X180592963Y-114758373D01*
X180610359Y-114935000D01*
X180592963Y-115111627D01*
X180558616Y-115224853D01*
X180541443Y-115281467D01*
X180467348Y-115420087D01*
X180457778Y-115437991D01*
X180428448Y-115473729D01*
X180345186Y-115575186D01*
X180243729Y-115658448D01*
X180207991Y-115687778D01*
X180207989Y-115687779D01*
X180051467Y-115771443D01*
X179994853Y-115788616D01*
X179881627Y-115822963D01*
X179815443Y-115829481D01*
X179749260Y-115836000D01*
X179660740Y-115836000D01*
X179594557Y-115829481D01*
X179528373Y-115822963D01*
X179415147Y-115788616D01*
X179358533Y-115771443D01*
X179202011Y-115687779D01*
X179202009Y-115687778D01*
X179166271Y-115658448D01*
X179064814Y-115575186D01*
X178981552Y-115473729D01*
X178952222Y-115437991D01*
X178942652Y-115420087D01*
X178868557Y-115281467D01*
X178851384Y-115224853D01*
X178817037Y-115111627D01*
X178799641Y-114935000D01*
X178817037Y-114758373D01*
X178868557Y-114588534D01*
X178868557Y-114588533D01*
X178952221Y-114432011D01*
X178952222Y-114432009D01*
X178981552Y-114396271D01*
X179064814Y-114294814D01*
X179166271Y-114211552D01*
X179202009Y-114182222D01*
X179219913Y-114172652D01*
X179358533Y-114098557D01*
X179415147Y-114081384D01*
X179528373Y-114047037D01*
X179594558Y-114040518D01*
X179660740Y-114034000D01*
X179749260Y-114034000D01*
X179815442Y-114040518D01*
X179815442Y-114040518D01*
G37*
G36*
X182355442Y-114040518D02*
X182421627Y-114047037D01*
X182534853Y-114081384D01*
X182591467Y-114098557D01*
X182730087Y-114172652D01*
X182747991Y-114182222D01*
X182783729Y-114211552D01*
X182885186Y-114294814D01*
X182968448Y-114396271D01*
X182997778Y-114432009D01*
X182997779Y-114432011D01*
X183081443Y-114588533D01*
X183081443Y-114588534D01*
X183132963Y-114758373D01*
X183150359Y-114935000D01*
X183132963Y-115111627D01*
X183098616Y-115224853D01*
X183081443Y-115281467D01*
X183007348Y-115420087D01*
X182997778Y-115437991D01*
X182968448Y-115473729D01*
X182885186Y-115575186D01*
X182783729Y-115658448D01*
X182747991Y-115687778D01*
X182747989Y-115687779D01*
X182591467Y-115771443D01*
X182534853Y-115788616D01*
X182421627Y-115822963D01*
X182355443Y-115829481D01*
X182289260Y-115836000D01*
X182200740Y-115836000D01*
X182134557Y-115829481D01*
X182068373Y-115822963D01*
X181955147Y-115788616D01*
X181898533Y-115771443D01*
X181742011Y-115687779D01*
X181742009Y-115687778D01*
X181706271Y-115658448D01*
X181604814Y-115575186D01*
X181521552Y-115473729D01*
X181492222Y-115437991D01*
X181482652Y-115420087D01*
X181408557Y-115281467D01*
X181391384Y-115224853D01*
X181357037Y-115111627D01*
X181339641Y-114935000D01*
X181357037Y-114758373D01*
X181408557Y-114588534D01*
X181408557Y-114588533D01*
X181492221Y-114432011D01*
X181492222Y-114432009D01*
X181521552Y-114396271D01*
X181604814Y-114294814D01*
X181706271Y-114211552D01*
X181742009Y-114182222D01*
X181759913Y-114172652D01*
X181898533Y-114098557D01*
X181955147Y-114081384D01*
X182068373Y-114047037D01*
X182134558Y-114040518D01*
X182200740Y-114034000D01*
X182289260Y-114034000D01*
X182355442Y-114040518D01*
X182355442Y-114040518D01*
G37*
G36*
X182355443Y-111500519D02*
X182421627Y-111507037D01*
X182534853Y-111541384D01*
X182591467Y-111558557D01*
X182730087Y-111632652D01*
X182747991Y-111642222D01*
X182783729Y-111671552D01*
X182885186Y-111754814D01*
X182968448Y-111856271D01*
X182997778Y-111892009D01*
X182997779Y-111892011D01*
X183081443Y-112048533D01*
X183081443Y-112048534D01*
X183132963Y-112218373D01*
X183150359Y-112395000D01*
X183132963Y-112571627D01*
X183098616Y-112684853D01*
X183081443Y-112741467D01*
X183007348Y-112880087D01*
X182997778Y-112897991D01*
X182968448Y-112933729D01*
X182885186Y-113035186D01*
X182783729Y-113118448D01*
X182747991Y-113147778D01*
X182747989Y-113147779D01*
X182591467Y-113231443D01*
X182534853Y-113248616D01*
X182421627Y-113282963D01*
X182355443Y-113289481D01*
X182289260Y-113296000D01*
X182200740Y-113296000D01*
X182134557Y-113289481D01*
X182068373Y-113282963D01*
X181955147Y-113248616D01*
X181898533Y-113231443D01*
X181742011Y-113147779D01*
X181742009Y-113147778D01*
X181706271Y-113118448D01*
X181604814Y-113035186D01*
X181521552Y-112933729D01*
X181492222Y-112897991D01*
X181482652Y-112880087D01*
X181408557Y-112741467D01*
X181391384Y-112684853D01*
X181357037Y-112571627D01*
X181339641Y-112395000D01*
X181357037Y-112218373D01*
X181408557Y-112048534D01*
X181408557Y-112048533D01*
X181492221Y-111892011D01*
X181492222Y-111892009D01*
X181521552Y-111856271D01*
X181604814Y-111754814D01*
X181706271Y-111671552D01*
X181742009Y-111642222D01*
X181759913Y-111632652D01*
X181898533Y-111558557D01*
X181955147Y-111541384D01*
X182068373Y-111507037D01*
X182134557Y-111500519D01*
X182200740Y-111494000D01*
X182289260Y-111494000D01*
X182355443Y-111500519D01*
X182355443Y-111500519D01*
G37*
G36*
X180606000Y-113296000D02*
X178804000Y-113296000D01*
X178804000Y-111494000D01*
X180606000Y-111494000D01*
X180606000Y-113296000D01*
X180606000Y-113296000D01*
G37*
G36*
X143563643Y-109084781D02*
X143709415Y-109145162D01*
X143840611Y-109232824D01*
X143952176Y-109344389D01*
X144039838Y-109475585D01*
X144100219Y-109621357D01*
X144131000Y-109776107D01*
X144131000Y-109933893D01*
X144100219Y-110088643D01*
X144039838Y-110234415D01*
X143952176Y-110365611D01*
X143840611Y-110477176D01*
X143709415Y-110564838D01*
X143563643Y-110625219D01*
X143408893Y-110656000D01*
X143251107Y-110656000D01*
X143096357Y-110625219D01*
X142950585Y-110564838D01*
X142819389Y-110477176D01*
X142707824Y-110365611D01*
X142620162Y-110234415D01*
X142559781Y-110088643D01*
X142529000Y-109933893D01*
X142529000Y-109776107D01*
X142559781Y-109621357D01*
X142620162Y-109475585D01*
X142707824Y-109344389D01*
X142819389Y-109232824D01*
X142950585Y-109145162D01*
X143096357Y-109084781D01*
X143251107Y-109054000D01*
X143408893Y-109054000D01*
X143563643Y-109084781D01*
X143563643Y-109084781D01*
G37*
G36*
X138663643Y-109084781D02*
X138809415Y-109145162D01*
X138940611Y-109232824D01*
X139052176Y-109344389D01*
X139139838Y-109475585D01*
X139200219Y-109621357D01*
X139231000Y-109776107D01*
X139231000Y-109933893D01*
X139200219Y-110088643D01*
X139139838Y-110234415D01*
X139052176Y-110365611D01*
X138940611Y-110477176D01*
X138809415Y-110564838D01*
X138663643Y-110625219D01*
X138508893Y-110656000D01*
X138351107Y-110656000D01*
X138196357Y-110625219D01*
X138050585Y-110564838D01*
X137919389Y-110477176D01*
X137807824Y-110365611D01*
X137720162Y-110234415D01*
X137659781Y-110088643D01*
X137629000Y-109933893D01*
X137629000Y-109776107D01*
X137659781Y-109621357D01*
X137720162Y-109475585D01*
X137807824Y-109344389D01*
X137919389Y-109232824D01*
X138050585Y-109145162D01*
X138196357Y-109084781D01*
X138351107Y-109054000D01*
X138508893Y-109054000D01*
X138663643Y-109084781D01*
X138663643Y-109084781D01*
G37*
G36*
X173047916Y-102927335D02*
X173156492Y-102960272D01*
X173256557Y-103013757D01*
X173344265Y-103085737D01*
X173416245Y-103173444D01*
X173469730Y-103273509D01*
X173502667Y-103382085D01*
X173511001Y-103466703D01*
X173511001Y-103973298D01*
X173502667Y-104057917D01*
X173469730Y-104166493D01*
X173416245Y-104266558D01*
X173344265Y-104354265D01*
X173256558Y-104426245D01*
X173156493Y-104479730D01*
X173047917Y-104512667D01*
X172935001Y-104523788D01*
X172822086Y-104512667D01*
X172713510Y-104479730D01*
X172613445Y-104426245D01*
X172525738Y-104354265D01*
X172453758Y-104266558D01*
X172410241Y-104185144D01*
X172396628Y-104164769D01*
X172379300Y-104147442D01*
X172358926Y-104133828D01*
X172336287Y-104124451D01*
X172312254Y-104119670D01*
X172287749Y-104119670D01*
X172263716Y-104124450D01*
X172241077Y-104133828D01*
X172220702Y-104147441D01*
X172203375Y-104164769D01*
X172189761Y-104185144D01*
X172146245Y-104266558D01*
X172074265Y-104354265D01*
X171986558Y-104426245D01*
X171886493Y-104479730D01*
X171777917Y-104512667D01*
X171665001Y-104523788D01*
X171552086Y-104512667D01*
X171443510Y-104479730D01*
X171343445Y-104426245D01*
X171255738Y-104354265D01*
X171192627Y-104277365D01*
X171175300Y-104260037D01*
X171154925Y-104246424D01*
X171132286Y-104237046D01*
X171108253Y-104232266D01*
X171083749Y-104232266D01*
X171059715Y-104237047D01*
X171037076Y-104246424D01*
X171016702Y-104260038D01*
X170999374Y-104277365D01*
X170985761Y-104297740D01*
X170976383Y-104320379D01*
X170971001Y-104356664D01*
X170971001Y-104521001D01*
X169819001Y-104521001D01*
X169819001Y-102919001D01*
X170971001Y-102919001D01*
X170971001Y-103083338D01*
X170973403Y-103107724D01*
X170980516Y-103131173D01*
X170992067Y-103152784D01*
X171007613Y-103171726D01*
X171026555Y-103187272D01*
X171048166Y-103198823D01*
X171071615Y-103205936D01*
X171096001Y-103208338D01*
X171120387Y-103205936D01*
X171143836Y-103198823D01*
X171165447Y-103187272D01*
X171192627Y-103162637D01*
X171255735Y-103085740D01*
X171255737Y-103085737D01*
X171343444Y-103013757D01*
X171443509Y-102960272D01*
X171552085Y-102927335D01*
X171665001Y-102916214D01*
X171777916Y-102927335D01*
X171886492Y-102960272D01*
X171986557Y-103013757D01*
X172074265Y-103085737D01*
X172146245Y-103173444D01*
X172189768Y-103254870D01*
X172203374Y-103275233D01*
X172220701Y-103292561D01*
X172241076Y-103306175D01*
X172263714Y-103315552D01*
X172287748Y-103320333D01*
X172312252Y-103320333D01*
X172336286Y-103315553D01*
X172358925Y-103306176D01*
X172379299Y-103292562D01*
X172396627Y-103275235D01*
X172410241Y-103254859D01*
X172453757Y-103173445D01*
X172525735Y-103085740D01*
X172525737Y-103085737D01*
X172613444Y-103013757D01*
X172713509Y-102960272D01*
X172822085Y-102927335D01*
X172935001Y-102916214D01*
X173047916Y-102927335D01*
X173047916Y-102927335D01*
G37*
G36*
X191270379Y-101516349D02*
X191270981Y-101528601D01*
X191273528Y-101554463D01*
X191270981Y-101580325D01*
X191270379Y-101592577D01*
X191270379Y-101665870D01*
X191261422Y-101682628D01*
X191257289Y-101694178D01*
X191223734Y-101804796D01*
X191170198Y-101904954D01*
X191163284Y-101917889D01*
X191081932Y-102017016D01*
X190982805Y-102098368D01*
X190982803Y-102098369D01*
X190869712Y-102158818D01*
X190828806Y-102171226D01*
X190746997Y-102196043D01*
X190683234Y-102202323D01*
X190651353Y-102205463D01*
X189887405Y-102205463D01*
X189855524Y-102202323D01*
X189791761Y-102196043D01*
X189709952Y-102171226D01*
X189669046Y-102158818D01*
X189555955Y-102098369D01*
X189555953Y-102098368D01*
X189456826Y-102017016D01*
X189375474Y-101917889D01*
X189368560Y-101904954D01*
X189315024Y-101804796D01*
X189281469Y-101694178D01*
X189272091Y-101671539D01*
X189268379Y-101665983D01*
X189268379Y-101592577D01*
X189267777Y-101580325D01*
X189265230Y-101554463D01*
X189267777Y-101528601D01*
X189268379Y-101516349D01*
X189268379Y-100303463D01*
X191270379Y-100303463D01*
X191270379Y-101516349D01*
X191270379Y-101516349D01*
G37*
G36*
X187795728Y-94808283D02*
X187795731Y-94808284D01*
X187795730Y-94808284D01*
X187936953Y-94866780D01*
X188062335Y-94950558D01*
X188064053Y-94951706D01*
X188172136Y-95059789D01*
X188172138Y-95059792D01*
X188257062Y-95186889D01*
X188302306Y-95296120D01*
X188315559Y-95328114D01*
X188345379Y-95478032D01*
X188345379Y-95630894D01*
X188315559Y-95780812D01*
X188315558Y-95780814D01*
X188257062Y-95922037D01*
X188257061Y-95922038D01*
X188172136Y-96049137D01*
X188064053Y-96157220D01*
X188064050Y-96157222D01*
X187936953Y-96242146D01*
X187886657Y-96262979D01*
X187865048Y-96274530D01*
X187846106Y-96290075D01*
X187830561Y-96309017D01*
X187819010Y-96330628D01*
X187811897Y-96354077D01*
X187809495Y-96378463D01*
X187811897Y-96402850D01*
X187819010Y-96426299D01*
X187830562Y-96447910D01*
X187846107Y-96466852D01*
X187865049Y-96482397D01*
X187886660Y-96493948D01*
X187910109Y-96501061D01*
X187934495Y-96503463D01*
X188295379Y-96503463D01*
X188295379Y-99605463D01*
X187934495Y-99605463D01*
X187910109Y-99607865D01*
X187886660Y-99614978D01*
X187865049Y-99626529D01*
X187846107Y-99642075D01*
X187830561Y-99661017D01*
X187819010Y-99682628D01*
X187811897Y-99706077D01*
X187809495Y-99730463D01*
X187811897Y-99754849D01*
X187819010Y-99778298D01*
X187830561Y-99799909D01*
X187846107Y-99818851D01*
X187865049Y-99834397D01*
X187886657Y-99845947D01*
X187936953Y-99866780D01*
X187936954Y-99866781D01*
X188064053Y-99951706D01*
X188172136Y-100059789D01*
X188172138Y-100059792D01*
X188257062Y-100186889D01*
X188302306Y-100296120D01*
X188315559Y-100328114D01*
X188345379Y-100478032D01*
X188345379Y-100630894D01*
X188315559Y-100780812D01*
X188315558Y-100780814D01*
X188257062Y-100922037D01*
X188257061Y-100922038D01*
X188172136Y-101049137D01*
X188064053Y-101157220D01*
X188064050Y-101157222D01*
X187936953Y-101242146D01*
X187827722Y-101287390D01*
X187795728Y-101300643D01*
X187645810Y-101330463D01*
X187492948Y-101330463D01*
X187343030Y-101300643D01*
X187311036Y-101287390D01*
X187201805Y-101242146D01*
X187074708Y-101157222D01*
X187074705Y-101157220D01*
X186966622Y-101049137D01*
X186881697Y-100922038D01*
X186881696Y-100922037D01*
X186823200Y-100780814D01*
X186823199Y-100780812D01*
X186793379Y-100630894D01*
X186793379Y-100478032D01*
X186823199Y-100328114D01*
X186836452Y-100296120D01*
X186881696Y-100186889D01*
X186966620Y-100059792D01*
X186966622Y-100059789D01*
X187074705Y-99951706D01*
X187201804Y-99866781D01*
X187201805Y-99866780D01*
X187252101Y-99845947D01*
X187273710Y-99834396D01*
X187292652Y-99818851D01*
X187308197Y-99799909D01*
X187319748Y-99778298D01*
X187326861Y-99754849D01*
X187329263Y-99730463D01*
X187326861Y-99706076D01*
X187319748Y-99682627D01*
X187308196Y-99661016D01*
X187292651Y-99642074D01*
X187273709Y-99626529D01*
X187252098Y-99614978D01*
X187228649Y-99607865D01*
X187204263Y-99605463D01*
X186843379Y-99605463D01*
X186843379Y-96503463D01*
X187204263Y-96503463D01*
X187228649Y-96501061D01*
X187252098Y-96493948D01*
X187273709Y-96482397D01*
X187292651Y-96466851D01*
X187308197Y-96447909D01*
X187319748Y-96426298D01*
X187326861Y-96402849D01*
X187329263Y-96378463D01*
X187326861Y-96354077D01*
X187319748Y-96330628D01*
X187308197Y-96309017D01*
X187292651Y-96290075D01*
X187273709Y-96274529D01*
X187252101Y-96262979D01*
X187201805Y-96242146D01*
X187074708Y-96157222D01*
X187074705Y-96157220D01*
X186966622Y-96049137D01*
X186881697Y-95922038D01*
X186881696Y-95922037D01*
X186823200Y-95780814D01*
X186823199Y-95780812D01*
X186793379Y-95630894D01*
X186793379Y-95478032D01*
X186823199Y-95328114D01*
X186836452Y-95296120D01*
X186881696Y-95186889D01*
X186966620Y-95059792D01*
X186966622Y-95059789D01*
X187074705Y-94951706D01*
X187076423Y-94950558D01*
X187201805Y-94866780D01*
X187343028Y-94808284D01*
X187343027Y-94808284D01*
X187343030Y-94808283D01*
X187492948Y-94778463D01*
X187645810Y-94778463D01*
X187795728Y-94808283D01*
X187795728Y-94808283D01*
G37*
G36*
X191270379Y-99855463D02*
X189268379Y-99855463D01*
X189268379Y-98253463D01*
X191270379Y-98253463D01*
X191270379Y-99855463D01*
X191270379Y-99855463D01*
G37*
G36*
X191270379Y-97855463D02*
X189268379Y-97855463D01*
X189268379Y-96253463D01*
X191270379Y-96253463D01*
X191270379Y-97855463D01*
X191270379Y-97855463D01*
G37*
G36*
X190683234Y-93906603D02*
X190746997Y-93912883D01*
X190828806Y-93937700D01*
X190869712Y-93950108D01*
X190969870Y-94003644D01*
X190982805Y-94010558D01*
X191081932Y-94091910D01*
X191163284Y-94191037D01*
X191163285Y-94191039D01*
X191223734Y-94304130D01*
X191257289Y-94414748D01*
X191266667Y-94437387D01*
X191270379Y-94442943D01*
X191270379Y-94516349D01*
X191270981Y-94528601D01*
X191273528Y-94554463D01*
X191270981Y-94580325D01*
X191270379Y-94592577D01*
X191270379Y-95805463D01*
X189268379Y-95805463D01*
X189268379Y-94592577D01*
X189267777Y-94580325D01*
X189265230Y-94554463D01*
X189267777Y-94528601D01*
X189268379Y-94516349D01*
X189268379Y-94443056D01*
X189277336Y-94426298D01*
X189281469Y-94414748D01*
X189315024Y-94304130D01*
X189375473Y-94191039D01*
X189375474Y-94191037D01*
X189456826Y-94091910D01*
X189555953Y-94010558D01*
X189568888Y-94003644D01*
X189669046Y-93950108D01*
X189709952Y-93937700D01*
X189791761Y-93912883D01*
X189855524Y-93906603D01*
X189887405Y-93903463D01*
X190651353Y-93903463D01*
X190683234Y-93906603D01*
X190683234Y-93906603D01*
G37*
G36*
X177939000Y-92087000D02*
X176137000Y-92087000D01*
X176137000Y-90285000D01*
X177939000Y-90285000D01*
X177939000Y-92087000D01*
X177939000Y-92087000D01*
G37*
G36*
X179688443Y-90291519D02*
X179754627Y-90298037D01*
X179867853Y-90332384D01*
X179924467Y-90349557D01*
X180063087Y-90423652D01*
X180080991Y-90433222D01*
X180116729Y-90462552D01*
X180218186Y-90545814D01*
X180301448Y-90647271D01*
X180330778Y-90683009D01*
X180330779Y-90683011D01*
X180414443Y-90839533D01*
X180414443Y-90839534D01*
X180465963Y-91009373D01*
X180483359Y-91186000D01*
X180465963Y-91362627D01*
X180431616Y-91475853D01*
X180414443Y-91532467D01*
X180340348Y-91671087D01*
X180330778Y-91688991D01*
X180301448Y-91724729D01*
X180218186Y-91826186D01*
X180116729Y-91909448D01*
X180080991Y-91938778D01*
X180080989Y-91938779D01*
X179924467Y-92022443D01*
X179867853Y-92039616D01*
X179754627Y-92073963D01*
X179688443Y-92080481D01*
X179622260Y-92087000D01*
X179533740Y-92087000D01*
X179467557Y-92080481D01*
X179401373Y-92073963D01*
X179288147Y-92039616D01*
X179231533Y-92022443D01*
X179075011Y-91938779D01*
X179075009Y-91938778D01*
X179039271Y-91909448D01*
X178937814Y-91826186D01*
X178854552Y-91724729D01*
X178825222Y-91688991D01*
X178815652Y-91671087D01*
X178741557Y-91532467D01*
X178724384Y-91475853D01*
X178690037Y-91362627D01*
X178672641Y-91186000D01*
X178690037Y-91009373D01*
X178741557Y-90839534D01*
X178741557Y-90839533D01*
X178825221Y-90683011D01*
X178825222Y-90683009D01*
X178854552Y-90647271D01*
X178937814Y-90545814D01*
X179039271Y-90462552D01*
X179075009Y-90433222D01*
X179092913Y-90423652D01*
X179231533Y-90349557D01*
X179288147Y-90332384D01*
X179401373Y-90298037D01*
X179467558Y-90291518D01*
X179533740Y-90285000D01*
X179622260Y-90285000D01*
X179688443Y-90291519D01*
X179688443Y-90291519D01*
G37*
G36*
X184768443Y-90291519D02*
X184834627Y-90298037D01*
X184947853Y-90332384D01*
X185004467Y-90349557D01*
X185143087Y-90423652D01*
X185160991Y-90433222D01*
X185196729Y-90462552D01*
X185298186Y-90545814D01*
X185381448Y-90647271D01*
X185410778Y-90683009D01*
X185410779Y-90683011D01*
X185494443Y-90839533D01*
X185494443Y-90839534D01*
X185545963Y-91009373D01*
X185563359Y-91186000D01*
X185545963Y-91362627D01*
X185511616Y-91475853D01*
X185494443Y-91532467D01*
X185420348Y-91671087D01*
X185410778Y-91688991D01*
X185381448Y-91724729D01*
X185298186Y-91826186D01*
X185196729Y-91909448D01*
X185160991Y-91938778D01*
X185160989Y-91938779D01*
X185004467Y-92022443D01*
X184947853Y-92039616D01*
X184834627Y-92073963D01*
X184768443Y-92080481D01*
X184702260Y-92087000D01*
X184613740Y-92087000D01*
X184547557Y-92080481D01*
X184481373Y-92073963D01*
X184368147Y-92039616D01*
X184311533Y-92022443D01*
X184155011Y-91938779D01*
X184155009Y-91938778D01*
X184119271Y-91909448D01*
X184017814Y-91826186D01*
X183934552Y-91724729D01*
X183905222Y-91688991D01*
X183895652Y-91671087D01*
X183821557Y-91532467D01*
X183804384Y-91475853D01*
X183770037Y-91362627D01*
X183752641Y-91186000D01*
X183770037Y-91009373D01*
X183821557Y-90839534D01*
X183821557Y-90839533D01*
X183905221Y-90683011D01*
X183905222Y-90683009D01*
X183934552Y-90647271D01*
X184017814Y-90545814D01*
X184119271Y-90462552D01*
X184155009Y-90433222D01*
X184172913Y-90423652D01*
X184311533Y-90349557D01*
X184368147Y-90332384D01*
X184481373Y-90298037D01*
X184547558Y-90291518D01*
X184613740Y-90285000D01*
X184702260Y-90285000D01*
X184768443Y-90291519D01*
X184768443Y-90291519D01*
G37*
G36*
X182228443Y-90291519D02*
X182294627Y-90298037D01*
X182407853Y-90332384D01*
X182464467Y-90349557D01*
X182603087Y-90423652D01*
X182620991Y-90433222D01*
X182656729Y-90462552D01*
X182758186Y-90545814D01*
X182841448Y-90647271D01*
X182870778Y-90683009D01*
X182870779Y-90683011D01*
X182954443Y-90839533D01*
X182954443Y-90839534D01*
X183005963Y-91009373D01*
X183023359Y-91186000D01*
X183005963Y-91362627D01*
X182971616Y-91475853D01*
X182954443Y-91532467D01*
X182880348Y-91671087D01*
X182870778Y-91688991D01*
X182841448Y-91724729D01*
X182758186Y-91826186D01*
X182656729Y-91909448D01*
X182620991Y-91938778D01*
X182620989Y-91938779D01*
X182464467Y-92022443D01*
X182407853Y-92039616D01*
X182294627Y-92073963D01*
X182228443Y-92080481D01*
X182162260Y-92087000D01*
X182073740Y-92087000D01*
X182007557Y-92080481D01*
X181941373Y-92073963D01*
X181828147Y-92039616D01*
X181771533Y-92022443D01*
X181615011Y-91938779D01*
X181615009Y-91938778D01*
X181579271Y-91909448D01*
X181477814Y-91826186D01*
X181394552Y-91724729D01*
X181365222Y-91688991D01*
X181355652Y-91671087D01*
X181281557Y-91532467D01*
X181264384Y-91475853D01*
X181230037Y-91362627D01*
X181212641Y-91186000D01*
X181230037Y-91009373D01*
X181281557Y-90839534D01*
X181281557Y-90839533D01*
X181365221Y-90683011D01*
X181365222Y-90683009D01*
X181394552Y-90647271D01*
X181477814Y-90545814D01*
X181579271Y-90462552D01*
X181615009Y-90433222D01*
X181632913Y-90423652D01*
X181771533Y-90349557D01*
X181828147Y-90332384D01*
X181941373Y-90298037D01*
X182007558Y-90291518D01*
X182073740Y-90285000D01*
X182162260Y-90285000D01*
X182228443Y-90291519D01*
X182228443Y-90291519D01*
G37*
G36*
X113566000Y-91237000D02*
X109954000Y-91237000D01*
X109954000Y-88595000D01*
X113566000Y-88595000D01*
X113566000Y-91237000D01*
X113566000Y-91237000D01*
G37*
G36*
X121445721Y-89000174D02*
X121545995Y-89041709D01*
X121636245Y-89102012D01*
X121712988Y-89178755D01*
X121773291Y-89269005D01*
X121814826Y-89369279D01*
X121836000Y-89475730D01*
X121836000Y-89584270D01*
X121814826Y-89690721D01*
X121773291Y-89790995D01*
X121712988Y-89881245D01*
X121636245Y-89957988D01*
X121545995Y-90018291D01*
X121445721Y-90059826D01*
X121339270Y-90081000D01*
X121230730Y-90081000D01*
X121124279Y-90059826D01*
X121024005Y-90018291D01*
X120933755Y-89957988D01*
X120857012Y-89881245D01*
X120796709Y-89790995D01*
X120755174Y-89690721D01*
X120734000Y-89584270D01*
X120734000Y-89475730D01*
X120755174Y-89369279D01*
X120796709Y-89269005D01*
X120857012Y-89178755D01*
X120933755Y-89102012D01*
X121024005Y-89041709D01*
X121124279Y-89000174D01*
X121230730Y-88979000D01*
X121339270Y-88979000D01*
X121445721Y-89000174D01*
X121445721Y-89000174D01*
G37*
G36*
X121445721Y-87100174D02*
X121545995Y-87141709D01*
X121636245Y-87202012D01*
X121712988Y-87278755D01*
X121773291Y-87369005D01*
X121814826Y-87469279D01*
X121836000Y-87575730D01*
X121836000Y-87684270D01*
X121814826Y-87790721D01*
X121773291Y-87890995D01*
X121712988Y-87981245D01*
X121636245Y-88057988D01*
X121545995Y-88118291D01*
X121445721Y-88159826D01*
X121339270Y-88181000D01*
X121230730Y-88181000D01*
X121124279Y-88159826D01*
X121024005Y-88118291D01*
X120933755Y-88057988D01*
X120857012Y-87981245D01*
X120796709Y-87890995D01*
X120755174Y-87790721D01*
X120734000Y-87684270D01*
X120734000Y-87575730D01*
X120755174Y-87469279D01*
X120796709Y-87369005D01*
X120857012Y-87278755D01*
X120933755Y-87202012D01*
X121024005Y-87141709D01*
X121124279Y-87100174D01*
X121230730Y-87079000D01*
X121339270Y-87079000D01*
X121445721Y-87100174D01*
X121445721Y-87100174D01*
G37*
G36*
X181871000Y-87971000D02*
X178569000Y-87971000D01*
X178569000Y-85869000D01*
X181871000Y-85869000D01*
X181871000Y-87971000D01*
X181871000Y-87971000D01*
G37*
G36*
X108851000Y-85356000D02*
X107049000Y-85356000D01*
X107049000Y-83554000D01*
X108851000Y-83554000D01*
X108851000Y-85356000D01*
X108851000Y-85356000D01*
G37*
G36*
X105520443Y-83560519D02*
X105586627Y-83567037D01*
X105699853Y-83601384D01*
X105756467Y-83618557D01*
X105895087Y-83692652D01*
X105912991Y-83702222D01*
X105948729Y-83731552D01*
X106050186Y-83814814D01*
X106133448Y-83916271D01*
X106162778Y-83952009D01*
X106162779Y-83952011D01*
X106246443Y-84108533D01*
X106246443Y-84108534D01*
X106297963Y-84278373D01*
X106315359Y-84455000D01*
X106297963Y-84631627D01*
X106263616Y-84744853D01*
X106246443Y-84801467D01*
X106230865Y-84830611D01*
X106162778Y-84957991D01*
X106133448Y-84993729D01*
X106050186Y-85095186D01*
X105948729Y-85178448D01*
X105912991Y-85207778D01*
X105912989Y-85207779D01*
X105756467Y-85291443D01*
X105699853Y-85308616D01*
X105586627Y-85342963D01*
X105520442Y-85349482D01*
X105454260Y-85356000D01*
X105365740Y-85356000D01*
X105299558Y-85349482D01*
X105233373Y-85342963D01*
X105120147Y-85308616D01*
X105063533Y-85291443D01*
X104907011Y-85207779D01*
X104907009Y-85207778D01*
X104871271Y-85178448D01*
X104769814Y-85095186D01*
X104686552Y-84993729D01*
X104657222Y-84957991D01*
X104589135Y-84830611D01*
X104573557Y-84801467D01*
X104556384Y-84744853D01*
X104522037Y-84631627D01*
X104504641Y-84455000D01*
X104522037Y-84278373D01*
X104573557Y-84108534D01*
X104573557Y-84108533D01*
X104657221Y-83952011D01*
X104657222Y-83952009D01*
X104686552Y-83916271D01*
X104769814Y-83814814D01*
X104871271Y-83731552D01*
X104907009Y-83702222D01*
X104924913Y-83692652D01*
X105063533Y-83618557D01*
X105120147Y-83601384D01*
X105233373Y-83567037D01*
X105299557Y-83560519D01*
X105365740Y-83554000D01*
X105454260Y-83554000D01*
X105520443Y-83560519D01*
X105520443Y-83560519D01*
G37*
G36*
X173771000Y-84871000D02*
X171669000Y-84871000D01*
X171669000Y-82769000D01*
X173771000Y-82769000D01*
X173771000Y-84871000D01*
X173771000Y-84871000D01*
G37*
G36*
X187526565Y-82809389D02*
X187717834Y-82888615D01*
X187889976Y-83003637D01*
X188036363Y-83150024D01*
X188151385Y-83322166D01*
X188230611Y-83513435D01*
X188271000Y-83716484D01*
X188271000Y-83923516D01*
X188230611Y-84126565D01*
X188151385Y-84317834D01*
X188036363Y-84489976D01*
X187889976Y-84636363D01*
X187717834Y-84751385D01*
X187526565Y-84830611D01*
X187323516Y-84871000D01*
X187116484Y-84871000D01*
X186913435Y-84830611D01*
X186722166Y-84751385D01*
X186550024Y-84636363D01*
X186403637Y-84489976D01*
X186288615Y-84317834D01*
X186209389Y-84126565D01*
X186169000Y-83923516D01*
X186169000Y-83716484D01*
X186209389Y-83513435D01*
X186288615Y-83322166D01*
X186403637Y-83150024D01*
X186550024Y-83003637D01*
X186722166Y-82888615D01*
X186913435Y-82809389D01*
X187116484Y-82769000D01*
X187323516Y-82769000D01*
X187526565Y-82809389D01*
X187526565Y-82809389D01*
G37*
G36*
X105520442Y-81020518D02*
X105586627Y-81027037D01*
X105699853Y-81061384D01*
X105756467Y-81078557D01*
X105895087Y-81152652D01*
X105912991Y-81162222D01*
X105948729Y-81191552D01*
X106050186Y-81274814D01*
X106133448Y-81376271D01*
X106162778Y-81412009D01*
X106162779Y-81412011D01*
X106246443Y-81568533D01*
X106246443Y-81568534D01*
X106297963Y-81738373D01*
X106315359Y-81915000D01*
X106297963Y-82091627D01*
X106284392Y-82136365D01*
X106246443Y-82261467D01*
X106172348Y-82400087D01*
X106162778Y-82417991D01*
X106133448Y-82453729D01*
X106050186Y-82555186D01*
X105948729Y-82638448D01*
X105912991Y-82667778D01*
X105912989Y-82667779D01*
X105756467Y-82751443D01*
X105699853Y-82768616D01*
X105586627Y-82802963D01*
X105521382Y-82809389D01*
X105454260Y-82816000D01*
X105365740Y-82816000D01*
X105298618Y-82809389D01*
X105233373Y-82802963D01*
X105120147Y-82768616D01*
X105063533Y-82751443D01*
X104907011Y-82667779D01*
X104907009Y-82667778D01*
X104871271Y-82638448D01*
X104769814Y-82555186D01*
X104686552Y-82453729D01*
X104657222Y-82417991D01*
X104647652Y-82400087D01*
X104573557Y-82261467D01*
X104535608Y-82136365D01*
X104522037Y-82091627D01*
X104504641Y-81915000D01*
X104522037Y-81738373D01*
X104573557Y-81568534D01*
X104573557Y-81568533D01*
X104657221Y-81412011D01*
X104657222Y-81412009D01*
X104686552Y-81376271D01*
X104769814Y-81274814D01*
X104871271Y-81191552D01*
X104907009Y-81162222D01*
X104924913Y-81152652D01*
X105063533Y-81078557D01*
X105120147Y-81061384D01*
X105233373Y-81027037D01*
X105299558Y-81020518D01*
X105365740Y-81014000D01*
X105454260Y-81014000D01*
X105520442Y-81020518D01*
X105520442Y-81020518D01*
G37*
G36*
X108060442Y-81020518D02*
X108126627Y-81027037D01*
X108239853Y-81061384D01*
X108296467Y-81078557D01*
X108435087Y-81152652D01*
X108452991Y-81162222D01*
X108488729Y-81191552D01*
X108590186Y-81274814D01*
X108673448Y-81376271D01*
X108702778Y-81412009D01*
X108702779Y-81412011D01*
X108786443Y-81568533D01*
X108786443Y-81568534D01*
X108837963Y-81738373D01*
X108855359Y-81915000D01*
X108837963Y-82091627D01*
X108824392Y-82136365D01*
X108786443Y-82261467D01*
X108712348Y-82400087D01*
X108702778Y-82417991D01*
X108673448Y-82453729D01*
X108590186Y-82555186D01*
X108488729Y-82638448D01*
X108452991Y-82667778D01*
X108452989Y-82667779D01*
X108296467Y-82751443D01*
X108239853Y-82768616D01*
X108126627Y-82802963D01*
X108061382Y-82809389D01*
X107994260Y-82816000D01*
X107905740Y-82816000D01*
X107838618Y-82809389D01*
X107773373Y-82802963D01*
X107660147Y-82768616D01*
X107603533Y-82751443D01*
X107447011Y-82667779D01*
X107447009Y-82667778D01*
X107411271Y-82638448D01*
X107309814Y-82555186D01*
X107226552Y-82453729D01*
X107197222Y-82417991D01*
X107187652Y-82400087D01*
X107113557Y-82261467D01*
X107075608Y-82136365D01*
X107062037Y-82091627D01*
X107044641Y-81915000D01*
X107062037Y-81738373D01*
X107113557Y-81568534D01*
X107113557Y-81568533D01*
X107197221Y-81412011D01*
X107197222Y-81412009D01*
X107226552Y-81376271D01*
X107309814Y-81274814D01*
X107411271Y-81191552D01*
X107447009Y-81162222D01*
X107464913Y-81152652D01*
X107603533Y-81078557D01*
X107660147Y-81061384D01*
X107773373Y-81027037D01*
X107839558Y-81020518D01*
X107905740Y-81014000D01*
X107994260Y-81014000D01*
X108060442Y-81020518D01*
X108060442Y-81020518D01*
G37*
G36*
X173026565Y-80309389D02*
X173217834Y-80388615D01*
X173389976Y-80503637D01*
X173536363Y-80650024D01*
X173651385Y-80822166D01*
X173730611Y-81013435D01*
X173771000Y-81216484D01*
X173771000Y-81423516D01*
X173730611Y-81626565D01*
X173651385Y-81817834D01*
X173536363Y-81989976D01*
X173389976Y-82136363D01*
X173217834Y-82251385D01*
X173026565Y-82330611D01*
X172823516Y-82371000D01*
X172616484Y-82371000D01*
X172413435Y-82330611D01*
X172222166Y-82251385D01*
X172050024Y-82136363D01*
X171903637Y-81989976D01*
X171788615Y-81817834D01*
X171709389Y-81626565D01*
X171669000Y-81423516D01*
X171669000Y-81216484D01*
X171709389Y-81013435D01*
X171788615Y-80822166D01*
X171903637Y-80650024D01*
X172050024Y-80503637D01*
X172222166Y-80388615D01*
X172413435Y-80309389D01*
X172616484Y-80269000D01*
X172823516Y-80269000D01*
X173026565Y-80309389D01*
X173026565Y-80309389D01*
G37*
G36*
X142892000Y-82195000D02*
X140290000Y-82195000D01*
X140290000Y-80093000D01*
X142892000Y-80093000D01*
X142892000Y-82195000D01*
X142892000Y-82195000D01*
G37*
G36*
X108060442Y-78480518D02*
X108126627Y-78487037D01*
X108239853Y-78521384D01*
X108296467Y-78538557D01*
X108435087Y-78612652D01*
X108452991Y-78622222D01*
X108488729Y-78651552D01*
X108590186Y-78734814D01*
X108673448Y-78836271D01*
X108702778Y-78872009D01*
X108702779Y-78872011D01*
X108786443Y-79028533D01*
X108786443Y-79028534D01*
X108837963Y-79198373D01*
X108855359Y-79375000D01*
X108837963Y-79551627D01*
X108812259Y-79636363D01*
X108786443Y-79721467D01*
X108770451Y-79751385D01*
X108702778Y-79877991D01*
X108673448Y-79913729D01*
X108590186Y-80015186D01*
X108495368Y-80093000D01*
X108452991Y-80127778D01*
X108452989Y-80127779D01*
X108296467Y-80211443D01*
X108239853Y-80228616D01*
X108126627Y-80262963D01*
X108065331Y-80269000D01*
X107994260Y-80276000D01*
X107905740Y-80276000D01*
X107834669Y-80269000D01*
X107773373Y-80262963D01*
X107660147Y-80228616D01*
X107603533Y-80211443D01*
X107447011Y-80127779D01*
X107447009Y-80127778D01*
X107404632Y-80093000D01*
X107309814Y-80015186D01*
X107226552Y-79913729D01*
X107197222Y-79877991D01*
X107129549Y-79751385D01*
X107113557Y-79721467D01*
X107087741Y-79636363D01*
X107062037Y-79551627D01*
X107044641Y-79375000D01*
X107062037Y-79198373D01*
X107113557Y-79028534D01*
X107113557Y-79028533D01*
X107197221Y-78872011D01*
X107197222Y-78872009D01*
X107226552Y-78836271D01*
X107309814Y-78734814D01*
X107411271Y-78651552D01*
X107447009Y-78622222D01*
X107464913Y-78612652D01*
X107603533Y-78538557D01*
X107660147Y-78521384D01*
X107773373Y-78487037D01*
X107839558Y-78480518D01*
X107905740Y-78474000D01*
X107994260Y-78474000D01*
X108060442Y-78480518D01*
X108060442Y-78480518D01*
G37*
G36*
X105520442Y-78480518D02*
X105586627Y-78487037D01*
X105699853Y-78521384D01*
X105756467Y-78538557D01*
X105895087Y-78612652D01*
X105912991Y-78622222D01*
X105948729Y-78651552D01*
X106050186Y-78734814D01*
X106133448Y-78836271D01*
X106162778Y-78872009D01*
X106162779Y-78872011D01*
X106246443Y-79028533D01*
X106246443Y-79028534D01*
X106297963Y-79198373D01*
X106315359Y-79375000D01*
X106297963Y-79551627D01*
X106272259Y-79636363D01*
X106246443Y-79721467D01*
X106230451Y-79751385D01*
X106162778Y-79877991D01*
X106133448Y-79913729D01*
X106050186Y-80015186D01*
X105955368Y-80093000D01*
X105912991Y-80127778D01*
X105912989Y-80127779D01*
X105756467Y-80211443D01*
X105699853Y-80228616D01*
X105586627Y-80262963D01*
X105525331Y-80269000D01*
X105454260Y-80276000D01*
X105365740Y-80276000D01*
X105294669Y-80269000D01*
X105233373Y-80262963D01*
X105120147Y-80228616D01*
X105063533Y-80211443D01*
X104907011Y-80127779D01*
X104907009Y-80127778D01*
X104864632Y-80093000D01*
X104769814Y-80015186D01*
X104686552Y-79913729D01*
X104657222Y-79877991D01*
X104589549Y-79751385D01*
X104573557Y-79721467D01*
X104547741Y-79636363D01*
X104522037Y-79551627D01*
X104504641Y-79375000D01*
X104522037Y-79198373D01*
X104573557Y-79028534D01*
X104573557Y-79028533D01*
X104657221Y-78872011D01*
X104657222Y-78872009D01*
X104686552Y-78836271D01*
X104769814Y-78734814D01*
X104871271Y-78651552D01*
X104907009Y-78622222D01*
X104924913Y-78612652D01*
X105063533Y-78538557D01*
X105120147Y-78521384D01*
X105233373Y-78487037D01*
X105299558Y-78480518D01*
X105365740Y-78474000D01*
X105454260Y-78474000D01*
X105520442Y-78480518D01*
X105520442Y-78480518D01*
G37*
G36*
X151542000Y-80045000D02*
X148940000Y-80045000D01*
X148940000Y-77943000D01*
X151542000Y-77943000D01*
X151542000Y-80045000D01*
X151542000Y-80045000D01*
G37*
G36*
X187526565Y-77809389D02*
X187717834Y-77888615D01*
X187889976Y-78003637D01*
X188036363Y-78150024D01*
X188151385Y-78322166D01*
X188230611Y-78513435D01*
X188271000Y-78716484D01*
X188271000Y-78923516D01*
X188230611Y-79126565D01*
X188151385Y-79317834D01*
X188036363Y-79489976D01*
X187889976Y-79636363D01*
X187717834Y-79751385D01*
X187526565Y-79830611D01*
X187323516Y-79871000D01*
X187116484Y-79871000D01*
X186913435Y-79830611D01*
X186722166Y-79751385D01*
X186550024Y-79636363D01*
X186403637Y-79489976D01*
X186288615Y-79317834D01*
X186209389Y-79126565D01*
X186169000Y-78923516D01*
X186169000Y-78716484D01*
X186209389Y-78513435D01*
X186288615Y-78322166D01*
X186403637Y-78150024D01*
X186550024Y-78003637D01*
X186722166Y-77888615D01*
X186913435Y-77809389D01*
X187116484Y-77769000D01*
X187323516Y-77769000D01*
X187526565Y-77809389D01*
X187526565Y-77809389D01*
G37*
G36*
X173026565Y-77809389D02*
X173217834Y-77888615D01*
X173389976Y-78003637D01*
X173536363Y-78150024D01*
X173651385Y-78322166D01*
X173730611Y-78513435D01*
X173771000Y-78716484D01*
X173771000Y-78923516D01*
X173730611Y-79126565D01*
X173651385Y-79317834D01*
X173536363Y-79489976D01*
X173389976Y-79636363D01*
X173217834Y-79751385D01*
X173026565Y-79830611D01*
X172823516Y-79871000D01*
X172616484Y-79871000D01*
X172413435Y-79830611D01*
X172222166Y-79751385D01*
X172050024Y-79636363D01*
X171903637Y-79489976D01*
X171788615Y-79317834D01*
X171709389Y-79126565D01*
X171669000Y-78923516D01*
X171669000Y-78716484D01*
X171709389Y-78513435D01*
X171788615Y-78322166D01*
X171903637Y-78150024D01*
X172050024Y-78003637D01*
X172222166Y-77888615D01*
X172413435Y-77809389D01*
X172616484Y-77769000D01*
X172823516Y-77769000D01*
X173026565Y-77809389D01*
X173026565Y-77809389D01*
G37*
G36*
X142892000Y-77895000D02*
X140290000Y-77895000D01*
X140290000Y-75793000D01*
X142892000Y-75793000D01*
X142892000Y-77895000D01*
X142892000Y-77895000D01*
G37*
G36*
X105520442Y-75940518D02*
X105586627Y-75947037D01*
X105699853Y-75981384D01*
X105756467Y-75998557D01*
X105895087Y-76072652D01*
X105912991Y-76082222D01*
X105948729Y-76111552D01*
X106050186Y-76194814D01*
X106133448Y-76296271D01*
X106162778Y-76332009D01*
X106162779Y-76332011D01*
X106246443Y-76488533D01*
X106246443Y-76488534D01*
X106297963Y-76658373D01*
X106315359Y-76835000D01*
X106297963Y-77011627D01*
X106263616Y-77124853D01*
X106246443Y-77181467D01*
X106172348Y-77320087D01*
X106162778Y-77337991D01*
X106133448Y-77373729D01*
X106050186Y-77475186D01*
X105948729Y-77558448D01*
X105912991Y-77587778D01*
X105912989Y-77587779D01*
X105756467Y-77671443D01*
X105699853Y-77688616D01*
X105586627Y-77722963D01*
X105520443Y-77729481D01*
X105454260Y-77736000D01*
X105365740Y-77736000D01*
X105299557Y-77729481D01*
X105233373Y-77722963D01*
X105120147Y-77688616D01*
X105063533Y-77671443D01*
X104907011Y-77587779D01*
X104907009Y-77587778D01*
X104871271Y-77558448D01*
X104769814Y-77475186D01*
X104686552Y-77373729D01*
X104657222Y-77337991D01*
X104647652Y-77320087D01*
X104573557Y-77181467D01*
X104556384Y-77124853D01*
X104522037Y-77011627D01*
X104504641Y-76835000D01*
X104522037Y-76658373D01*
X104573557Y-76488534D01*
X104573557Y-76488533D01*
X104657221Y-76332011D01*
X104657222Y-76332009D01*
X104686552Y-76296271D01*
X104769814Y-76194814D01*
X104871271Y-76111552D01*
X104907009Y-76082222D01*
X104924913Y-76072652D01*
X105063533Y-75998557D01*
X105120147Y-75981384D01*
X105233373Y-75947037D01*
X105299558Y-75940518D01*
X105365740Y-75934000D01*
X105454260Y-75934000D01*
X105520442Y-75940518D01*
X105520442Y-75940518D01*
G37*
G36*
X108060442Y-75940518D02*
X108126627Y-75947037D01*
X108239853Y-75981384D01*
X108296467Y-75998557D01*
X108435087Y-76072652D01*
X108452991Y-76082222D01*
X108488729Y-76111552D01*
X108590186Y-76194814D01*
X108673448Y-76296271D01*
X108702778Y-76332009D01*
X108702779Y-76332011D01*
X108786443Y-76488533D01*
X108786443Y-76488534D01*
X108837963Y-76658373D01*
X108855359Y-76835000D01*
X108837963Y-77011627D01*
X108803616Y-77124853D01*
X108786443Y-77181467D01*
X108712348Y-77320087D01*
X108702778Y-77337991D01*
X108673448Y-77373729D01*
X108590186Y-77475186D01*
X108488729Y-77558448D01*
X108452991Y-77587778D01*
X108452989Y-77587779D01*
X108296467Y-77671443D01*
X108239853Y-77688616D01*
X108126627Y-77722963D01*
X108060443Y-77729481D01*
X107994260Y-77736000D01*
X107905740Y-77736000D01*
X107839557Y-77729481D01*
X107773373Y-77722963D01*
X107660147Y-77688616D01*
X107603533Y-77671443D01*
X107447011Y-77587779D01*
X107447009Y-77587778D01*
X107411271Y-77558448D01*
X107309814Y-77475186D01*
X107226552Y-77373729D01*
X107197222Y-77337991D01*
X107187652Y-77320087D01*
X107113557Y-77181467D01*
X107096384Y-77124853D01*
X107062037Y-77011627D01*
X107044641Y-76835000D01*
X107062037Y-76658373D01*
X107113557Y-76488534D01*
X107113557Y-76488533D01*
X107197221Y-76332011D01*
X107197222Y-76332009D01*
X107226552Y-76296271D01*
X107309814Y-76194814D01*
X107411271Y-76111552D01*
X107447009Y-76082222D01*
X107464913Y-76072652D01*
X107603533Y-75998557D01*
X107660147Y-75981384D01*
X107773373Y-75947037D01*
X107839558Y-75940518D01*
X107905740Y-75934000D01*
X107994260Y-75934000D01*
X108060442Y-75940518D01*
X108060442Y-75940518D01*
G37*
G36*
X181871000Y-76771000D02*
X178569000Y-76771000D01*
X178569000Y-74669000D01*
X181871000Y-74669000D01*
X181871000Y-76771000D01*
X181871000Y-76771000D01*
G37*
G36*
X105520443Y-73400519D02*
X105586627Y-73407037D01*
X105699853Y-73441384D01*
X105756467Y-73458557D01*
X105895087Y-73532652D01*
X105912991Y-73542222D01*
X105948729Y-73571552D01*
X106050186Y-73654814D01*
X106133448Y-73756271D01*
X106162778Y-73792009D01*
X106162779Y-73792011D01*
X106246443Y-73948533D01*
X106246443Y-73948534D01*
X106297963Y-74118373D01*
X106315359Y-74295000D01*
X106297963Y-74471627D01*
X106263616Y-74584853D01*
X106246443Y-74641467D01*
X106231726Y-74669000D01*
X106162778Y-74797991D01*
X106133448Y-74833729D01*
X106050186Y-74935186D01*
X105948729Y-75018448D01*
X105912991Y-75047778D01*
X105912989Y-75047779D01*
X105756467Y-75131443D01*
X105699853Y-75148616D01*
X105586627Y-75182963D01*
X105520442Y-75189482D01*
X105454260Y-75196000D01*
X105365740Y-75196000D01*
X105299558Y-75189482D01*
X105233373Y-75182963D01*
X105120147Y-75148616D01*
X105063533Y-75131443D01*
X104907011Y-75047779D01*
X104907009Y-75047778D01*
X104871271Y-75018448D01*
X104769814Y-74935186D01*
X104686552Y-74833729D01*
X104657222Y-74797991D01*
X104588274Y-74669000D01*
X104573557Y-74641467D01*
X104556384Y-74584853D01*
X104522037Y-74471627D01*
X104504641Y-74295000D01*
X104522037Y-74118373D01*
X104573557Y-73948534D01*
X104573557Y-73948533D01*
X104657221Y-73792011D01*
X104657222Y-73792009D01*
X104686552Y-73756271D01*
X104769814Y-73654814D01*
X104871271Y-73571552D01*
X104907009Y-73542222D01*
X104924913Y-73532652D01*
X105063533Y-73458557D01*
X105120147Y-73441384D01*
X105233373Y-73407037D01*
X105299557Y-73400519D01*
X105365740Y-73394000D01*
X105454260Y-73394000D01*
X105520443Y-73400519D01*
X105520443Y-73400519D01*
G37*
G36*
X108060443Y-73400519D02*
X108126627Y-73407037D01*
X108239853Y-73441384D01*
X108296467Y-73458557D01*
X108435087Y-73532652D01*
X108452991Y-73542222D01*
X108488729Y-73571552D01*
X108590186Y-73654814D01*
X108673448Y-73756271D01*
X108702778Y-73792009D01*
X108702779Y-73792011D01*
X108786443Y-73948533D01*
X108786443Y-73948534D01*
X108837963Y-74118373D01*
X108855359Y-74295000D01*
X108837963Y-74471627D01*
X108803616Y-74584853D01*
X108786443Y-74641467D01*
X108771726Y-74669000D01*
X108702778Y-74797991D01*
X108673448Y-74833729D01*
X108590186Y-74935186D01*
X108488729Y-75018448D01*
X108452991Y-75047778D01*
X108452989Y-75047779D01*
X108296467Y-75131443D01*
X108239853Y-75148616D01*
X108126627Y-75182963D01*
X108060442Y-75189482D01*
X107994260Y-75196000D01*
X107905740Y-75196000D01*
X107839558Y-75189482D01*
X107773373Y-75182963D01*
X107660147Y-75148616D01*
X107603533Y-75131443D01*
X107447011Y-75047779D01*
X107447009Y-75047778D01*
X107411271Y-75018448D01*
X107309814Y-74935186D01*
X107226552Y-74833729D01*
X107197222Y-74797991D01*
X107128274Y-74669000D01*
X107113557Y-74641467D01*
X107096384Y-74584853D01*
X107062037Y-74471627D01*
X107044641Y-74295000D01*
X107062037Y-74118373D01*
X107113557Y-73948534D01*
X107113557Y-73948533D01*
X107197221Y-73792011D01*
X107197222Y-73792009D01*
X107226552Y-73756271D01*
X107309814Y-73654814D01*
X107411271Y-73571552D01*
X107447009Y-73542222D01*
X107464913Y-73532652D01*
X107603533Y-73458557D01*
X107660147Y-73441384D01*
X107773373Y-73407037D01*
X107839557Y-73400519D01*
X107905740Y-73394000D01*
X107994260Y-73394000D01*
X108060443Y-73400519D01*
X108060443Y-73400519D01*
G37*
G36*
X188444579Y-65364112D02*
X188570544Y-65389168D01*
X188717991Y-65450243D01*
X188926512Y-65536615D01*
X189246880Y-65750678D01*
X189519322Y-66023120D01*
X189733385Y-66343488D01*
X189880832Y-66699457D01*
X189956000Y-67077349D01*
X189956000Y-67462651D01*
X189880832Y-67840543D01*
X189733385Y-68196512D01*
X189519322Y-68516880D01*
X189246880Y-68789322D01*
X188926512Y-69003385D01*
X188717991Y-69089757D01*
X188570544Y-69150832D01*
X188444579Y-69175888D01*
X188192651Y-69226000D01*
X187807349Y-69226000D01*
X187555421Y-69175888D01*
X187429456Y-69150832D01*
X187282009Y-69089757D01*
X187073488Y-69003385D01*
X186753120Y-68789322D01*
X186480678Y-68516880D01*
X186266615Y-68196512D01*
X186119168Y-67840543D01*
X186044000Y-67462651D01*
X186044000Y-67077349D01*
X186119168Y-66699457D01*
X186266615Y-66343488D01*
X186480678Y-66023120D01*
X186753120Y-65750678D01*
X187073488Y-65536615D01*
X187282009Y-65450243D01*
X187429456Y-65389168D01*
X187555421Y-65364112D01*
X187807349Y-65314000D01*
X188192651Y-65314000D01*
X188444579Y-65364112D01*
X188444579Y-65364112D01*
G37*
G36*
X100444579Y-65364112D02*
X100570544Y-65389168D01*
X100717991Y-65450243D01*
X100926512Y-65536615D01*
X101246880Y-65750678D01*
X101519322Y-66023120D01*
X101733385Y-66343488D01*
X101880832Y-66699457D01*
X101956000Y-67077349D01*
X101956000Y-67462651D01*
X101880832Y-67840543D01*
X101733385Y-68196512D01*
X101519322Y-68516880D01*
X101246880Y-68789322D01*
X100926512Y-69003385D01*
X100717991Y-69089757D01*
X100570544Y-69150832D01*
X100444579Y-69175888D01*
X100192651Y-69226000D01*
X99807349Y-69226000D01*
X99555421Y-69175888D01*
X99429456Y-69150832D01*
X99282009Y-69089757D01*
X99073488Y-69003385D01*
X98753120Y-68789322D01*
X98480678Y-68516880D01*
X98266615Y-68196512D01*
X98119168Y-67840543D01*
X98044000Y-67462651D01*
X98044000Y-67077349D01*
X98119168Y-66699457D01*
X98266615Y-66343488D01*
X98480678Y-66023120D01*
X98753120Y-65750678D01*
X99073488Y-65536615D01*
X99282009Y-65450243D01*
X99429456Y-65389168D01*
X99555421Y-65364112D01*
X99807349Y-65314000D01*
X100192651Y-65314000D01*
X100444579Y-65364112D01*
X100444579Y-65364112D01*
G37*
G36*
X166514313Y-65555466D02*
X166648404Y-65596143D01*
X166681928Y-65606312D01*
X166836404Y-65688880D01*
X166971801Y-65799999D01*
X167082922Y-65935399D01*
X167165486Y-66089867D01*
X167165487Y-66089870D01*
X167165488Y-66089872D01*
X167216334Y-66257486D01*
X167229200Y-66388120D01*
X167229200Y-68151880D01*
X167216334Y-68282514D01*
X167165488Y-68450128D01*
X167165486Y-68450133D01*
X167082922Y-68604601D01*
X166971801Y-68740001D01*
X166836401Y-68851122D01*
X166681933Y-68933686D01*
X166681930Y-68933687D01*
X166681928Y-68933688D01*
X166514314Y-68984534D01*
X166340000Y-69001702D01*
X166165687Y-68984534D01*
X165998073Y-68933688D01*
X165998071Y-68933687D01*
X165998068Y-68933686D01*
X165843600Y-68851122D01*
X165708200Y-68740001D01*
X165597079Y-68604601D01*
X165514515Y-68450133D01*
X165514513Y-68450128D01*
X165463667Y-68282514D01*
X165450801Y-68151880D01*
X165450800Y-66388121D01*
X165463666Y-66257487D01*
X165514512Y-66089873D01*
X165514512Y-66089872D01*
X165597080Y-65935396D01*
X165708199Y-65799999D01*
X165843599Y-65688878D01*
X165998067Y-65606314D01*
X165998070Y-65606313D01*
X165998072Y-65606312D01*
X166165686Y-65555466D01*
X166340000Y-65538298D01*
X166514313Y-65555466D01*
X166514313Y-65555466D01*
G37*
G36*
X130954313Y-65555466D02*
X131088404Y-65596143D01*
X131121928Y-65606312D01*
X131276404Y-65688880D01*
X131411801Y-65799999D01*
X131522922Y-65935399D01*
X131605486Y-66089867D01*
X131605487Y-66089870D01*
X131605488Y-66089872D01*
X131656334Y-66257486D01*
X131669200Y-66388120D01*
X131669200Y-68151880D01*
X131656334Y-68282514D01*
X131605488Y-68450128D01*
X131605486Y-68450133D01*
X131522922Y-68604601D01*
X131411801Y-68740001D01*
X131276401Y-68851122D01*
X131121933Y-68933686D01*
X131121930Y-68933687D01*
X131121928Y-68933688D01*
X130954314Y-68984534D01*
X130780000Y-69001702D01*
X130605687Y-68984534D01*
X130438073Y-68933688D01*
X130438071Y-68933687D01*
X130438068Y-68933686D01*
X130283600Y-68851122D01*
X130148200Y-68740001D01*
X130037079Y-68604601D01*
X129954515Y-68450133D01*
X129954513Y-68450128D01*
X129903667Y-68282514D01*
X129890801Y-68151880D01*
X129890800Y-66388121D01*
X129903666Y-66257487D01*
X129954512Y-66089873D01*
X129954512Y-66089872D01*
X130037080Y-65935396D01*
X130148199Y-65799999D01*
X130283599Y-65688878D01*
X130438067Y-65606314D01*
X130438070Y-65606313D01*
X130438072Y-65606312D01*
X130605686Y-65555466D01*
X130780000Y-65538298D01*
X130954313Y-65555466D01*
X130954313Y-65555466D01*
G37*
G36*
X133494313Y-65555466D02*
X133628404Y-65596143D01*
X133661928Y-65606312D01*
X133816404Y-65688880D01*
X133951801Y-65799999D01*
X134062922Y-65935399D01*
X134145486Y-66089867D01*
X134145487Y-66089870D01*
X134145488Y-66089872D01*
X134196334Y-66257486D01*
X134209200Y-66388120D01*
X134209200Y-68151880D01*
X134196334Y-68282514D01*
X134145488Y-68450128D01*
X134145486Y-68450133D01*
X134062922Y-68604601D01*
X133951801Y-68740001D01*
X133816401Y-68851122D01*
X133661933Y-68933686D01*
X133661930Y-68933687D01*
X133661928Y-68933688D01*
X133494314Y-68984534D01*
X133320000Y-69001702D01*
X133145687Y-68984534D01*
X132978073Y-68933688D01*
X132978071Y-68933687D01*
X132978068Y-68933686D01*
X132823600Y-68851122D01*
X132688200Y-68740001D01*
X132577079Y-68604601D01*
X132494515Y-68450133D01*
X132494513Y-68450128D01*
X132443667Y-68282514D01*
X132430801Y-68151880D01*
X132430800Y-66388121D01*
X132443666Y-66257487D01*
X132494512Y-66089873D01*
X132494512Y-66089872D01*
X132577080Y-65935396D01*
X132688199Y-65799999D01*
X132823599Y-65688878D01*
X132978067Y-65606314D01*
X132978070Y-65606313D01*
X132978072Y-65606312D01*
X133145686Y-65555466D01*
X133320000Y-65538298D01*
X133494313Y-65555466D01*
X133494313Y-65555466D01*
G37*
G36*
X138574313Y-65555466D02*
X138708404Y-65596143D01*
X138741928Y-65606312D01*
X138896404Y-65688880D01*
X139031801Y-65799999D01*
X139142922Y-65935399D01*
X139225486Y-66089867D01*
X139225487Y-66089870D01*
X139225488Y-66089872D01*
X139276334Y-66257486D01*
X139289200Y-66388120D01*
X139289200Y-68151880D01*
X139276334Y-68282514D01*
X139225488Y-68450128D01*
X139225486Y-68450133D01*
X139142922Y-68604601D01*
X139031801Y-68740001D01*
X138896401Y-68851122D01*
X138741933Y-68933686D01*
X138741930Y-68933687D01*
X138741928Y-68933688D01*
X138574314Y-68984534D01*
X138400000Y-69001702D01*
X138225687Y-68984534D01*
X138058073Y-68933688D01*
X138058071Y-68933687D01*
X138058068Y-68933686D01*
X137903600Y-68851122D01*
X137768200Y-68740001D01*
X137657079Y-68604601D01*
X137574515Y-68450133D01*
X137574513Y-68450128D01*
X137523667Y-68282514D01*
X137510801Y-68151880D01*
X137510800Y-66388121D01*
X137523666Y-66257487D01*
X137574512Y-66089873D01*
X137574512Y-66089872D01*
X137657080Y-65935396D01*
X137768199Y-65799999D01*
X137903599Y-65688878D01*
X138058067Y-65606314D01*
X138058070Y-65606313D01*
X138058072Y-65606312D01*
X138225686Y-65555466D01*
X138400000Y-65538298D01*
X138574313Y-65555466D01*
X138574313Y-65555466D01*
G37*
G36*
X143654313Y-65555466D02*
X143788404Y-65596143D01*
X143821928Y-65606312D01*
X143976404Y-65688880D01*
X144111801Y-65799999D01*
X144222922Y-65935399D01*
X144305486Y-66089867D01*
X144305487Y-66089870D01*
X144305488Y-66089872D01*
X144356334Y-66257486D01*
X144369200Y-66388120D01*
X144369200Y-68151880D01*
X144356334Y-68282514D01*
X144305488Y-68450128D01*
X144305486Y-68450133D01*
X144222922Y-68604601D01*
X144111801Y-68740001D01*
X143976401Y-68851122D01*
X143821933Y-68933686D01*
X143821930Y-68933687D01*
X143821928Y-68933688D01*
X143654314Y-68984534D01*
X143480000Y-69001702D01*
X143305687Y-68984534D01*
X143138073Y-68933688D01*
X143138071Y-68933687D01*
X143138068Y-68933686D01*
X142983600Y-68851122D01*
X142848200Y-68740001D01*
X142737079Y-68604601D01*
X142654515Y-68450133D01*
X142654513Y-68450128D01*
X142603667Y-68282514D01*
X142590801Y-68151880D01*
X142590800Y-66388121D01*
X142603666Y-66257487D01*
X142654512Y-66089873D01*
X142654512Y-66089872D01*
X142737080Y-65935396D01*
X142848199Y-65799999D01*
X142983599Y-65688878D01*
X143138067Y-65606314D01*
X143138070Y-65606313D01*
X143138072Y-65606312D01*
X143305686Y-65555466D01*
X143480000Y-65538298D01*
X143654313Y-65555466D01*
X143654313Y-65555466D01*
G37*
G36*
X141114313Y-65555466D02*
X141248404Y-65596143D01*
X141281928Y-65606312D01*
X141436404Y-65688880D01*
X141571801Y-65799999D01*
X141682922Y-65935399D01*
X141765486Y-66089867D01*
X141765487Y-66089870D01*
X141765488Y-66089872D01*
X141816334Y-66257486D01*
X141829200Y-66388120D01*
X141829200Y-68151880D01*
X141816334Y-68282514D01*
X141765488Y-68450128D01*
X141765486Y-68450133D01*
X141682922Y-68604601D01*
X141571801Y-68740001D01*
X141436401Y-68851122D01*
X141281933Y-68933686D01*
X141281930Y-68933687D01*
X141281928Y-68933688D01*
X141114314Y-68984534D01*
X140940000Y-69001702D01*
X140765687Y-68984534D01*
X140598073Y-68933688D01*
X140598071Y-68933687D01*
X140598068Y-68933686D01*
X140443600Y-68851122D01*
X140308200Y-68740001D01*
X140197079Y-68604601D01*
X140114515Y-68450133D01*
X140114513Y-68450128D01*
X140063667Y-68282514D01*
X140050801Y-68151880D01*
X140050800Y-66388121D01*
X140063666Y-66257487D01*
X140114512Y-66089873D01*
X140114512Y-66089872D01*
X140197080Y-65935396D01*
X140308199Y-65799999D01*
X140443599Y-65688878D01*
X140598067Y-65606314D01*
X140598070Y-65606313D01*
X140598072Y-65606312D01*
X140765686Y-65555466D01*
X140940000Y-65538298D01*
X141114313Y-65555466D01*
X141114313Y-65555466D01*
G37*
G36*
X153814313Y-65555466D02*
X153948404Y-65596143D01*
X153981928Y-65606312D01*
X154136404Y-65688880D01*
X154271801Y-65799999D01*
X154382922Y-65935399D01*
X154465486Y-66089867D01*
X154465487Y-66089870D01*
X154465488Y-66089872D01*
X154516334Y-66257486D01*
X154529200Y-66388120D01*
X154529200Y-68151880D01*
X154516334Y-68282514D01*
X154465488Y-68450128D01*
X154465486Y-68450133D01*
X154382922Y-68604601D01*
X154271801Y-68740001D01*
X154136401Y-68851122D01*
X153981933Y-68933686D01*
X153981930Y-68933687D01*
X153981928Y-68933688D01*
X153814314Y-68984534D01*
X153640000Y-69001702D01*
X153465687Y-68984534D01*
X153298073Y-68933688D01*
X153298071Y-68933687D01*
X153298068Y-68933686D01*
X153143600Y-68851122D01*
X153008200Y-68740001D01*
X152897079Y-68604601D01*
X152814515Y-68450133D01*
X152814513Y-68450128D01*
X152763667Y-68282514D01*
X152750801Y-68151880D01*
X152750800Y-66388121D01*
X152763666Y-66257487D01*
X152814512Y-66089873D01*
X152814512Y-66089872D01*
X152897080Y-65935396D01*
X153008199Y-65799999D01*
X153143599Y-65688878D01*
X153298067Y-65606314D01*
X153298070Y-65606313D01*
X153298072Y-65606312D01*
X153465686Y-65555466D01*
X153640000Y-65538298D01*
X153814313Y-65555466D01*
X153814313Y-65555466D01*
G37*
G36*
X176674313Y-65555466D02*
X176808404Y-65596143D01*
X176841928Y-65606312D01*
X176996404Y-65688880D01*
X177131801Y-65799999D01*
X177242922Y-65935399D01*
X177325486Y-66089867D01*
X177325487Y-66089870D01*
X177325488Y-66089872D01*
X177376334Y-66257486D01*
X177389200Y-66388120D01*
X177389200Y-68151880D01*
X177376334Y-68282514D01*
X177325488Y-68450128D01*
X177325486Y-68450133D01*
X177242922Y-68604601D01*
X177131801Y-68740001D01*
X176996401Y-68851122D01*
X176841933Y-68933686D01*
X176841930Y-68933687D01*
X176841928Y-68933688D01*
X176674314Y-68984534D01*
X176500000Y-69001702D01*
X176325687Y-68984534D01*
X176158073Y-68933688D01*
X176158071Y-68933687D01*
X176158068Y-68933686D01*
X176003600Y-68851122D01*
X175868200Y-68740001D01*
X175757079Y-68604601D01*
X175674515Y-68450133D01*
X175674513Y-68450128D01*
X175623667Y-68282514D01*
X175610801Y-68151880D01*
X175610800Y-66388121D01*
X175623666Y-66257487D01*
X175674512Y-66089873D01*
X175674512Y-66089872D01*
X175757080Y-65935396D01*
X175868199Y-65799999D01*
X176003599Y-65688878D01*
X176158067Y-65606314D01*
X176158070Y-65606313D01*
X176158072Y-65606312D01*
X176325686Y-65555466D01*
X176500000Y-65538298D01*
X176674313Y-65555466D01*
X176674313Y-65555466D01*
G37*
G36*
X174134313Y-65555466D02*
X174268404Y-65596143D01*
X174301928Y-65606312D01*
X174456404Y-65688880D01*
X174591801Y-65799999D01*
X174702922Y-65935399D01*
X174785486Y-66089867D01*
X174785487Y-66089870D01*
X174785488Y-66089872D01*
X174836334Y-66257486D01*
X174849200Y-66388120D01*
X174849200Y-68151880D01*
X174836334Y-68282514D01*
X174785488Y-68450128D01*
X174785486Y-68450133D01*
X174702922Y-68604601D01*
X174591801Y-68740001D01*
X174456401Y-68851122D01*
X174301933Y-68933686D01*
X174301930Y-68933687D01*
X174301928Y-68933688D01*
X174134314Y-68984534D01*
X173960000Y-69001702D01*
X173785687Y-68984534D01*
X173618073Y-68933688D01*
X173618071Y-68933687D01*
X173618068Y-68933686D01*
X173463600Y-68851122D01*
X173328200Y-68740001D01*
X173217079Y-68604601D01*
X173134515Y-68450133D01*
X173134513Y-68450128D01*
X173083667Y-68282514D01*
X173070801Y-68151880D01*
X173070800Y-66388121D01*
X173083666Y-66257487D01*
X173134512Y-66089873D01*
X173134512Y-66089872D01*
X173217080Y-65935396D01*
X173328199Y-65799999D01*
X173463599Y-65688878D01*
X173618067Y-65606314D01*
X173618070Y-65606313D01*
X173618072Y-65606312D01*
X173785686Y-65555466D01*
X173960000Y-65538298D01*
X174134313Y-65555466D01*
X174134313Y-65555466D01*
G37*
G36*
X171594313Y-65555466D02*
X171728404Y-65596143D01*
X171761928Y-65606312D01*
X171916404Y-65688880D01*
X172051801Y-65799999D01*
X172162922Y-65935399D01*
X172245486Y-66089867D01*
X172245487Y-66089870D01*
X172245488Y-66089872D01*
X172296334Y-66257486D01*
X172309200Y-66388120D01*
X172309200Y-68151880D01*
X172296334Y-68282514D01*
X172245488Y-68450128D01*
X172245486Y-68450133D01*
X172162922Y-68604601D01*
X172051801Y-68740001D01*
X171916401Y-68851122D01*
X171761933Y-68933686D01*
X171761930Y-68933687D01*
X171761928Y-68933688D01*
X171594314Y-68984534D01*
X171420000Y-69001702D01*
X171245687Y-68984534D01*
X171078073Y-68933688D01*
X171078071Y-68933687D01*
X171078068Y-68933686D01*
X170923600Y-68851122D01*
X170788200Y-68740001D01*
X170677079Y-68604601D01*
X170594515Y-68450133D01*
X170594513Y-68450128D01*
X170543667Y-68282514D01*
X170530801Y-68151880D01*
X170530800Y-66388121D01*
X170543666Y-66257487D01*
X170594512Y-66089873D01*
X170594512Y-66089872D01*
X170677080Y-65935396D01*
X170788199Y-65799999D01*
X170923599Y-65688878D01*
X171078067Y-65606314D01*
X171078070Y-65606313D01*
X171078072Y-65606312D01*
X171245686Y-65555466D01*
X171420000Y-65538298D01*
X171594313Y-65555466D01*
X171594313Y-65555466D01*
G37*
G36*
X169054313Y-65555466D02*
X169188404Y-65596143D01*
X169221928Y-65606312D01*
X169376404Y-65688880D01*
X169511801Y-65799999D01*
X169622922Y-65935399D01*
X169705486Y-66089867D01*
X169705487Y-66089870D01*
X169705488Y-66089872D01*
X169756334Y-66257486D01*
X169769200Y-66388120D01*
X169769200Y-68151880D01*
X169756334Y-68282514D01*
X169705488Y-68450128D01*
X169705486Y-68450133D01*
X169622922Y-68604601D01*
X169511801Y-68740001D01*
X169376401Y-68851122D01*
X169221933Y-68933686D01*
X169221930Y-68933687D01*
X169221928Y-68933688D01*
X169054314Y-68984534D01*
X168880000Y-69001702D01*
X168705687Y-68984534D01*
X168538073Y-68933688D01*
X168538071Y-68933687D01*
X168538068Y-68933686D01*
X168383600Y-68851122D01*
X168248200Y-68740001D01*
X168137079Y-68604601D01*
X168054515Y-68450133D01*
X168054513Y-68450128D01*
X168003667Y-68282514D01*
X167990801Y-68151880D01*
X167990800Y-66388121D01*
X168003666Y-66257487D01*
X168054512Y-66089873D01*
X168054512Y-66089872D01*
X168137080Y-65935396D01*
X168248199Y-65799999D01*
X168383599Y-65688878D01*
X168538067Y-65606314D01*
X168538070Y-65606313D01*
X168538072Y-65606312D01*
X168705686Y-65555466D01*
X168880000Y-65538298D01*
X169054313Y-65555466D01*
X169054313Y-65555466D01*
G37*
G36*
X163974313Y-65555466D02*
X164108404Y-65596143D01*
X164141928Y-65606312D01*
X164296404Y-65688880D01*
X164431801Y-65799999D01*
X164542922Y-65935399D01*
X164625486Y-66089867D01*
X164625487Y-66089870D01*
X164625488Y-66089872D01*
X164676334Y-66257486D01*
X164689200Y-66388120D01*
X164689200Y-68151880D01*
X164676334Y-68282514D01*
X164625488Y-68450128D01*
X164625486Y-68450133D01*
X164542922Y-68604601D01*
X164431801Y-68740001D01*
X164296401Y-68851122D01*
X164141933Y-68933686D01*
X164141930Y-68933687D01*
X164141928Y-68933688D01*
X163974314Y-68984534D01*
X163800000Y-69001702D01*
X163625687Y-68984534D01*
X163458073Y-68933688D01*
X163458071Y-68933687D01*
X163458068Y-68933686D01*
X163303600Y-68851122D01*
X163168200Y-68740001D01*
X163057079Y-68604601D01*
X162974515Y-68450133D01*
X162974513Y-68450128D01*
X162923667Y-68282514D01*
X162910801Y-68151880D01*
X162910800Y-66388121D01*
X162923666Y-66257487D01*
X162974512Y-66089873D01*
X162974512Y-66089872D01*
X163057080Y-65935396D01*
X163168199Y-65799999D01*
X163303599Y-65688878D01*
X163458067Y-65606314D01*
X163458070Y-65606313D01*
X163458072Y-65606312D01*
X163625686Y-65555466D01*
X163800000Y-65538298D01*
X163974313Y-65555466D01*
X163974313Y-65555466D01*
G37*
G36*
X161434313Y-65555466D02*
X161568404Y-65596143D01*
X161601928Y-65606312D01*
X161756404Y-65688880D01*
X161891801Y-65799999D01*
X162002922Y-65935399D01*
X162085486Y-66089867D01*
X162085487Y-66089870D01*
X162085488Y-66089872D01*
X162136334Y-66257486D01*
X162149200Y-66388120D01*
X162149200Y-68151880D01*
X162136334Y-68282514D01*
X162085488Y-68450128D01*
X162085486Y-68450133D01*
X162002922Y-68604601D01*
X161891801Y-68740001D01*
X161756401Y-68851122D01*
X161601933Y-68933686D01*
X161601930Y-68933687D01*
X161601928Y-68933688D01*
X161434314Y-68984534D01*
X161260000Y-69001702D01*
X161085687Y-68984534D01*
X160918073Y-68933688D01*
X160918071Y-68933687D01*
X160918068Y-68933686D01*
X160763600Y-68851122D01*
X160628200Y-68740001D01*
X160517079Y-68604601D01*
X160434515Y-68450133D01*
X160434513Y-68450128D01*
X160383667Y-68282514D01*
X160370801Y-68151880D01*
X160370800Y-66388121D01*
X160383666Y-66257487D01*
X160434512Y-66089873D01*
X160434512Y-66089872D01*
X160517080Y-65935396D01*
X160628199Y-65799999D01*
X160763599Y-65688878D01*
X160918067Y-65606314D01*
X160918070Y-65606313D01*
X160918072Y-65606312D01*
X161085686Y-65555466D01*
X161260000Y-65538298D01*
X161434313Y-65555466D01*
X161434313Y-65555466D01*
G37*
G36*
X158894313Y-65555466D02*
X159028404Y-65596143D01*
X159061928Y-65606312D01*
X159216404Y-65688880D01*
X159351801Y-65799999D01*
X159462922Y-65935399D01*
X159545486Y-66089867D01*
X159545487Y-66089870D01*
X159545488Y-66089872D01*
X159596334Y-66257486D01*
X159609200Y-66388120D01*
X159609200Y-68151880D01*
X159596334Y-68282514D01*
X159545488Y-68450128D01*
X159545486Y-68450133D01*
X159462922Y-68604601D01*
X159351801Y-68740001D01*
X159216401Y-68851122D01*
X159061933Y-68933686D01*
X159061930Y-68933687D01*
X159061928Y-68933688D01*
X158894314Y-68984534D01*
X158720000Y-69001702D01*
X158545687Y-68984534D01*
X158378073Y-68933688D01*
X158378071Y-68933687D01*
X158378068Y-68933686D01*
X158223600Y-68851122D01*
X158088200Y-68740001D01*
X157977079Y-68604601D01*
X157894515Y-68450133D01*
X157894513Y-68450128D01*
X157843667Y-68282514D01*
X157830801Y-68151880D01*
X157830800Y-66388121D01*
X157843666Y-66257487D01*
X157894512Y-66089873D01*
X157894512Y-66089872D01*
X157977080Y-65935396D01*
X158088199Y-65799999D01*
X158223599Y-65688878D01*
X158378067Y-65606314D01*
X158378070Y-65606313D01*
X158378072Y-65606312D01*
X158545686Y-65555466D01*
X158720000Y-65538298D01*
X158894313Y-65555466D01*
X158894313Y-65555466D01*
G37*
G36*
X156354313Y-65555466D02*
X156488404Y-65596143D01*
X156521928Y-65606312D01*
X156676404Y-65688880D01*
X156811801Y-65799999D01*
X156922922Y-65935399D01*
X157005486Y-66089867D01*
X157005487Y-66089870D01*
X157005488Y-66089872D01*
X157056334Y-66257486D01*
X157069200Y-66388120D01*
X157069200Y-68151880D01*
X157056334Y-68282514D01*
X157005488Y-68450128D01*
X157005486Y-68450133D01*
X156922922Y-68604601D01*
X156811801Y-68740001D01*
X156676401Y-68851122D01*
X156521933Y-68933686D01*
X156521930Y-68933687D01*
X156521928Y-68933688D01*
X156354314Y-68984534D01*
X156180000Y-69001702D01*
X156005687Y-68984534D01*
X155838073Y-68933688D01*
X155838071Y-68933687D01*
X155838068Y-68933686D01*
X155683600Y-68851122D01*
X155548200Y-68740001D01*
X155437079Y-68604601D01*
X155354515Y-68450133D01*
X155354513Y-68450128D01*
X155303667Y-68282514D01*
X155290801Y-68151880D01*
X155290800Y-66388121D01*
X155303666Y-66257487D01*
X155354512Y-66089873D01*
X155354512Y-66089872D01*
X155437080Y-65935396D01*
X155548199Y-65799999D01*
X155683599Y-65688878D01*
X155838067Y-65606314D01*
X155838070Y-65606313D01*
X155838072Y-65606312D01*
X156005686Y-65555466D01*
X156180000Y-65538298D01*
X156354313Y-65555466D01*
X156354313Y-65555466D01*
G37*
G36*
X128414313Y-65555466D02*
X128548404Y-65596143D01*
X128581928Y-65606312D01*
X128736404Y-65688880D01*
X128871801Y-65799999D01*
X128982922Y-65935399D01*
X129065486Y-66089867D01*
X129065487Y-66089870D01*
X129065488Y-66089872D01*
X129116334Y-66257486D01*
X129129200Y-66388120D01*
X129129200Y-68151880D01*
X129116334Y-68282514D01*
X129065488Y-68450128D01*
X129065486Y-68450133D01*
X128982922Y-68604601D01*
X128871801Y-68740001D01*
X128736401Y-68851122D01*
X128581933Y-68933686D01*
X128581930Y-68933687D01*
X128581928Y-68933688D01*
X128414314Y-68984534D01*
X128240000Y-69001702D01*
X128065687Y-68984534D01*
X127898073Y-68933688D01*
X127898071Y-68933687D01*
X127898068Y-68933686D01*
X127743600Y-68851122D01*
X127608200Y-68740001D01*
X127497079Y-68604601D01*
X127414515Y-68450133D01*
X127414513Y-68450128D01*
X127363667Y-68282514D01*
X127350801Y-68151880D01*
X127350800Y-66388121D01*
X127363666Y-66257487D01*
X127414512Y-66089873D01*
X127414512Y-66089872D01*
X127497080Y-65935396D01*
X127608199Y-65799999D01*
X127743599Y-65688878D01*
X127898067Y-65606314D01*
X127898070Y-65606313D01*
X127898072Y-65606312D01*
X128065686Y-65555466D01*
X128240000Y-65538298D01*
X128414313Y-65555466D01*
X128414313Y-65555466D01*
G37*
G36*
X136034313Y-65555466D02*
X136168404Y-65596143D01*
X136201928Y-65606312D01*
X136356404Y-65688880D01*
X136491801Y-65799999D01*
X136602922Y-65935399D01*
X136685486Y-66089867D01*
X136685487Y-66089870D01*
X136685488Y-66089872D01*
X136736334Y-66257486D01*
X136749200Y-66388120D01*
X136749200Y-68151880D01*
X136736334Y-68282514D01*
X136685488Y-68450128D01*
X136685486Y-68450133D01*
X136602922Y-68604601D01*
X136491801Y-68740001D01*
X136356401Y-68851122D01*
X136201933Y-68933686D01*
X136201930Y-68933687D01*
X136201928Y-68933688D01*
X136034314Y-68984534D01*
X135860000Y-69001702D01*
X135685687Y-68984534D01*
X135518073Y-68933688D01*
X135518071Y-68933687D01*
X135518068Y-68933686D01*
X135363600Y-68851122D01*
X135228200Y-68740001D01*
X135117079Y-68604601D01*
X135034515Y-68450133D01*
X135034513Y-68450128D01*
X134983667Y-68282514D01*
X134970801Y-68151880D01*
X134970800Y-66388121D01*
X134983666Y-66257487D01*
X135034512Y-66089873D01*
X135034512Y-66089872D01*
X135117080Y-65935396D01*
X135228199Y-65799999D01*
X135363599Y-65688878D01*
X135518067Y-65606314D01*
X135518070Y-65606313D01*
X135518072Y-65606312D01*
X135685686Y-65555466D01*
X135860000Y-65538298D01*
X136034313Y-65555466D01*
X136034313Y-65555466D01*
G37*
G36*
X148734313Y-65555466D02*
X148868404Y-65596143D01*
X148901928Y-65606312D01*
X149056404Y-65688880D01*
X149191801Y-65799999D01*
X149302922Y-65935399D01*
X149385486Y-66089867D01*
X149385487Y-66089870D01*
X149385488Y-66089872D01*
X149436334Y-66257486D01*
X149449200Y-66388120D01*
X149449200Y-68151880D01*
X149436334Y-68282514D01*
X149385488Y-68450128D01*
X149385486Y-68450133D01*
X149302922Y-68604601D01*
X149191801Y-68740001D01*
X149056401Y-68851122D01*
X148901933Y-68933686D01*
X148901930Y-68933687D01*
X148901928Y-68933688D01*
X148734314Y-68984534D01*
X148560000Y-69001702D01*
X148385687Y-68984534D01*
X148218073Y-68933688D01*
X148218071Y-68933687D01*
X148218068Y-68933686D01*
X148063600Y-68851122D01*
X147928200Y-68740001D01*
X147817079Y-68604601D01*
X147734515Y-68450133D01*
X147734513Y-68450128D01*
X147683667Y-68282514D01*
X147670801Y-68151880D01*
X147670800Y-66388121D01*
X147683666Y-66257487D01*
X147734512Y-66089873D01*
X147734512Y-66089872D01*
X147817080Y-65935396D01*
X147928199Y-65799999D01*
X148063599Y-65688878D01*
X148218067Y-65606314D01*
X148218070Y-65606313D01*
X148218072Y-65606312D01*
X148385686Y-65555466D01*
X148560000Y-65538298D01*
X148734313Y-65555466D01*
X148734313Y-65555466D01*
G37*
G36*
X151274313Y-65555466D02*
X151408404Y-65596143D01*
X151441928Y-65606312D01*
X151596404Y-65688880D01*
X151731801Y-65799999D01*
X151842922Y-65935399D01*
X151925486Y-66089867D01*
X151925487Y-66089870D01*
X151925488Y-66089872D01*
X151976334Y-66257486D01*
X151989200Y-66388120D01*
X151989200Y-68151880D01*
X151976334Y-68282514D01*
X151925488Y-68450128D01*
X151925486Y-68450133D01*
X151842922Y-68604601D01*
X151731801Y-68740001D01*
X151596401Y-68851122D01*
X151441933Y-68933686D01*
X151441930Y-68933687D01*
X151441928Y-68933688D01*
X151274314Y-68984534D01*
X151100000Y-69001702D01*
X150925687Y-68984534D01*
X150758073Y-68933688D01*
X150758071Y-68933687D01*
X150758068Y-68933686D01*
X150603600Y-68851122D01*
X150468200Y-68740001D01*
X150357079Y-68604601D01*
X150274515Y-68450133D01*
X150274513Y-68450128D01*
X150223667Y-68282514D01*
X150210801Y-68151880D01*
X150210800Y-66388121D01*
X150223666Y-66257487D01*
X150274512Y-66089873D01*
X150274512Y-66089872D01*
X150357080Y-65935396D01*
X150468199Y-65799999D01*
X150603599Y-65688878D01*
X150758067Y-65606314D01*
X150758070Y-65606313D01*
X150758072Y-65606312D01*
X150925686Y-65555466D01*
X151100000Y-65538298D01*
X151274313Y-65555466D01*
X151274313Y-65555466D01*
G37*
G36*
X146194313Y-65555466D02*
X146328404Y-65596143D01*
X146361928Y-65606312D01*
X146516404Y-65688880D01*
X146651801Y-65799999D01*
X146762922Y-65935399D01*
X146845486Y-66089867D01*
X146845487Y-66089870D01*
X146845488Y-66089872D01*
X146896334Y-66257486D01*
X146909200Y-66388120D01*
X146909200Y-68151880D01*
X146896334Y-68282514D01*
X146845488Y-68450128D01*
X146845486Y-68450133D01*
X146762922Y-68604601D01*
X146651801Y-68740001D01*
X146516401Y-68851122D01*
X146361933Y-68933686D01*
X146361930Y-68933687D01*
X146361928Y-68933688D01*
X146194314Y-68984534D01*
X146020000Y-69001702D01*
X145845687Y-68984534D01*
X145678073Y-68933688D01*
X145678071Y-68933687D01*
X145678068Y-68933686D01*
X145523600Y-68851122D01*
X145388200Y-68740001D01*
X145277079Y-68604601D01*
X145194515Y-68450133D01*
X145194513Y-68450128D01*
X145143667Y-68282514D01*
X145130801Y-68151880D01*
X145130800Y-66388121D01*
X145143666Y-66257487D01*
X145194512Y-66089873D01*
X145194512Y-66089872D01*
X145277080Y-65935396D01*
X145388199Y-65799999D01*
X145523599Y-65688878D01*
X145678067Y-65606314D01*
X145678070Y-65606313D01*
X145678072Y-65606312D01*
X145845686Y-65555466D01*
X146020000Y-65538298D01*
X146194313Y-65555466D01*
X146194313Y-65555466D01*
G37*
M02*
