G04 #@! TF.GenerationSoftware,KiCad,Pcbnew,(5.0.1)-3*
G04 #@! TF.CreationDate,2018-11-20T19:11:30+01:00*
G04 #@! TF.ProjectId,WeatherClock,57656174686572436C6F636B2E6B6963,rev?*
G04 #@! TF.SameCoordinates,Original*
G04 #@! TF.FileFunction,Copper,L1,Top,Signal*
G04 #@! TF.FilePolarity,Positive*
%FSLAX46Y46*%
G04 Gerber Fmt 4.6, Leading zero omitted, Abs format (unit mm)*
G04 Created by KiCad (PCBNEW (5.0.1)-3) date 20.11.2018 19:11:30*
%MOMM*%
%LPD*%
G01*
G04 APERTURE LIST*
G04 #@! TA.AperFunction,NonConductor*
%ADD10C,0.300000*%
G04 #@! TD*
G04 #@! TA.AperFunction,ComponentPad*
%ADD11C,3.810000*%
G04 #@! TD*
G04 #@! TA.AperFunction,ComponentPad*
%ADD12O,1.676400X3.352800*%
G04 #@! TD*
G04 #@! TA.AperFunction,ComponentPad*
%ADD13O,1.700000X1.700000*%
G04 #@! TD*
G04 #@! TA.AperFunction,ComponentPad*
%ADD14R,1.700000X1.700000*%
G04 #@! TD*
G04 #@! TA.AperFunction,SMDPad,CuDef*
%ADD15R,2.500000X2.000000*%
G04 #@! TD*
G04 #@! TA.AperFunction,ComponentPad*
%ADD16R,1.050000X1.500000*%
G04 #@! TD*
G04 #@! TA.AperFunction,ComponentPad*
%ADD17O,1.050000X1.500000*%
G04 #@! TD*
G04 #@! TA.AperFunction,ComponentPad*
%ADD18C,2.000000*%
G04 #@! TD*
G04 #@! TA.AperFunction,ComponentPad*
%ADD19R,2.000000X2.000000*%
G04 #@! TD*
G04 #@! TA.AperFunction,ComponentPad*
%ADD20R,3.200000X2.000000*%
G04 #@! TD*
G04 #@! TA.AperFunction,SMDPad,CuDef*
%ADD21R,3.510000X2.540000*%
G04 #@! TD*
G04 #@! TA.AperFunction,SMDPad,CuDef*
%ADD22R,1.900000X1.200000*%
G04 #@! TD*
G04 #@! TA.AperFunction,ComponentPad*
%ADD23O,1.900000X1.200000*%
G04 #@! TD*
G04 #@! TA.AperFunction,SMDPad,CuDef*
%ADD24R,1.900000X1.500000*%
G04 #@! TD*
G04 #@! TA.AperFunction,ComponentPad*
%ADD25C,1.450000*%
G04 #@! TD*
G04 #@! TA.AperFunction,SMDPad,CuDef*
%ADD26R,1.350000X0.400000*%
G04 #@! TD*
G04 #@! TA.AperFunction,ComponentPad*
%ADD27C,2.600000*%
G04 #@! TD*
G04 #@! TA.AperFunction,ComponentPad*
%ADD28R,2.600000X2.600000*%
G04 #@! TD*
G04 #@! TA.AperFunction,ComponentPad*
%ADD29C,1.000000*%
G04 #@! TD*
G04 #@! TA.AperFunction,ComponentPad*
%ADD30C,1.500000*%
G04 #@! TD*
G04 #@! TA.AperFunction,ComponentPad*
%ADD31C,1.575000*%
G04 #@! TD*
G04 #@! TA.AperFunction,ComponentPad*
%ADD32R,1.575000X1.575000*%
G04 #@! TD*
G04 #@! TA.AperFunction,ViaPad*
%ADD33C,1.000000*%
G04 #@! TD*
G04 #@! TA.AperFunction,ViaPad*
%ADD34C,0.800000*%
G04 #@! TD*
G04 #@! TA.AperFunction,Conductor*
%ADD35C,0.400000*%
G04 #@! TD*
G04 #@! TA.AperFunction,Conductor*
%ADD36C,0.500000*%
G04 #@! TD*
G04 #@! TA.AperFunction,Conductor*
%ADD37C,0.750000*%
G04 #@! TD*
G04 #@! TA.AperFunction,Conductor*
%ADD38C,0.254000*%
G04 #@! TD*
G04 APERTURE END LIST*
D10*
X161402142Y-132965000D02*
X162116428Y-132965000D01*
X161259285Y-133393571D02*
X161759285Y-131893571D01*
X162259285Y-133393571D01*
X162759285Y-132393571D02*
X162759285Y-133393571D01*
X162759285Y-132536428D02*
X162830714Y-132465000D01*
X162973571Y-132393571D01*
X163187857Y-132393571D01*
X163330714Y-132465000D01*
X163402142Y-132607857D01*
X163402142Y-133393571D01*
X164759285Y-133393571D02*
X164759285Y-131893571D01*
X164759285Y-133322142D02*
X164616428Y-133393571D01*
X164330714Y-133393571D01*
X164187857Y-133322142D01*
X164116428Y-133250714D01*
X164045000Y-133107857D01*
X164045000Y-132679285D01*
X164116428Y-132536428D01*
X164187857Y-132465000D01*
X164330714Y-132393571D01*
X164616428Y-132393571D01*
X164759285Y-132465000D01*
X165473571Y-133393571D02*
X165473571Y-132393571D01*
X165473571Y-132679285D02*
X165545000Y-132536428D01*
X165616428Y-132465000D01*
X165759285Y-132393571D01*
X165902142Y-132393571D01*
X166973571Y-133322142D02*
X166830714Y-133393571D01*
X166545000Y-133393571D01*
X166402142Y-133322142D01*
X166330714Y-133179285D01*
X166330714Y-132607857D01*
X166402142Y-132465000D01*
X166545000Y-132393571D01*
X166830714Y-132393571D01*
X166973571Y-132465000D01*
X167045000Y-132607857D01*
X167045000Y-132750714D01*
X166330714Y-132893571D01*
X168330714Y-133393571D02*
X168330714Y-132607857D01*
X168259285Y-132465000D01*
X168116428Y-132393571D01*
X167830714Y-132393571D01*
X167687857Y-132465000D01*
X168330714Y-133322142D02*
X168187857Y-133393571D01*
X167830714Y-133393571D01*
X167687857Y-133322142D01*
X167616428Y-133179285D01*
X167616428Y-133036428D01*
X167687857Y-132893571D01*
X167830714Y-132822142D01*
X168187857Y-132822142D01*
X168330714Y-132750714D01*
X168973571Y-133322142D02*
X169116428Y-133393571D01*
X169402142Y-133393571D01*
X169545000Y-133322142D01*
X169616428Y-133179285D01*
X169616428Y-133107857D01*
X169545000Y-132965000D01*
X169402142Y-132893571D01*
X169187857Y-132893571D01*
X169045000Y-132822142D01*
X168973571Y-132679285D01*
X168973571Y-132607857D01*
X169045000Y-132465000D01*
X169187857Y-132393571D01*
X169402142Y-132393571D01*
X169545000Y-132465000D01*
X171402142Y-133393571D02*
X171402142Y-131893571D01*
X171759285Y-131893571D01*
X171973571Y-131965000D01*
X172116428Y-132107857D01*
X172187857Y-132250714D01*
X172259285Y-132536428D01*
X172259285Y-132750714D01*
X172187857Y-133036428D01*
X172116428Y-133179285D01*
X171973571Y-133322142D01*
X171759285Y-133393571D01*
X171402142Y-133393571D01*
X173116428Y-133393571D02*
X172973571Y-133322142D01*
X172902142Y-133250714D01*
X172830714Y-133107857D01*
X172830714Y-132679285D01*
X172902142Y-132536428D01*
X172973571Y-132465000D01*
X173116428Y-132393571D01*
X173330714Y-132393571D01*
X173473571Y-132465000D01*
X173545000Y-132536428D01*
X173616428Y-132679285D01*
X173616428Y-133107857D01*
X173545000Y-133250714D01*
X173473571Y-133322142D01*
X173330714Y-133393571D01*
X173116428Y-133393571D01*
X174259285Y-133393571D02*
X174259285Y-132393571D01*
X174259285Y-132679285D02*
X174330714Y-132536428D01*
X174402142Y-132465000D01*
X174545000Y-132393571D01*
X174687857Y-132393571D01*
X175187857Y-133393571D02*
X175187857Y-132393571D01*
X175187857Y-132679285D02*
X175259285Y-132536428D01*
X175330714Y-132465000D01*
X175473571Y-132393571D01*
X175616428Y-132393571D01*
X176687857Y-133322142D02*
X176545000Y-133393571D01*
X176259285Y-133393571D01*
X176116428Y-133322142D01*
X176045000Y-133179285D01*
X176045000Y-132607857D01*
X176116428Y-132465000D01*
X176259285Y-132393571D01*
X176545000Y-132393571D01*
X176687857Y-132465000D01*
X176759285Y-132607857D01*
X176759285Y-132750714D01*
X176045000Y-132893571D01*
X177402142Y-133393571D02*
X177402142Y-132393571D01*
X177402142Y-132679285D02*
X177473571Y-132536428D01*
X177545000Y-132465000D01*
X177687857Y-132393571D01*
X177830714Y-132393571D01*
X161199999Y-129353571D02*
X161557142Y-130853571D01*
X161842857Y-129782142D01*
X162128571Y-130853571D01*
X162485714Y-129353571D01*
X163628571Y-130782142D02*
X163485714Y-130853571D01*
X163199999Y-130853571D01*
X163057142Y-130782142D01*
X162985714Y-130639285D01*
X162985714Y-130067857D01*
X163057142Y-129925000D01*
X163199999Y-129853571D01*
X163485714Y-129853571D01*
X163628571Y-129925000D01*
X163699999Y-130067857D01*
X163699999Y-130210714D01*
X162985714Y-130353571D01*
X164985714Y-130853571D02*
X164985714Y-130067857D01*
X164914285Y-129925000D01*
X164771428Y-129853571D01*
X164485714Y-129853571D01*
X164342857Y-129925000D01*
X164985714Y-130782142D02*
X164842857Y-130853571D01*
X164485714Y-130853571D01*
X164342857Y-130782142D01*
X164271428Y-130639285D01*
X164271428Y-130496428D01*
X164342857Y-130353571D01*
X164485714Y-130282142D01*
X164842857Y-130282142D01*
X164985714Y-130210714D01*
X165485714Y-129853571D02*
X166057142Y-129853571D01*
X165699999Y-129353571D02*
X165699999Y-130639285D01*
X165771428Y-130782142D01*
X165914285Y-130853571D01*
X166057142Y-130853571D01*
X166557142Y-130853571D02*
X166557142Y-129353571D01*
X167199999Y-130853571D02*
X167199999Y-130067857D01*
X167128571Y-129925000D01*
X166985714Y-129853571D01*
X166771428Y-129853571D01*
X166628571Y-129925000D01*
X166557142Y-129996428D01*
X168485714Y-130782142D02*
X168342857Y-130853571D01*
X168057142Y-130853571D01*
X167914285Y-130782142D01*
X167842857Y-130639285D01*
X167842857Y-130067857D01*
X167914285Y-129925000D01*
X168057142Y-129853571D01*
X168342857Y-129853571D01*
X168485714Y-129925000D01*
X168557142Y-130067857D01*
X168557142Y-130210714D01*
X167842857Y-130353571D01*
X169199999Y-130853571D02*
X169199999Y-129853571D01*
X169199999Y-130139285D02*
X169271428Y-129996428D01*
X169342857Y-129925000D01*
X169485714Y-129853571D01*
X169628571Y-129853571D01*
X170985714Y-130710714D02*
X170914285Y-130782142D01*
X170699999Y-130853571D01*
X170557142Y-130853571D01*
X170342857Y-130782142D01*
X170199999Y-130639285D01*
X170128571Y-130496428D01*
X170057142Y-130210714D01*
X170057142Y-129996428D01*
X170128571Y-129710714D01*
X170199999Y-129567857D01*
X170342857Y-129425000D01*
X170557142Y-129353571D01*
X170699999Y-129353571D01*
X170914285Y-129425000D01*
X170985714Y-129496428D01*
X171842857Y-130853571D02*
X171699999Y-130782142D01*
X171628571Y-130639285D01*
X171628571Y-129353571D01*
X172628571Y-130853571D02*
X172485714Y-130782142D01*
X172414285Y-130710714D01*
X172342857Y-130567857D01*
X172342857Y-130139285D01*
X172414285Y-129996428D01*
X172485714Y-129925000D01*
X172628571Y-129853571D01*
X172842857Y-129853571D01*
X172985714Y-129925000D01*
X173057142Y-129996428D01*
X173128571Y-130139285D01*
X173128571Y-130567857D01*
X173057142Y-130710714D01*
X172985714Y-130782142D01*
X172842857Y-130853571D01*
X172628571Y-130853571D01*
X174414285Y-130782142D02*
X174271428Y-130853571D01*
X173985714Y-130853571D01*
X173842857Y-130782142D01*
X173771428Y-130710714D01*
X173699999Y-130567857D01*
X173699999Y-130139285D01*
X173771428Y-129996428D01*
X173842857Y-129925000D01*
X173985714Y-129853571D01*
X174271428Y-129853571D01*
X174414285Y-129925000D01*
X175057142Y-130853571D02*
X175057142Y-129353571D01*
X175199999Y-130282142D02*
X175628571Y-130853571D01*
X175628571Y-129853571D02*
X175057142Y-130425000D01*
X177199999Y-129353571D02*
X177699999Y-130853571D01*
X178199999Y-129353571D01*
X179485714Y-130853571D02*
X178628571Y-130853571D01*
X179057142Y-130853571D02*
X179057142Y-129353571D01*
X178914285Y-129567857D01*
X178771428Y-129710714D01*
X178628571Y-129782142D01*
X180128571Y-130710714D02*
X180200000Y-130782142D01*
X180128571Y-130853571D01*
X180057142Y-130782142D01*
X180128571Y-130710714D01*
X180128571Y-130853571D01*
X181128571Y-129353571D02*
X181271428Y-129353571D01*
X181414285Y-129425000D01*
X181485714Y-129496428D01*
X181557142Y-129639285D01*
X181628571Y-129925000D01*
X181628571Y-130282142D01*
X181557142Y-130567857D01*
X181485714Y-130710714D01*
X181414285Y-130782142D01*
X181271428Y-130853571D01*
X181128571Y-130853571D01*
X180985714Y-130782142D01*
X180914285Y-130710714D01*
X180842857Y-130567857D01*
X180771428Y-130282142D01*
X180771428Y-129925000D01*
X180842857Y-129639285D01*
X180914285Y-129496428D01*
X180985714Y-129425000D01*
X181128571Y-129353571D01*
D11*
G04 #@! TO.P,GLCD1,P$24*
G04 #@! TO.N,N/C*
X188000000Y-132270000D03*
G04 #@! TO.P,GLCD1,P$23*
X100000000Y-132270000D03*
G04 #@! TO.P,GLCD1,P$22*
X100000000Y-67270000D03*
G04 #@! TO.P,GLCD1,P$21*
X188000000Y-67270000D03*
D12*
G04 #@! TO.P,GLCD1,P$1*
G04 #@! TO.N,GND*
X128240000Y-67270000D03*
G04 #@! TO.P,GLCD1,P$2*
G04 #@! TO.N,+5V*
X130780000Y-67270000D03*
G04 #@! TO.P,GLCD1,P$3*
G04 #@! TO.N,Net-(GLCD1-PadP$3)*
X133320000Y-67270000D03*
G04 #@! TO.P,GLCD1,P$4*
G04 #@! TO.N,Net-(GLCD1-PadP$4)*
X135860000Y-67270000D03*
G04 #@! TO.P,GLCD1,P$5*
G04 #@! TO.N,Net-(GLCD1-PadP$5)*
X138400000Y-67270000D03*
G04 #@! TO.P,GLCD1,P$6*
G04 #@! TO.N,Net-(GLCD1-PadP$6)*
X140940000Y-67270000D03*
G04 #@! TO.P,GLCD1,P$7*
G04 #@! TO.N,Net-(GLCD1-PadP$7)*
X143480000Y-67270000D03*
G04 #@! TO.P,GLCD1,P$8*
G04 #@! TO.N,Net-(GLCD1-PadP$8)*
X146020000Y-67270000D03*
G04 #@! TO.P,GLCD1,P$9*
G04 #@! TO.N,Net-(GLCD1-PadP$9)*
X148560000Y-67270000D03*
G04 #@! TO.P,GLCD1,P$10*
G04 #@! TO.N,Net-(GLCD1-PadP$10)*
X151100000Y-67270000D03*
G04 #@! TO.P,GLCD1,P$11*
G04 #@! TO.N,Net-(GLCD1-PadP$11)*
X153640000Y-67270000D03*
G04 #@! TO.P,GLCD1,P$12*
G04 #@! TO.N,Net-(GLCD1-PadP$12)*
X156180000Y-67270000D03*
G04 #@! TO.P,GLCD1,P$13*
G04 #@! TO.N,Net-(GLCD1-PadP$13)*
X158720000Y-67270000D03*
G04 #@! TO.P,GLCD1,P$14*
G04 #@! TO.N,Net-(GLCD1-PadP$14)*
X161260000Y-67270000D03*
G04 #@! TO.P,GLCD1,P$15*
G04 #@! TO.N,CS1*
X163800000Y-67270000D03*
G04 #@! TO.P,GLCD1,P$16*
G04 #@! TO.N,CS2*
X166340000Y-67270000D03*
G04 #@! TO.P,GLCD1,P$17*
G04 #@! TO.N,Net-(GLCD1-PadP$17)*
X168880000Y-67270000D03*
G04 #@! TO.P,GLCD1,P$18*
G04 #@! TO.N,Net-(GLCD1-PadP$18)*
X171420000Y-67270000D03*
G04 #@! TO.P,GLCD1,P$19*
G04 #@! TO.N,Net-(GLCD1-PadP$19)*
X173960000Y-67270000D03*
G04 #@! TO.P,GLCD1,P$20*
G04 #@! TO.N,Net-(GLCD1-PadP$20)*
X176500000Y-67270000D03*
G04 #@! TD*
D13*
G04 #@! TO.P,J3,6*
G04 #@! TO.N,GND*
X182245000Y-117475000D03*
G04 #@! TO.P,J3,5*
G04 #@! TO.N,Net-(J3-Pad5)*
X179705000Y-117475000D03*
G04 #@! TO.P,J3,4*
G04 #@! TO.N,Net-(J3-Pad4)*
X182245000Y-114935000D03*
G04 #@! TO.P,J3,3*
G04 #@! TO.N,Net-(J3-Pad3)*
X179705000Y-114935000D03*
G04 #@! TO.P,J3,2*
G04 #@! TO.N,+5V*
X182245000Y-112395000D03*
D14*
G04 #@! TO.P,J3,1*
G04 #@! TO.N,Net-(C8-Pad2)*
X179705000Y-112395000D03*
G04 #@! TD*
D15*
G04 #@! TO.P,P1,1*
G04 #@! TO.N,GND*
X141591000Y-81144000D03*
G04 #@! TO.P,P1,2*
G04 #@! TO.N,Net-(GLCD1-PadP$3)*
X150241000Y-78994000D03*
G04 #@! TO.P,P1,3*
G04 #@! TO.N,Net-(GLCD1-PadP$18)*
X141591000Y-76844000D03*
G04 #@! TD*
D16*
G04 #@! TO.P,U5,1*
G04 #@! TO.N,GND*
X170395001Y-103720001D03*
D17*
G04 #@! TO.P,U5,3*
X172935001Y-103720001D03*
G04 #@! TO.P,U5,2*
G04 #@! TO.N,Net-(R14-Pad2)*
X171665001Y-103720001D03*
G04 #@! TD*
D18*
G04 #@! TO.P,BZ1,2*
G04 #@! TO.N,GND*
X173564000Y-124968000D03*
D19*
G04 #@! TO.P,BZ1,1*
G04 #@! TO.N,Net-(BZ1-Pad1)*
X165964000Y-124968000D03*
G04 #@! TD*
G04 #@! TO.P,SW1,A*
G04 #@! TO.N,Net-(C11-Pad2)*
X172720000Y-83820000D03*
D18*
G04 #@! TO.P,SW1,C*
G04 #@! TO.N,GND*
X172720000Y-81320000D03*
G04 #@! TO.P,SW1,B*
G04 #@! TO.N,Net-(C12-Pad2)*
X172720000Y-78820000D03*
D20*
G04 #@! TO.P,SW1,MP*
G04 #@! TO.N,N/C*
X180220000Y-86920000D03*
X180220000Y-75720000D03*
D18*
G04 #@! TO.P,SW1,S2*
G04 #@! TO.N,GND*
X187220000Y-83820000D03*
G04 #@! TO.P,SW1,S1*
G04 #@! TO.N,Net-(C13-Pad2)*
X187220000Y-78820000D03*
G04 #@! TD*
D21*
G04 #@! TO.P,BT1,2*
G04 #@! TO.N,GND*
X111760000Y-119276000D03*
G04 #@! TO.P,BT1,1*
G04 #@! TO.N,+BATT*
X111760000Y-89916000D03*
G04 #@! TD*
D13*
G04 #@! TO.P,J5,4*
G04 #@! TO.N,Net-(C13-Pad2)*
X184658000Y-91186000D03*
G04 #@! TO.P,J5,3*
G04 #@! TO.N,Net-(C12-Pad2)*
X182118000Y-91186000D03*
G04 #@! TO.P,J5,2*
G04 #@! TO.N,Net-(C11-Pad2)*
X179578000Y-91186000D03*
D14*
G04 #@! TO.P,J5,1*
G04 #@! TO.N,GND*
X177038000Y-91186000D03*
G04 #@! TD*
D22*
G04 #@! TO.P,J4,6*
G04 #@! TO.N,Net-(J4-Pad6)*
X190269379Y-100954463D03*
X190269379Y-95154463D03*
D23*
X190269379Y-94554463D03*
X190269379Y-101554463D03*
D24*
X190269379Y-99054463D03*
D25*
X187569379Y-95554463D03*
D26*
G04 #@! TO.P,J4,3*
G04 #@! TO.N,Net-(J4-Pad3)*
X187569379Y-98054463D03*
G04 #@! TO.P,J4,4*
G04 #@! TO.N,Net-(J4-Pad4)*
X187569379Y-97404463D03*
G04 #@! TO.P,J4,5*
G04 #@! TO.N,GND*
X187569379Y-96754463D03*
G04 #@! TO.P,J4,1*
G04 #@! TO.N,+5V*
X187569379Y-99354463D03*
G04 #@! TO.P,J4,2*
G04 #@! TO.N,Net-(J4-Pad2)*
X187569379Y-98704463D03*
D25*
G04 #@! TO.P,J4,6*
G04 #@! TO.N,Net-(J4-Pad6)*
X187569379Y-100554463D03*
D24*
X190269379Y-97054463D03*
G04 #@! TD*
D27*
G04 #@! TO.P,J1,3*
G04 #@! TO.N,N/C*
X104140000Y-118237000D03*
G04 #@! TO.P,J1,2*
G04 #@! TO.N,GND*
X101140000Y-122937000D03*
D28*
G04 #@! TO.P,J1,1*
G04 #@! TO.N,+5V*
X107140000Y-122937000D03*
G04 #@! TD*
D13*
G04 #@! TO.P,J2,10*
G04 #@! TO.N,GND*
X105410000Y-74295000D03*
G04 #@! TO.P,J2,9*
G04 #@! TO.N,Net-(J2-Pad9)*
X107950000Y-74295000D03*
G04 #@! TO.P,J2,8*
G04 #@! TO.N,Net-(J2-Pad8)*
X105410000Y-76835000D03*
G04 #@! TO.P,J2,7*
G04 #@! TO.N,+5V*
X107950000Y-76835000D03*
G04 #@! TO.P,J2,6*
G04 #@! TO.N,Net-(J2-Pad6)*
X105410000Y-79375000D03*
G04 #@! TO.P,J2,5*
G04 #@! TO.N,Net-(J2-Pad5)*
X107950000Y-79375000D03*
G04 #@! TO.P,J2,4*
G04 #@! TO.N,Net-(J2-Pad4)*
X105410000Y-81915000D03*
G04 #@! TO.P,J2,3*
G04 #@! TO.N,Net-(J2-Pad3)*
X107950000Y-81915000D03*
G04 #@! TO.P,J2,2*
G04 #@! TO.N,GND*
X105410000Y-84455000D03*
D14*
G04 #@! TO.P,J2,1*
G04 #@! TO.N,Net-(J2-Pad1)*
X107950000Y-84455000D03*
G04 #@! TD*
D29*
G04 #@! TO.P,Q2,2*
G04 #@! TO.N,Net-(Q2-Pad2)*
X121285000Y-87630000D03*
G04 #@! TO.P,Q2,1*
G04 #@! TO.N,Net-(Q2-Pad1)*
X121285000Y-89530000D03*
G04 #@! TD*
D30*
G04 #@! TO.P,Q1,2*
G04 #@! TO.N,Net-(C2-Pad1)*
X143330000Y-109855000D03*
G04 #@! TO.P,Q1,1*
G04 #@! TO.N,Net-(C1-Pad1)*
X138430000Y-109855000D03*
G04 #@! TD*
D31*
G04 #@! TO.P,U2,8*
G04 #@! TO.N,+3V3*
X120015000Y-121920000D03*
G04 #@! TO.P,U2,7*
G04 #@! TO.N,Net-(R3-Pad2)*
X122555000Y-121920000D03*
G04 #@! TO.P,U2,6*
G04 #@! TO.N,Net-(R10-Pad2)*
X125095000Y-121920000D03*
G04 #@! TO.P,U2,5*
G04 #@! TO.N,Net-(U1-Pad9)*
X127635000Y-121920000D03*
D32*
G04 #@! TO.P,U2,4*
G04 #@! TO.N,GND*
X127635000Y-119380000D03*
D31*
G04 #@! TO.P,U2,3*
G04 #@! TO.N,Net-(U2-Pad3)*
X125095000Y-119380000D03*
G04 #@! TO.P,U2,2*
G04 #@! TO.N,Net-(U2-Pad2)*
X122555000Y-119380000D03*
D32*
G04 #@! TO.P,U2,1*
G04 #@! TO.N,Net-(R1-Pad2)*
X120015000Y-119380000D03*
G04 #@! TD*
D33*
G04 #@! TO.N,GND*
X185377339Y-96751563D03*
X111760000Y-122936000D03*
D34*
X141365001Y-84440999D03*
D33*
G04 #@! TO.N,+5V*
X142240000Y-96095001D03*
D34*
X127635000Y-78740000D03*
D33*
X147955000Y-127635000D03*
X155330000Y-95495000D03*
D34*
X171695000Y-95386000D03*
D33*
X172085000Y-72771000D03*
D34*
G04 #@! TO.N,Net-(R3-Pad2)*
X156083000Y-107061000D03*
G04 #@! TO.N,Net-(J3-Pad5)*
X150584000Y-117348000D03*
D33*
G04 #@! TO.N,+BATT*
X118364000Y-85344000D03*
D34*
G04 #@! TO.N,Net-(J3-Pad3)*
X151130000Y-114046000D03*
G04 #@! TO.N,Net-(GLCD1-PadP$4)*
X132080000Y-100330000D03*
G04 #@! TO.N,CS1*
X132080000Y-97790000D03*
G04 #@! TO.N,CS2*
X139065000Y-98425000D03*
G04 #@! TO.N,+5V*
X165245000Y-73043000D03*
G04 #@! TO.N,Net-(R9-Pad2)*
X148717000Y-102743000D03*
X176022000Y-74676000D03*
G04 #@! TO.N,Net-(GLCD1-PadP$4)*
X135890000Y-77216000D03*
G04 #@! TO.N,Net-(GLCD1-PadP$18)*
X160909000Y-74803000D03*
G04 #@! TO.N,Net-(C12-Pad2)*
X132842000Y-103886000D03*
G04 #@! TO.N,Net-(C11-Pad2)*
X129540000Y-101854000D03*
G04 #@! TO.N,Net-(R14-Pad2)*
X153035000Y-107315000D03*
G04 #@! TD*
D35*
G04 #@! TO.N,GND*
X186972099Y-96754463D02*
X186969199Y-96751563D01*
X187569379Y-96754463D02*
X186972099Y-96754463D01*
D36*
X186969199Y-96751563D02*
X185377339Y-96751563D01*
D35*
X185377339Y-96751563D02*
X185377339Y-96751563D01*
D37*
X111760000Y-119276000D02*
X111760000Y-121296000D01*
X111760000Y-121296000D02*
X111760000Y-122936000D01*
X111760000Y-122936000D02*
X111760000Y-122936000D01*
D35*
X141365001Y-81369999D02*
X141591000Y-81144000D01*
X141365001Y-84440999D02*
X141365001Y-81369999D01*
D36*
G04 #@! TO.N,+5V*
X187569379Y-99354463D02*
X185760537Y-99354463D01*
D35*
G04 #@! TO.N,Net-(R3-Pad2)*
X139700000Y-123444000D02*
X156210000Y-106934000D01*
X137668000Y-125476000D02*
X139700000Y-123444000D01*
X126111000Y-125476000D02*
X137668000Y-125476000D01*
X122555000Y-121920000D02*
X126111000Y-125476000D01*
G04 #@! TO.N,Net-(J3-Pad5)*
X179578000Y-117348000D02*
X179705000Y-117475000D01*
X150584000Y-117348000D02*
X179578000Y-117348000D01*
D37*
G04 #@! TO.N,+BATT*
X111760000Y-87896000D02*
X114312000Y-85344000D01*
X111760000Y-89916000D02*
X111760000Y-87896000D01*
X114312000Y-85344000D02*
X118364000Y-85344000D01*
X118364000Y-85344000D02*
X118364000Y-85344000D01*
D35*
G04 #@! TO.N,Net-(J3-Pad3)*
X152019000Y-114935000D02*
X151130000Y-114046000D01*
X179705000Y-114935000D02*
X152019000Y-114935000D01*
G04 #@! TO.N,Net-(J4-Pad6)*
X190269379Y-95154463D02*
X190269379Y-97054463D01*
X190269379Y-100954463D02*
X190269379Y-99054463D01*
G04 #@! TO.N,Net-(GLCD1-PadP$18)*
X141591000Y-76844000D02*
X140817600Y-76844000D01*
G04 #@! TO.N,Net-(R9-Pad2)*
X149116999Y-102343001D02*
X149116999Y-94469001D01*
X148717000Y-102743000D02*
X149116999Y-102343001D01*
X149116999Y-94469001D02*
X167513000Y-76073000D01*
X167513000Y-76073000D02*
X174625000Y-76073000D01*
X174625000Y-76073000D02*
X176022000Y-74676000D01*
X176022000Y-74676000D02*
X176022000Y-74676000D01*
G04 #@! TO.N,Net-(GLCD1-PadP$3)*
X150241000Y-78994000D02*
X138557000Y-78994000D01*
X133320000Y-68108200D02*
X133320000Y-67270000D01*
X138557000Y-73345200D02*
X133320000Y-68108200D01*
X138557000Y-78994000D02*
X138557000Y-73345200D01*
G04 #@! TO.N,Net-(GLCD1-PadP$4)*
X132080000Y-100330000D02*
X131680001Y-99930001D01*
X131680001Y-99930001D02*
X131279999Y-99529999D01*
X131279999Y-99529999D02*
X128651000Y-96901000D01*
X128651000Y-96901000D02*
X128651000Y-84455000D01*
X128651000Y-84455000D02*
X135890000Y-77216000D01*
X135890000Y-77216000D02*
X135890000Y-77216000D01*
G04 #@! TO.N,Net-(GLCD1-PadP$18)*
X141591000Y-76844000D02*
X158868000Y-76844000D01*
X158868000Y-76844000D02*
X160909000Y-74803000D01*
X160909000Y-74803000D02*
X160909000Y-74803000D01*
G04 #@! TO.N,Net-(C12-Pad2)*
X157734000Y-88392000D02*
X157734000Y-88392000D01*
X167179000Y-78820000D02*
X172720000Y-78820000D01*
X157734000Y-88265000D02*
X167179000Y-78820000D01*
X157734000Y-98679000D02*
X157734000Y-88265000D01*
X132842000Y-103886000D02*
X152527000Y-103886000D01*
X152527000Y-103886000D02*
X157734000Y-98679000D01*
G04 #@! TO.N,Net-(C11-Pad2)*
X129540000Y-104394000D02*
X131064000Y-105918000D01*
X129540000Y-101854000D02*
X129540000Y-104394000D01*
X131064000Y-105918000D02*
X152654000Y-105918000D01*
X152654000Y-105918000D02*
X160020000Y-98552000D01*
X166370000Y-83820000D02*
X172720000Y-83820000D01*
X160020000Y-98552000D02*
X160020000Y-90170000D01*
X160020000Y-90170000D02*
X166370000Y-83820000D01*
G04 #@! TO.N,Net-(R14-Pad2)*
X171665001Y-104870001D02*
X171665001Y-103720001D01*
X170401003Y-106133999D02*
X171665001Y-104870001D01*
X154216001Y-106133999D02*
X170401003Y-106133999D01*
X153035000Y-107315000D02*
X154216001Y-106133999D01*
G04 #@! TO.N,CS2*
X166340000Y-74706000D02*
X166340000Y-67270000D01*
X139065000Y-98425000D02*
X142621000Y-98425000D01*
X142621000Y-98425000D02*
X166340000Y-74706000D01*
G04 #@! TO.N,CS1*
X132080000Y-97790000D02*
X141224000Y-88646000D01*
X141224000Y-88646000D02*
X149225000Y-88646000D01*
X163800000Y-74071000D02*
X163800000Y-67270000D01*
X149225000Y-88646000D02*
X163800000Y-74071000D01*
G04 #@! TD*
D38*
G04 #@! TO.N,+5V*
G36*
X186561205Y-65116692D02*
X185846692Y-65831205D01*
X185460000Y-66764762D01*
X185460000Y-67775238D01*
X185846692Y-68708795D01*
X186561205Y-69423308D01*
X187494762Y-69810000D01*
X188505238Y-69810000D01*
X189438795Y-69423308D01*
X190153308Y-68708795D01*
X190373000Y-68178412D01*
X190373000Y-93319463D01*
X189797743Y-93319463D01*
X189437506Y-93391119D01*
X189028994Y-93664078D01*
X188756035Y-94072590D01*
X188660184Y-94554463D01*
X188671939Y-94613559D01*
X188671939Y-94733693D01*
X188339757Y-94401511D01*
X187839900Y-94194463D01*
X187298858Y-94194463D01*
X186799001Y-94401511D01*
X186416427Y-94784085D01*
X186209379Y-95283942D01*
X186209379Y-95824984D01*
X186226602Y-95866563D01*
X186097472Y-95866563D01*
X186020265Y-95789356D01*
X185603105Y-95616563D01*
X185151573Y-95616563D01*
X184734413Y-95789356D01*
X184415132Y-96108637D01*
X184242339Y-96525797D01*
X184242339Y-96977329D01*
X184415132Y-97394489D01*
X184734413Y-97713770D01*
X185151573Y-97886563D01*
X185603105Y-97886563D01*
X186020265Y-97713770D01*
X186097472Y-97636563D01*
X186253324Y-97636563D01*
X186271803Y-97729463D01*
X186246939Y-97854463D01*
X186246939Y-98254463D01*
X186271803Y-98379463D01*
X186246939Y-98504463D01*
X186246939Y-98904463D01*
X186267596Y-99008316D01*
X186259379Y-99028154D01*
X186259379Y-99095713D01*
X186291337Y-99127671D01*
X186296222Y-99152228D01*
X186436570Y-99362272D01*
X186574543Y-99454463D01*
X186418129Y-99454463D01*
X186259379Y-99613213D01*
X186259379Y-99680772D01*
X186356052Y-99914161D01*
X186360645Y-99918754D01*
X186209379Y-100283942D01*
X186209379Y-100824984D01*
X186416427Y-101324841D01*
X186799001Y-101707415D01*
X187298858Y-101914463D01*
X187839900Y-101914463D01*
X188339757Y-101707415D01*
X188671939Y-101375233D01*
X188671939Y-101495367D01*
X188660184Y-101554463D01*
X188756035Y-102036336D01*
X189028994Y-102444848D01*
X189437506Y-102717807D01*
X189797743Y-102789463D01*
X190373000Y-102789463D01*
X190373000Y-131361588D01*
X190153308Y-130831205D01*
X189438795Y-130116692D01*
X188505238Y-129730000D01*
X187494762Y-129730000D01*
X186561205Y-130116692D01*
X185846692Y-130831205D01*
X185460000Y-131764762D01*
X185460000Y-132775238D01*
X185846692Y-133708795D01*
X186561205Y-134423308D01*
X186729456Y-134493000D01*
X178758572Y-134493000D01*
X178758572Y-132205000D01*
X182699286Y-132205000D01*
X182699286Y-128385000D01*
X160200715Y-128385000D01*
X160200715Y-132205000D01*
X160331429Y-132205000D01*
X160331429Y-134493000D01*
X101270544Y-134493000D01*
X101438795Y-134423308D01*
X102153308Y-133708795D01*
X102540000Y-132775238D01*
X102540000Y-131764762D01*
X102153308Y-130831205D01*
X101438795Y-130116692D01*
X100505238Y-129730000D01*
X99494762Y-129730000D01*
X98561205Y-130116692D01*
X97917000Y-130760897D01*
X97917000Y-122552105D01*
X99205000Y-122552105D01*
X99205000Y-123321895D01*
X99499586Y-124033090D01*
X100043910Y-124577414D01*
X100755105Y-124872000D01*
X101524895Y-124872000D01*
X102236090Y-124577414D01*
X102780414Y-124033090D01*
X103075000Y-123321895D01*
X103075000Y-123222750D01*
X105205000Y-123222750D01*
X105205000Y-124363309D01*
X105301673Y-124596698D01*
X105480301Y-124775327D01*
X105713690Y-124872000D01*
X106854250Y-124872000D01*
X107013000Y-124713250D01*
X107013000Y-123064000D01*
X107267000Y-123064000D01*
X107267000Y-124713250D01*
X107425750Y-124872000D01*
X108566310Y-124872000D01*
X108799699Y-124775327D01*
X108978327Y-124596698D01*
X109075000Y-124363309D01*
X109075000Y-123222750D01*
X108916250Y-123064000D01*
X107267000Y-123064000D01*
X107013000Y-123064000D01*
X105363750Y-123064000D01*
X105205000Y-123222750D01*
X103075000Y-123222750D01*
X103075000Y-122552105D01*
X102780414Y-121840910D01*
X102450195Y-121510691D01*
X105205000Y-121510691D01*
X105205000Y-122651250D01*
X105363750Y-122810000D01*
X107013000Y-122810000D01*
X107013000Y-121160750D01*
X107267000Y-121160750D01*
X107267000Y-122810000D01*
X108916250Y-122810000D01*
X109075000Y-122651250D01*
X109075000Y-121510691D01*
X108978327Y-121277302D01*
X108799699Y-121098673D01*
X108566310Y-121002000D01*
X107425750Y-121002000D01*
X107267000Y-121160750D01*
X107013000Y-121160750D01*
X106854250Y-121002000D01*
X105713690Y-121002000D01*
X105480301Y-121098673D01*
X105301673Y-121277302D01*
X105205000Y-121510691D01*
X102450195Y-121510691D01*
X102236090Y-121296586D01*
X101524895Y-121002000D01*
X100755105Y-121002000D01*
X100043910Y-121296586D01*
X99499586Y-121840910D01*
X99205000Y-122552105D01*
X97917000Y-122552105D01*
X97917000Y-117852105D01*
X102205000Y-117852105D01*
X102205000Y-118621895D01*
X102499586Y-119333090D01*
X103043910Y-119877414D01*
X103755105Y-120172000D01*
X104524895Y-120172000D01*
X105236090Y-119877414D01*
X105780414Y-119333090D01*
X106075000Y-118621895D01*
X106075000Y-118006000D01*
X109357560Y-118006000D01*
X109357560Y-120546000D01*
X109406843Y-120793765D01*
X109547191Y-121003809D01*
X109757235Y-121144157D01*
X110005000Y-121193440D01*
X110750001Y-121193440D01*
X110750001Y-121196520D01*
X110750000Y-121196525D01*
X110750001Y-122408455D01*
X110625000Y-122710234D01*
X110625000Y-123161766D01*
X110797793Y-123578926D01*
X111117074Y-123898207D01*
X111534234Y-124071000D01*
X111985766Y-124071000D01*
X112402926Y-123898207D01*
X112722207Y-123578926D01*
X112895000Y-123161766D01*
X112895000Y-122710234D01*
X112770000Y-122408457D01*
X112770000Y-121193440D01*
X113515000Y-121193440D01*
X113762765Y-121144157D01*
X113972809Y-121003809D01*
X114113157Y-120793765D01*
X114162440Y-120546000D01*
X114162440Y-118592500D01*
X118580060Y-118592500D01*
X118580060Y-120167500D01*
X118629343Y-120415265D01*
X118769691Y-120625309D01*
X118979735Y-120765657D01*
X119128111Y-120795171D01*
X118809063Y-121114219D01*
X118592500Y-121637047D01*
X118592500Y-122202953D01*
X118809063Y-122725781D01*
X119209219Y-123125937D01*
X119732047Y-123342500D01*
X120297953Y-123342500D01*
X120820781Y-123125937D01*
X121220937Y-122725781D01*
X121285000Y-122571120D01*
X121349063Y-122725781D01*
X121749219Y-123125937D01*
X122272047Y-123342500D01*
X122796633Y-123342500D01*
X125462417Y-126008286D01*
X125508999Y-126078001D01*
X125785199Y-126262552D01*
X126028763Y-126311000D01*
X126028766Y-126311000D01*
X126110999Y-126327357D01*
X126193232Y-126311000D01*
X137585767Y-126311000D01*
X137668000Y-126327357D01*
X137750233Y-126311000D01*
X137750237Y-126311000D01*
X137993801Y-126262552D01*
X138270001Y-126078001D01*
X138316587Y-126008280D01*
X140348584Y-123976284D01*
X140348586Y-123976281D01*
X140356867Y-123968000D01*
X164316560Y-123968000D01*
X164316560Y-125968000D01*
X164365843Y-126215765D01*
X164506191Y-126425809D01*
X164716235Y-126566157D01*
X164964000Y-126615440D01*
X166964000Y-126615440D01*
X167211765Y-126566157D01*
X167421809Y-126425809D01*
X167562157Y-126215765D01*
X167611440Y-125968000D01*
X167611440Y-124642778D01*
X171929000Y-124642778D01*
X171929000Y-125293222D01*
X172177914Y-125894153D01*
X172637847Y-126354086D01*
X173238778Y-126603000D01*
X173889222Y-126603000D01*
X174490153Y-126354086D01*
X174950086Y-125894153D01*
X175199000Y-125293222D01*
X175199000Y-124642778D01*
X174950086Y-124041847D01*
X174490153Y-123581914D01*
X173889222Y-123333000D01*
X173238778Y-123333000D01*
X172637847Y-123581914D01*
X172177914Y-124041847D01*
X171929000Y-124642778D01*
X167611440Y-124642778D01*
X167611440Y-123968000D01*
X167562157Y-123720235D01*
X167421809Y-123510191D01*
X167211765Y-123369843D01*
X166964000Y-123320560D01*
X164964000Y-123320560D01*
X164716235Y-123369843D01*
X164506191Y-123510191D01*
X164365843Y-123720235D01*
X164316560Y-123968000D01*
X140356867Y-123968000D01*
X150095000Y-114229868D01*
X150095000Y-114251874D01*
X150252569Y-114632280D01*
X150543720Y-114923431D01*
X150924126Y-115081000D01*
X150984132Y-115081000D01*
X151370414Y-115467282D01*
X151416999Y-115537001D01*
X151693199Y-115721552D01*
X152019000Y-115786358D01*
X152101237Y-115770000D01*
X178476935Y-115770000D01*
X178634375Y-116005625D01*
X178932761Y-116205000D01*
X178634375Y-116404375D01*
X178561794Y-116513000D01*
X151212711Y-116513000D01*
X151170280Y-116470569D01*
X150789874Y-116313000D01*
X150378126Y-116313000D01*
X149997720Y-116470569D01*
X149706569Y-116761720D01*
X149549000Y-117142126D01*
X149549000Y-117553874D01*
X149706569Y-117934280D01*
X149997720Y-118225431D01*
X150378126Y-118383000D01*
X150789874Y-118383000D01*
X151170280Y-118225431D01*
X151212711Y-118183000D01*
X178392077Y-118183000D01*
X178634375Y-118545625D01*
X179125582Y-118873839D01*
X179558744Y-118960000D01*
X179851256Y-118960000D01*
X180284418Y-118873839D01*
X180775625Y-118545625D01*
X180975000Y-118247239D01*
X181174375Y-118545625D01*
X181665582Y-118873839D01*
X182098744Y-118960000D01*
X182391256Y-118960000D01*
X182824418Y-118873839D01*
X183315625Y-118545625D01*
X183643839Y-118054418D01*
X183759092Y-117475000D01*
X183643839Y-116895582D01*
X183315625Y-116404375D01*
X183017239Y-116205000D01*
X183315625Y-116005625D01*
X183643839Y-115514418D01*
X183759092Y-114935000D01*
X183643839Y-114355582D01*
X183315625Y-113864375D01*
X182996522Y-113651157D01*
X183126358Y-113590183D01*
X183516645Y-113161924D01*
X183686476Y-112751890D01*
X183565155Y-112522000D01*
X182372000Y-112522000D01*
X182372000Y-112542000D01*
X182118000Y-112542000D01*
X182118000Y-112522000D01*
X182098000Y-112522000D01*
X182098000Y-112268000D01*
X182118000Y-112268000D01*
X182118000Y-111074181D01*
X182372000Y-111074181D01*
X182372000Y-112268000D01*
X183565155Y-112268000D01*
X183686476Y-112038110D01*
X183516645Y-111628076D01*
X183126358Y-111199817D01*
X182601892Y-110953514D01*
X182372000Y-111074181D01*
X182118000Y-111074181D01*
X181888108Y-110953514D01*
X181363642Y-111199817D01*
X181174961Y-111406855D01*
X181153157Y-111297235D01*
X181012809Y-111087191D01*
X180802765Y-110946843D01*
X180555000Y-110897560D01*
X178855000Y-110897560D01*
X178607235Y-110946843D01*
X178397191Y-111087191D01*
X178256843Y-111297235D01*
X178207560Y-111545000D01*
X178207560Y-113245000D01*
X178256843Y-113492765D01*
X178397191Y-113702809D01*
X178607235Y-113843157D01*
X178652619Y-113852184D01*
X178634375Y-113864375D01*
X178476935Y-114100000D01*
X152364868Y-114100000D01*
X152165000Y-113900132D01*
X152165000Y-113840126D01*
X152007431Y-113459720D01*
X151716280Y-113168569D01*
X151335874Y-113011000D01*
X151313868Y-113011000D01*
X156228868Y-108096000D01*
X156288874Y-108096000D01*
X156669280Y-107938431D01*
X156960431Y-107647280D01*
X157118000Y-107266874D01*
X157118000Y-106968999D01*
X170318770Y-106968999D01*
X170401003Y-106985356D01*
X170483236Y-106968999D01*
X170483240Y-106968999D01*
X170726804Y-106920551D01*
X171003004Y-106736000D01*
X171049590Y-106666279D01*
X172197284Y-105518586D01*
X172267002Y-105472002D01*
X172451553Y-105195802D01*
X172482979Y-105037813D01*
X172935001Y-105127726D01*
X173387610Y-105037696D01*
X173771314Y-104781314D01*
X174027696Y-104397609D01*
X174095001Y-104059246D01*
X174095001Y-103380755D01*
X174027696Y-103042392D01*
X173771314Y-102658688D01*
X173387609Y-102402306D01*
X172935001Y-102312276D01*
X172482392Y-102402306D01*
X172300001Y-102524176D01*
X172117609Y-102402306D01*
X171665001Y-102312276D01*
X171213134Y-102402158D01*
X171167766Y-102371844D01*
X170920001Y-102322561D01*
X169870001Y-102322561D01*
X169622236Y-102371844D01*
X169412192Y-102512192D01*
X169271844Y-102722236D01*
X169222561Y-102970001D01*
X169222561Y-104470001D01*
X169271844Y-104717766D01*
X169412192Y-104927810D01*
X169622236Y-105068158D01*
X169870001Y-105117441D01*
X170236694Y-105117441D01*
X170055136Y-105298999D01*
X154453868Y-105298999D01*
X160552283Y-99200585D01*
X160622001Y-99154001D01*
X160806552Y-98877801D01*
X160855000Y-98634237D01*
X160855000Y-98634234D01*
X160871357Y-98552001D01*
X160855000Y-98469768D01*
X160855000Y-90515867D01*
X161034867Y-90336000D01*
X175540560Y-90336000D01*
X175540560Y-92036000D01*
X175589843Y-92283765D01*
X175730191Y-92493809D01*
X175940235Y-92634157D01*
X176188000Y-92683440D01*
X177888000Y-92683440D01*
X178135765Y-92634157D01*
X178345809Y-92493809D01*
X178486157Y-92283765D01*
X178495184Y-92238381D01*
X178507375Y-92256625D01*
X178998582Y-92584839D01*
X179431744Y-92671000D01*
X179724256Y-92671000D01*
X180157418Y-92584839D01*
X180648625Y-92256625D01*
X180848000Y-91958239D01*
X181047375Y-92256625D01*
X181538582Y-92584839D01*
X181971744Y-92671000D01*
X182264256Y-92671000D01*
X182697418Y-92584839D01*
X183188625Y-92256625D01*
X183388000Y-91958239D01*
X183587375Y-92256625D01*
X184078582Y-92584839D01*
X184511744Y-92671000D01*
X184804256Y-92671000D01*
X185237418Y-92584839D01*
X185728625Y-92256625D01*
X186056839Y-91765418D01*
X186172092Y-91186000D01*
X186056839Y-90606582D01*
X185728625Y-90115375D01*
X185237418Y-89787161D01*
X184804256Y-89701000D01*
X184511744Y-89701000D01*
X184078582Y-89787161D01*
X183587375Y-90115375D01*
X183388000Y-90413761D01*
X183188625Y-90115375D01*
X182697418Y-89787161D01*
X182264256Y-89701000D01*
X181971744Y-89701000D01*
X181538582Y-89787161D01*
X181047375Y-90115375D01*
X180848000Y-90413761D01*
X180648625Y-90115375D01*
X180157418Y-89787161D01*
X179724256Y-89701000D01*
X179431744Y-89701000D01*
X178998582Y-89787161D01*
X178507375Y-90115375D01*
X178495184Y-90133619D01*
X178486157Y-90088235D01*
X178345809Y-89878191D01*
X178135765Y-89737843D01*
X177888000Y-89688560D01*
X176188000Y-89688560D01*
X175940235Y-89737843D01*
X175730191Y-89878191D01*
X175589843Y-90088235D01*
X175540560Y-90336000D01*
X161034867Y-90336000D01*
X165450867Y-85920000D01*
X177972560Y-85920000D01*
X177972560Y-87920000D01*
X178021843Y-88167765D01*
X178162191Y-88377809D01*
X178372235Y-88518157D01*
X178620000Y-88567440D01*
X181820000Y-88567440D01*
X182067765Y-88518157D01*
X182277809Y-88377809D01*
X182418157Y-88167765D01*
X182467440Y-87920000D01*
X182467440Y-85920000D01*
X182418157Y-85672235D01*
X182277809Y-85462191D01*
X182067765Y-85321843D01*
X181820000Y-85272560D01*
X178620000Y-85272560D01*
X178372235Y-85321843D01*
X178162191Y-85462191D01*
X178021843Y-85672235D01*
X177972560Y-85920000D01*
X165450867Y-85920000D01*
X166715868Y-84655000D01*
X171072560Y-84655000D01*
X171072560Y-84820000D01*
X171121843Y-85067765D01*
X171262191Y-85277809D01*
X171472235Y-85418157D01*
X171720000Y-85467440D01*
X173720000Y-85467440D01*
X173967765Y-85418157D01*
X174177809Y-85277809D01*
X174318157Y-85067765D01*
X174367440Y-84820000D01*
X174367440Y-83494778D01*
X185585000Y-83494778D01*
X185585000Y-84145222D01*
X185833914Y-84746153D01*
X186293847Y-85206086D01*
X186894778Y-85455000D01*
X187545222Y-85455000D01*
X188146153Y-85206086D01*
X188606086Y-84746153D01*
X188855000Y-84145222D01*
X188855000Y-83494778D01*
X188606086Y-82893847D01*
X188146153Y-82433914D01*
X187545222Y-82185000D01*
X186894778Y-82185000D01*
X186293847Y-82433914D01*
X185833914Y-82893847D01*
X185585000Y-83494778D01*
X174367440Y-83494778D01*
X174367440Y-82820000D01*
X174318157Y-82572235D01*
X174177809Y-82362191D01*
X174065255Y-82286984D01*
X174106086Y-82246153D01*
X174355000Y-81645222D01*
X174355000Y-80994778D01*
X174106086Y-80393847D01*
X173782239Y-80070000D01*
X174106086Y-79746153D01*
X174355000Y-79145222D01*
X174355000Y-78494778D01*
X185585000Y-78494778D01*
X185585000Y-79145222D01*
X185833914Y-79746153D01*
X186293847Y-80206086D01*
X186894778Y-80455000D01*
X187545222Y-80455000D01*
X188146153Y-80206086D01*
X188606086Y-79746153D01*
X188855000Y-79145222D01*
X188855000Y-78494778D01*
X188606086Y-77893847D01*
X188146153Y-77433914D01*
X187545222Y-77185000D01*
X186894778Y-77185000D01*
X186293847Y-77433914D01*
X185833914Y-77893847D01*
X185585000Y-78494778D01*
X174355000Y-78494778D01*
X174106086Y-77893847D01*
X173646153Y-77433914D01*
X173045222Y-77185000D01*
X172394778Y-77185000D01*
X171793847Y-77433914D01*
X171333914Y-77893847D01*
X171296157Y-77985000D01*
X167261232Y-77985000D01*
X167178999Y-77968643D01*
X167096766Y-77985000D01*
X167096763Y-77985000D01*
X166853199Y-78033448D01*
X166576999Y-78217999D01*
X166530415Y-78287717D01*
X157201718Y-87616415D01*
X157132000Y-87662999D01*
X157085416Y-87732717D01*
X156947448Y-87939200D01*
X156882643Y-88265000D01*
X156895273Y-88328498D01*
X156882642Y-88392000D01*
X156899001Y-88474242D01*
X156899000Y-98333132D01*
X152181133Y-103051000D01*
X149709698Y-103051000D01*
X149752000Y-102948874D01*
X149752000Y-102895614D01*
X149903551Y-102668802D01*
X149951999Y-102425238D01*
X149951999Y-102425235D01*
X149968356Y-102343002D01*
X149951999Y-102260769D01*
X149951999Y-94814868D01*
X167858868Y-76908000D01*
X174542767Y-76908000D01*
X174625000Y-76924357D01*
X174707233Y-76908000D01*
X174707237Y-76908000D01*
X174950801Y-76859552D01*
X175227001Y-76675001D01*
X175273587Y-76605280D01*
X176167868Y-75711000D01*
X176227874Y-75711000D01*
X176608280Y-75553431D01*
X176899431Y-75262280D01*
X177057000Y-74881874D01*
X177057000Y-74720000D01*
X177972560Y-74720000D01*
X177972560Y-76720000D01*
X178021843Y-76967765D01*
X178162191Y-77177809D01*
X178372235Y-77318157D01*
X178620000Y-77367440D01*
X181820000Y-77367440D01*
X182067765Y-77318157D01*
X182277809Y-77177809D01*
X182418157Y-76967765D01*
X182467440Y-76720000D01*
X182467440Y-74720000D01*
X182418157Y-74472235D01*
X182277809Y-74262191D01*
X182067765Y-74121843D01*
X181820000Y-74072560D01*
X178620000Y-74072560D01*
X178372235Y-74121843D01*
X178162191Y-74262191D01*
X178021843Y-74472235D01*
X177972560Y-74720000D01*
X177057000Y-74720000D01*
X177057000Y-74470126D01*
X176899431Y-74089720D01*
X176608280Y-73798569D01*
X176227874Y-73641000D01*
X175816126Y-73641000D01*
X175435720Y-73798569D01*
X175144569Y-74089720D01*
X174987000Y-74470126D01*
X174987000Y-74530132D01*
X174279133Y-75238000D01*
X167595232Y-75238000D01*
X167512999Y-75221643D01*
X167430766Y-75238000D01*
X167430763Y-75238000D01*
X167187199Y-75286448D01*
X166910999Y-75470999D01*
X166864415Y-75540717D01*
X148584717Y-93820416D01*
X148514999Y-93867000D01*
X148468415Y-93936718D01*
X148330447Y-94143201D01*
X148265642Y-94469001D01*
X148282000Y-94551239D01*
X148281999Y-101802907D01*
X148130720Y-101865569D01*
X147839569Y-102156720D01*
X147682000Y-102537126D01*
X147682000Y-102948874D01*
X147724302Y-103051000D01*
X133470711Y-103051000D01*
X133428280Y-103008569D01*
X133047874Y-102851000D01*
X132636126Y-102851000D01*
X132255720Y-103008569D01*
X131964569Y-103299720D01*
X131807000Y-103680126D01*
X131807000Y-104091874D01*
X131964569Y-104472280D01*
X132255720Y-104763431D01*
X132636126Y-104921000D01*
X133047874Y-104921000D01*
X133428280Y-104763431D01*
X133470711Y-104721000D01*
X152444767Y-104721000D01*
X152527000Y-104737357D01*
X152609233Y-104721000D01*
X152609237Y-104721000D01*
X152685254Y-104705879D01*
X152308133Y-105083000D01*
X131409869Y-105083000D01*
X130375000Y-104048133D01*
X130375000Y-102482711D01*
X130417431Y-102440280D01*
X130575000Y-102059874D01*
X130575000Y-101648126D01*
X130417431Y-101267720D01*
X130126280Y-100976569D01*
X129745874Y-100819000D01*
X129334126Y-100819000D01*
X128953720Y-100976569D01*
X128662569Y-101267720D01*
X128505000Y-101648126D01*
X128505000Y-102059874D01*
X128662569Y-102440280D01*
X128705000Y-102482711D01*
X128705001Y-104311762D01*
X128688643Y-104394000D01*
X128753448Y-104719800D01*
X128853810Y-104870002D01*
X128938000Y-104996001D01*
X129007718Y-105042585D01*
X130415416Y-106450285D01*
X130461999Y-106520001D01*
X130738199Y-106704552D01*
X130981763Y-106753000D01*
X130981766Y-106753000D01*
X131063999Y-106769357D01*
X131146232Y-106753000D01*
X152147512Y-106753000D01*
X152000000Y-107109126D01*
X152000000Y-107520874D01*
X152157569Y-107901280D01*
X152448720Y-108192431D01*
X152829126Y-108350000D01*
X153240874Y-108350000D01*
X153621280Y-108192431D01*
X153912431Y-107901280D01*
X154070000Y-107520874D01*
X154070000Y-107460867D01*
X154561869Y-106968999D01*
X154994133Y-106968999D01*
X139167719Y-122795414D01*
X139167716Y-122795416D01*
X137322133Y-124641000D01*
X126456869Y-124641000D01*
X125158368Y-123342500D01*
X125377953Y-123342500D01*
X125900781Y-123125937D01*
X126300937Y-122725781D01*
X126365000Y-122571120D01*
X126429063Y-122725781D01*
X126829219Y-123125937D01*
X127352047Y-123342500D01*
X127917953Y-123342500D01*
X128440781Y-123125937D01*
X128840937Y-122725781D01*
X129057500Y-122202953D01*
X129057500Y-121637047D01*
X128840937Y-121114219D01*
X128521889Y-120795171D01*
X128670265Y-120765657D01*
X128880309Y-120625309D01*
X129020657Y-120415265D01*
X129069940Y-120167500D01*
X129069940Y-118592500D01*
X129020657Y-118344735D01*
X128880309Y-118134691D01*
X128670265Y-117994343D01*
X128422500Y-117945060D01*
X126847500Y-117945060D01*
X126599735Y-117994343D01*
X126389691Y-118134691D01*
X126249343Y-118344735D01*
X126219829Y-118493111D01*
X125900781Y-118174063D01*
X125377953Y-117957500D01*
X124812047Y-117957500D01*
X124289219Y-118174063D01*
X123889063Y-118574219D01*
X123825000Y-118728880D01*
X123760937Y-118574219D01*
X123360781Y-118174063D01*
X122837953Y-117957500D01*
X122272047Y-117957500D01*
X121749219Y-118174063D01*
X121430171Y-118493111D01*
X121400657Y-118344735D01*
X121260309Y-118134691D01*
X121050265Y-117994343D01*
X120802500Y-117945060D01*
X119227500Y-117945060D01*
X118979735Y-117994343D01*
X118769691Y-118134691D01*
X118629343Y-118344735D01*
X118580060Y-118592500D01*
X114162440Y-118592500D01*
X114162440Y-118006000D01*
X114113157Y-117758235D01*
X113972809Y-117548191D01*
X113762765Y-117407843D01*
X113515000Y-117358560D01*
X110005000Y-117358560D01*
X109757235Y-117407843D01*
X109547191Y-117548191D01*
X109406843Y-117758235D01*
X109357560Y-118006000D01*
X106075000Y-118006000D01*
X106075000Y-117852105D01*
X105780414Y-117140910D01*
X105236090Y-116596586D01*
X104524895Y-116302000D01*
X103755105Y-116302000D01*
X103043910Y-116596586D01*
X102499586Y-117140910D01*
X102205000Y-117852105D01*
X97917000Y-117852105D01*
X97917000Y-109579506D01*
X137045000Y-109579506D01*
X137045000Y-110130494D01*
X137255853Y-110639540D01*
X137645460Y-111029147D01*
X138154506Y-111240000D01*
X138705494Y-111240000D01*
X139214540Y-111029147D01*
X139604147Y-110639540D01*
X139815000Y-110130494D01*
X139815000Y-109579506D01*
X141945000Y-109579506D01*
X141945000Y-110130494D01*
X142155853Y-110639540D01*
X142545460Y-111029147D01*
X143054506Y-111240000D01*
X143605494Y-111240000D01*
X144114540Y-111029147D01*
X144504147Y-110639540D01*
X144715000Y-110130494D01*
X144715000Y-109579506D01*
X144504147Y-109070460D01*
X144114540Y-108680853D01*
X143605494Y-108470000D01*
X143054506Y-108470000D01*
X142545460Y-108680853D01*
X142155853Y-109070460D01*
X141945000Y-109579506D01*
X139815000Y-109579506D01*
X139604147Y-109070460D01*
X139214540Y-108680853D01*
X138705494Y-108470000D01*
X138154506Y-108470000D01*
X137645460Y-108680853D01*
X137255853Y-109070460D01*
X137045000Y-109579506D01*
X97917000Y-109579506D01*
X97917000Y-88646000D01*
X109357560Y-88646000D01*
X109357560Y-91186000D01*
X109406843Y-91433765D01*
X109547191Y-91643809D01*
X109757235Y-91784157D01*
X110005000Y-91833440D01*
X113515000Y-91833440D01*
X113762765Y-91784157D01*
X113972809Y-91643809D01*
X114113157Y-91433765D01*
X114162440Y-91186000D01*
X114162440Y-88646000D01*
X114113157Y-88398235D01*
X113972809Y-88188191D01*
X113762765Y-88047843D01*
X113515000Y-87998560D01*
X113085795Y-87998560D01*
X113680121Y-87404234D01*
X120150000Y-87404234D01*
X120150000Y-87855766D01*
X120322793Y-88272926D01*
X120629867Y-88580000D01*
X120322793Y-88887074D01*
X120150000Y-89304234D01*
X120150000Y-89755766D01*
X120322793Y-90172926D01*
X120642074Y-90492207D01*
X121059234Y-90665000D01*
X121510766Y-90665000D01*
X121927926Y-90492207D01*
X122247207Y-90172926D01*
X122420000Y-89755766D01*
X122420000Y-89304234D01*
X122247207Y-88887074D01*
X121940133Y-88580000D01*
X122247207Y-88272926D01*
X122420000Y-87855766D01*
X122420000Y-87404234D01*
X122247207Y-86987074D01*
X121927926Y-86667793D01*
X121510766Y-86495000D01*
X121059234Y-86495000D01*
X120642074Y-86667793D01*
X120322793Y-86987074D01*
X120150000Y-87404234D01*
X113680121Y-87404234D01*
X114730355Y-86354000D01*
X117836457Y-86354000D01*
X118138234Y-86479000D01*
X118589766Y-86479000D01*
X119006926Y-86306207D01*
X119326207Y-85986926D01*
X119499000Y-85569766D01*
X119499000Y-85118234D01*
X119326207Y-84701074D01*
X119080133Y-84455000D01*
X127799643Y-84455000D01*
X127816001Y-84537238D01*
X127816000Y-96818767D01*
X127799643Y-96901000D01*
X127816000Y-96983233D01*
X127816000Y-96983236D01*
X127864448Y-97226800D01*
X128048999Y-97503001D01*
X128118720Y-97549587D01*
X130747715Y-100178583D01*
X131045000Y-100475868D01*
X131045000Y-100535874D01*
X131202569Y-100916280D01*
X131493720Y-101207431D01*
X131874126Y-101365000D01*
X132285874Y-101365000D01*
X132666280Y-101207431D01*
X132957431Y-100916280D01*
X133115000Y-100535874D01*
X133115000Y-100124126D01*
X132957431Y-99743720D01*
X132666280Y-99452569D01*
X132285874Y-99295000D01*
X132225868Y-99295000D01*
X131672247Y-98741379D01*
X131874126Y-98825000D01*
X132285874Y-98825000D01*
X132666280Y-98667431D01*
X132957431Y-98376280D01*
X133115000Y-97995874D01*
X133115000Y-97935867D01*
X141569868Y-89481000D01*
X149142767Y-89481000D01*
X149225000Y-89497357D01*
X149307233Y-89481000D01*
X149307237Y-89481000D01*
X149550801Y-89432552D01*
X149827001Y-89248001D01*
X149873587Y-89178280D01*
X164332283Y-74719585D01*
X164402001Y-74673001D01*
X164586552Y-74396801D01*
X164635000Y-74153237D01*
X164635000Y-74153236D01*
X164651358Y-74071000D01*
X164635000Y-73988763D01*
X164635000Y-69322073D01*
X164862118Y-69170318D01*
X165070001Y-68859199D01*
X165277883Y-69170318D01*
X165505001Y-69322073D01*
X165505000Y-74360131D01*
X142275133Y-97590000D01*
X139693711Y-97590000D01*
X139651280Y-97547569D01*
X139270874Y-97390000D01*
X138859126Y-97390000D01*
X138478720Y-97547569D01*
X138187569Y-97838720D01*
X138030000Y-98219126D01*
X138030000Y-98630874D01*
X138187569Y-99011280D01*
X138478720Y-99302431D01*
X138859126Y-99460000D01*
X139270874Y-99460000D01*
X139651280Y-99302431D01*
X139693711Y-99260000D01*
X142538767Y-99260000D01*
X142621000Y-99276357D01*
X142703233Y-99260000D01*
X142703237Y-99260000D01*
X142946801Y-99211552D01*
X143223001Y-99027001D01*
X143269587Y-98957280D01*
X166872286Y-75354583D01*
X166942001Y-75308001D01*
X167126552Y-75031801D01*
X167175000Y-74788237D01*
X167175000Y-74788234D01*
X167191357Y-74706001D01*
X167175000Y-74623768D01*
X167175000Y-69322073D01*
X167402118Y-69170318D01*
X167610001Y-68859199D01*
X167817883Y-69170318D01*
X168305187Y-69495923D01*
X168880000Y-69610261D01*
X169454814Y-69495923D01*
X169942118Y-69170318D01*
X170150001Y-68859199D01*
X170357883Y-69170318D01*
X170845187Y-69495923D01*
X171420000Y-69610261D01*
X171994814Y-69495923D01*
X172482118Y-69170318D01*
X172690001Y-68859199D01*
X172897883Y-69170318D01*
X173385187Y-69495923D01*
X173960000Y-69610261D01*
X174534814Y-69495923D01*
X175022118Y-69170318D01*
X175230001Y-68859199D01*
X175437883Y-69170318D01*
X175925187Y-69495923D01*
X176500000Y-69610261D01*
X177074814Y-69495923D01*
X177562118Y-69170318D01*
X177887723Y-68683014D01*
X177973200Y-68253294D01*
X177973200Y-66286706D01*
X177887723Y-65856986D01*
X177562118Y-65369682D01*
X177074813Y-65044077D01*
X176500000Y-64929739D01*
X175925186Y-65044077D01*
X175437882Y-65369682D01*
X175230000Y-65680801D01*
X175022118Y-65369682D01*
X174534813Y-65044077D01*
X173960000Y-64929739D01*
X173385186Y-65044077D01*
X172897882Y-65369682D01*
X172690000Y-65680801D01*
X172482118Y-65369682D01*
X171994813Y-65044077D01*
X171420000Y-64929739D01*
X170845186Y-65044077D01*
X170357882Y-65369682D01*
X170150000Y-65680801D01*
X169942118Y-65369682D01*
X169454813Y-65044077D01*
X168880000Y-64929739D01*
X168305186Y-65044077D01*
X167817882Y-65369682D01*
X167610000Y-65680801D01*
X167402118Y-65369682D01*
X166914813Y-65044077D01*
X166340000Y-64929739D01*
X165765186Y-65044077D01*
X165277882Y-65369682D01*
X165070000Y-65680801D01*
X164862118Y-65369682D01*
X164374813Y-65044077D01*
X163800000Y-64929739D01*
X163225186Y-65044077D01*
X162737882Y-65369682D01*
X162530000Y-65680801D01*
X162322118Y-65369682D01*
X161834813Y-65044077D01*
X161260000Y-64929739D01*
X160685186Y-65044077D01*
X160197882Y-65369682D01*
X159990000Y-65680801D01*
X159782118Y-65369682D01*
X159294813Y-65044077D01*
X158720000Y-64929739D01*
X158145186Y-65044077D01*
X157657882Y-65369682D01*
X157450000Y-65680801D01*
X157242118Y-65369682D01*
X156754813Y-65044077D01*
X156180000Y-64929739D01*
X155605186Y-65044077D01*
X155117882Y-65369682D01*
X154910000Y-65680801D01*
X154702118Y-65369682D01*
X154214813Y-65044077D01*
X153640000Y-64929739D01*
X153065186Y-65044077D01*
X152577882Y-65369682D01*
X152370000Y-65680801D01*
X152162118Y-65369682D01*
X151674813Y-65044077D01*
X151100000Y-64929739D01*
X150525186Y-65044077D01*
X150037882Y-65369682D01*
X149830000Y-65680801D01*
X149622118Y-65369682D01*
X149134813Y-65044077D01*
X148560000Y-64929739D01*
X147985186Y-65044077D01*
X147497882Y-65369682D01*
X147290000Y-65680801D01*
X147082118Y-65369682D01*
X146594813Y-65044077D01*
X146020000Y-64929739D01*
X145445186Y-65044077D01*
X144957882Y-65369682D01*
X144750000Y-65680801D01*
X144542118Y-65369682D01*
X144054813Y-65044077D01*
X143480000Y-64929739D01*
X142905186Y-65044077D01*
X142417882Y-65369682D01*
X142210000Y-65680801D01*
X142002118Y-65369682D01*
X141514813Y-65044077D01*
X140940000Y-64929739D01*
X140365186Y-65044077D01*
X139877882Y-65369682D01*
X139670000Y-65680801D01*
X139462118Y-65369682D01*
X138974813Y-65044077D01*
X138400000Y-64929739D01*
X137825186Y-65044077D01*
X137337882Y-65369682D01*
X137130000Y-65680801D01*
X136922118Y-65369682D01*
X136434813Y-65044077D01*
X135860000Y-64929739D01*
X135285186Y-65044077D01*
X134797882Y-65369682D01*
X134590000Y-65680801D01*
X134382118Y-65369682D01*
X133894813Y-65044077D01*
X133320000Y-64929739D01*
X132745186Y-65044077D01*
X132257882Y-65369682D01*
X132043861Y-65689988D01*
X131731908Y-65300287D01*
X131226437Y-65022139D01*
X131135038Y-65002021D01*
X130907000Y-65123500D01*
X130907000Y-67143000D01*
X130927000Y-67143000D01*
X130927000Y-67397000D01*
X130907000Y-67397000D01*
X130907000Y-69416500D01*
X131135038Y-69537979D01*
X131226437Y-69517861D01*
X131731908Y-69239713D01*
X132043862Y-68850011D01*
X132257883Y-69170318D01*
X132745187Y-69495923D01*
X133320000Y-69610261D01*
X133587904Y-69556971D01*
X137722001Y-73691070D01*
X137722000Y-78911763D01*
X137705642Y-78994000D01*
X137770448Y-79319801D01*
X137954999Y-79596001D01*
X138231199Y-79780552D01*
X138557000Y-79845358D01*
X138639237Y-79829000D01*
X139787768Y-79829000D01*
X139742843Y-79896235D01*
X139693560Y-80144000D01*
X139693560Y-82144000D01*
X139742843Y-82391765D01*
X139883191Y-82601809D01*
X140093235Y-82742157D01*
X140341000Y-82791440D01*
X140530002Y-82791440D01*
X140530001Y-83812288D01*
X140487570Y-83854719D01*
X140330001Y-84235125D01*
X140330001Y-84646873D01*
X140487570Y-85027279D01*
X140778721Y-85318430D01*
X141159127Y-85475999D01*
X141570875Y-85475999D01*
X141951281Y-85318430D01*
X142242432Y-85027279D01*
X142400001Y-84646873D01*
X142400001Y-84235125D01*
X142242432Y-83854719D01*
X142200001Y-83812288D01*
X142200001Y-82791440D01*
X142841000Y-82791440D01*
X143088765Y-82742157D01*
X143298809Y-82601809D01*
X143439157Y-82391765D01*
X143488440Y-82144000D01*
X143488440Y-80144000D01*
X143439157Y-79896235D01*
X143394232Y-79829000D01*
X148343560Y-79829000D01*
X148343560Y-79994000D01*
X148392843Y-80241765D01*
X148533191Y-80451809D01*
X148743235Y-80592157D01*
X148991000Y-80641440D01*
X151491000Y-80641440D01*
X151738765Y-80592157D01*
X151948809Y-80451809D01*
X152089157Y-80241765D01*
X152138440Y-79994000D01*
X152138440Y-77994000D01*
X152089157Y-77746235D01*
X152044232Y-77679000D01*
X158785767Y-77679000D01*
X158868000Y-77695357D01*
X158950233Y-77679000D01*
X158950237Y-77679000D01*
X159026253Y-77663879D01*
X148879133Y-87811000D01*
X141306237Y-87811000D01*
X141224000Y-87794642D01*
X141141763Y-87811000D01*
X140898199Y-87859448D01*
X140621999Y-88043999D01*
X140575415Y-88113717D01*
X131934133Y-96755000D01*
X131874126Y-96755000D01*
X131493720Y-96912569D01*
X131202569Y-97203720D01*
X131045000Y-97584126D01*
X131045000Y-97995874D01*
X131128621Y-98197753D01*
X129486000Y-96555133D01*
X129486000Y-84800867D01*
X136035868Y-78251000D01*
X136095874Y-78251000D01*
X136476280Y-78093431D01*
X136767431Y-77802280D01*
X136925000Y-77421874D01*
X136925000Y-77010126D01*
X136767431Y-76629720D01*
X136476280Y-76338569D01*
X136095874Y-76181000D01*
X135684126Y-76181000D01*
X135303720Y-76338569D01*
X135012569Y-76629720D01*
X134855000Y-77010126D01*
X134855000Y-77070132D01*
X128118718Y-83806415D01*
X128049000Y-83852999D01*
X128002416Y-83922717D01*
X127864448Y-84129200D01*
X127799643Y-84455000D01*
X119080133Y-84455000D01*
X119006926Y-84381793D01*
X118589766Y-84209000D01*
X118138234Y-84209000D01*
X117836457Y-84334000D01*
X114411470Y-84334000D01*
X114311999Y-84314214D01*
X114212528Y-84334000D01*
X114212524Y-84334000D01*
X113917918Y-84392601D01*
X113583831Y-84615831D01*
X113527482Y-84700163D01*
X111116161Y-87111484D01*
X111031832Y-87167831D01*
X110975485Y-87252160D01*
X110975482Y-87252163D01*
X110808602Y-87501918D01*
X110730214Y-87896000D01*
X110750001Y-87995475D01*
X110750001Y-87998560D01*
X110005000Y-87998560D01*
X109757235Y-88047843D01*
X109547191Y-88188191D01*
X109406843Y-88398235D01*
X109357560Y-88646000D01*
X97917000Y-88646000D01*
X97917000Y-74295000D01*
X103895908Y-74295000D01*
X104011161Y-74874418D01*
X104339375Y-75365625D01*
X104637761Y-75565000D01*
X104339375Y-75764375D01*
X104011161Y-76255582D01*
X103895908Y-76835000D01*
X104011161Y-77414418D01*
X104339375Y-77905625D01*
X104637761Y-78105000D01*
X104339375Y-78304375D01*
X104011161Y-78795582D01*
X103895908Y-79375000D01*
X104011161Y-79954418D01*
X104339375Y-80445625D01*
X104637761Y-80645000D01*
X104339375Y-80844375D01*
X104011161Y-81335582D01*
X103895908Y-81915000D01*
X104011161Y-82494418D01*
X104339375Y-82985625D01*
X104637761Y-83185000D01*
X104339375Y-83384375D01*
X104011161Y-83875582D01*
X103895908Y-84455000D01*
X104011161Y-85034418D01*
X104339375Y-85525625D01*
X104830582Y-85853839D01*
X105263744Y-85940000D01*
X105556256Y-85940000D01*
X105989418Y-85853839D01*
X106480625Y-85525625D01*
X106492816Y-85507381D01*
X106501843Y-85552765D01*
X106642191Y-85762809D01*
X106852235Y-85903157D01*
X107100000Y-85952440D01*
X108800000Y-85952440D01*
X109047765Y-85903157D01*
X109257809Y-85762809D01*
X109398157Y-85552765D01*
X109447440Y-85305000D01*
X109447440Y-83605000D01*
X109398157Y-83357235D01*
X109257809Y-83147191D01*
X109047765Y-83006843D01*
X109002381Y-82997816D01*
X109020625Y-82985625D01*
X109348839Y-82494418D01*
X109464092Y-81915000D01*
X109348839Y-81335582D01*
X109020625Y-80844375D01*
X108722239Y-80645000D01*
X109020625Y-80445625D01*
X109348839Y-79954418D01*
X109464092Y-79375000D01*
X109348839Y-78795582D01*
X109020625Y-78304375D01*
X108701522Y-78091157D01*
X108831358Y-78030183D01*
X109221645Y-77601924D01*
X109391476Y-77191890D01*
X109270155Y-76962000D01*
X108077000Y-76962000D01*
X108077000Y-76982000D01*
X107823000Y-76982000D01*
X107823000Y-76962000D01*
X107803000Y-76962000D01*
X107803000Y-76708000D01*
X107823000Y-76708000D01*
X107823000Y-76688000D01*
X108077000Y-76688000D01*
X108077000Y-76708000D01*
X109270155Y-76708000D01*
X109391476Y-76478110D01*
X109221645Y-76068076D01*
X108831358Y-75639817D01*
X108701522Y-75578843D01*
X109020625Y-75365625D01*
X109348839Y-74874418D01*
X109464092Y-74295000D01*
X109348839Y-73715582D01*
X109020625Y-73224375D01*
X108529418Y-72896161D01*
X108096256Y-72810000D01*
X107803744Y-72810000D01*
X107370582Y-72896161D01*
X106879375Y-73224375D01*
X106680000Y-73522761D01*
X106480625Y-73224375D01*
X105989418Y-72896161D01*
X105556256Y-72810000D01*
X105263744Y-72810000D01*
X104830582Y-72896161D01*
X104339375Y-73224375D01*
X104011161Y-73715582D01*
X103895908Y-74295000D01*
X97917000Y-74295000D01*
X97917000Y-68779103D01*
X98561205Y-69423308D01*
X99494762Y-69810000D01*
X100505238Y-69810000D01*
X101438795Y-69423308D01*
X102153308Y-68708795D01*
X102540000Y-67775238D01*
X102540000Y-66764762D01*
X102341984Y-66286707D01*
X126766800Y-66286707D01*
X126766800Y-68253294D01*
X126852278Y-68683014D01*
X127177883Y-69170318D01*
X127665187Y-69495923D01*
X128240000Y-69610261D01*
X128814814Y-69495923D01*
X129302118Y-69170318D01*
X129516139Y-68850012D01*
X129828092Y-69239713D01*
X130333563Y-69517861D01*
X130424962Y-69537979D01*
X130653000Y-69416500D01*
X130653000Y-67397000D01*
X130633000Y-67397000D01*
X130633000Y-67143000D01*
X130653000Y-67143000D01*
X130653000Y-65123500D01*
X130424962Y-65002021D01*
X130333563Y-65022139D01*
X129828092Y-65300287D01*
X129516139Y-65689988D01*
X129302118Y-65369682D01*
X128814813Y-65044077D01*
X128240000Y-64929739D01*
X127665186Y-65044077D01*
X127177882Y-65369682D01*
X126852277Y-65856987D01*
X126766800Y-66286707D01*
X102341984Y-66286707D01*
X102153308Y-65831205D01*
X101438795Y-65116692D01*
X100908412Y-64897000D01*
X187091588Y-64897000D01*
X186561205Y-65116692D01*
X186561205Y-65116692D01*
G37*
X186561205Y-65116692D02*
X185846692Y-65831205D01*
X185460000Y-66764762D01*
X185460000Y-67775238D01*
X185846692Y-68708795D01*
X186561205Y-69423308D01*
X187494762Y-69810000D01*
X188505238Y-69810000D01*
X189438795Y-69423308D01*
X190153308Y-68708795D01*
X190373000Y-68178412D01*
X190373000Y-93319463D01*
X189797743Y-93319463D01*
X189437506Y-93391119D01*
X189028994Y-93664078D01*
X188756035Y-94072590D01*
X188660184Y-94554463D01*
X188671939Y-94613559D01*
X188671939Y-94733693D01*
X188339757Y-94401511D01*
X187839900Y-94194463D01*
X187298858Y-94194463D01*
X186799001Y-94401511D01*
X186416427Y-94784085D01*
X186209379Y-95283942D01*
X186209379Y-95824984D01*
X186226602Y-95866563D01*
X186097472Y-95866563D01*
X186020265Y-95789356D01*
X185603105Y-95616563D01*
X185151573Y-95616563D01*
X184734413Y-95789356D01*
X184415132Y-96108637D01*
X184242339Y-96525797D01*
X184242339Y-96977329D01*
X184415132Y-97394489D01*
X184734413Y-97713770D01*
X185151573Y-97886563D01*
X185603105Y-97886563D01*
X186020265Y-97713770D01*
X186097472Y-97636563D01*
X186253324Y-97636563D01*
X186271803Y-97729463D01*
X186246939Y-97854463D01*
X186246939Y-98254463D01*
X186271803Y-98379463D01*
X186246939Y-98504463D01*
X186246939Y-98904463D01*
X186267596Y-99008316D01*
X186259379Y-99028154D01*
X186259379Y-99095713D01*
X186291337Y-99127671D01*
X186296222Y-99152228D01*
X186436570Y-99362272D01*
X186574543Y-99454463D01*
X186418129Y-99454463D01*
X186259379Y-99613213D01*
X186259379Y-99680772D01*
X186356052Y-99914161D01*
X186360645Y-99918754D01*
X186209379Y-100283942D01*
X186209379Y-100824984D01*
X186416427Y-101324841D01*
X186799001Y-101707415D01*
X187298858Y-101914463D01*
X187839900Y-101914463D01*
X188339757Y-101707415D01*
X188671939Y-101375233D01*
X188671939Y-101495367D01*
X188660184Y-101554463D01*
X188756035Y-102036336D01*
X189028994Y-102444848D01*
X189437506Y-102717807D01*
X189797743Y-102789463D01*
X190373000Y-102789463D01*
X190373000Y-131361588D01*
X190153308Y-130831205D01*
X189438795Y-130116692D01*
X188505238Y-129730000D01*
X187494762Y-129730000D01*
X186561205Y-130116692D01*
X185846692Y-130831205D01*
X185460000Y-131764762D01*
X185460000Y-132775238D01*
X185846692Y-133708795D01*
X186561205Y-134423308D01*
X186729456Y-134493000D01*
X178758572Y-134493000D01*
X178758572Y-132205000D01*
X182699286Y-132205000D01*
X182699286Y-128385000D01*
X160200715Y-128385000D01*
X160200715Y-132205000D01*
X160331429Y-132205000D01*
X160331429Y-134493000D01*
X101270544Y-134493000D01*
X101438795Y-134423308D01*
X102153308Y-133708795D01*
X102540000Y-132775238D01*
X102540000Y-131764762D01*
X102153308Y-130831205D01*
X101438795Y-130116692D01*
X100505238Y-129730000D01*
X99494762Y-129730000D01*
X98561205Y-130116692D01*
X97917000Y-130760897D01*
X97917000Y-122552105D01*
X99205000Y-122552105D01*
X99205000Y-123321895D01*
X99499586Y-124033090D01*
X100043910Y-124577414D01*
X100755105Y-124872000D01*
X101524895Y-124872000D01*
X102236090Y-124577414D01*
X102780414Y-124033090D01*
X103075000Y-123321895D01*
X103075000Y-123222750D01*
X105205000Y-123222750D01*
X105205000Y-124363309D01*
X105301673Y-124596698D01*
X105480301Y-124775327D01*
X105713690Y-124872000D01*
X106854250Y-124872000D01*
X107013000Y-124713250D01*
X107013000Y-123064000D01*
X107267000Y-123064000D01*
X107267000Y-124713250D01*
X107425750Y-124872000D01*
X108566310Y-124872000D01*
X108799699Y-124775327D01*
X108978327Y-124596698D01*
X109075000Y-124363309D01*
X109075000Y-123222750D01*
X108916250Y-123064000D01*
X107267000Y-123064000D01*
X107013000Y-123064000D01*
X105363750Y-123064000D01*
X105205000Y-123222750D01*
X103075000Y-123222750D01*
X103075000Y-122552105D01*
X102780414Y-121840910D01*
X102450195Y-121510691D01*
X105205000Y-121510691D01*
X105205000Y-122651250D01*
X105363750Y-122810000D01*
X107013000Y-122810000D01*
X107013000Y-121160750D01*
X107267000Y-121160750D01*
X107267000Y-122810000D01*
X108916250Y-122810000D01*
X109075000Y-122651250D01*
X109075000Y-121510691D01*
X108978327Y-121277302D01*
X108799699Y-121098673D01*
X108566310Y-121002000D01*
X107425750Y-121002000D01*
X107267000Y-121160750D01*
X107013000Y-121160750D01*
X106854250Y-121002000D01*
X105713690Y-121002000D01*
X105480301Y-121098673D01*
X105301673Y-121277302D01*
X105205000Y-121510691D01*
X102450195Y-121510691D01*
X102236090Y-121296586D01*
X101524895Y-121002000D01*
X100755105Y-121002000D01*
X100043910Y-121296586D01*
X99499586Y-121840910D01*
X99205000Y-122552105D01*
X97917000Y-122552105D01*
X97917000Y-117852105D01*
X102205000Y-117852105D01*
X102205000Y-118621895D01*
X102499586Y-119333090D01*
X103043910Y-119877414D01*
X103755105Y-120172000D01*
X104524895Y-120172000D01*
X105236090Y-119877414D01*
X105780414Y-119333090D01*
X106075000Y-118621895D01*
X106075000Y-118006000D01*
X109357560Y-118006000D01*
X109357560Y-120546000D01*
X109406843Y-120793765D01*
X109547191Y-121003809D01*
X109757235Y-121144157D01*
X110005000Y-121193440D01*
X110750001Y-121193440D01*
X110750001Y-121196520D01*
X110750000Y-121196525D01*
X110750001Y-122408455D01*
X110625000Y-122710234D01*
X110625000Y-123161766D01*
X110797793Y-123578926D01*
X111117074Y-123898207D01*
X111534234Y-124071000D01*
X111985766Y-124071000D01*
X112402926Y-123898207D01*
X112722207Y-123578926D01*
X112895000Y-123161766D01*
X112895000Y-122710234D01*
X112770000Y-122408457D01*
X112770000Y-121193440D01*
X113515000Y-121193440D01*
X113762765Y-121144157D01*
X113972809Y-121003809D01*
X114113157Y-120793765D01*
X114162440Y-120546000D01*
X114162440Y-118592500D01*
X118580060Y-118592500D01*
X118580060Y-120167500D01*
X118629343Y-120415265D01*
X118769691Y-120625309D01*
X118979735Y-120765657D01*
X119128111Y-120795171D01*
X118809063Y-121114219D01*
X118592500Y-121637047D01*
X118592500Y-122202953D01*
X118809063Y-122725781D01*
X119209219Y-123125937D01*
X119732047Y-123342500D01*
X120297953Y-123342500D01*
X120820781Y-123125937D01*
X121220937Y-122725781D01*
X121285000Y-122571120D01*
X121349063Y-122725781D01*
X121749219Y-123125937D01*
X122272047Y-123342500D01*
X122796633Y-123342500D01*
X125462417Y-126008286D01*
X125508999Y-126078001D01*
X125785199Y-126262552D01*
X126028763Y-126311000D01*
X126028766Y-126311000D01*
X126110999Y-126327357D01*
X126193232Y-126311000D01*
X137585767Y-126311000D01*
X137668000Y-126327357D01*
X137750233Y-126311000D01*
X137750237Y-126311000D01*
X137993801Y-126262552D01*
X138270001Y-126078001D01*
X138316587Y-126008280D01*
X140348584Y-123976284D01*
X140348586Y-123976281D01*
X140356867Y-123968000D01*
X164316560Y-123968000D01*
X164316560Y-125968000D01*
X164365843Y-126215765D01*
X164506191Y-126425809D01*
X164716235Y-126566157D01*
X164964000Y-126615440D01*
X166964000Y-126615440D01*
X167211765Y-126566157D01*
X167421809Y-126425809D01*
X167562157Y-126215765D01*
X167611440Y-125968000D01*
X167611440Y-124642778D01*
X171929000Y-124642778D01*
X171929000Y-125293222D01*
X172177914Y-125894153D01*
X172637847Y-126354086D01*
X173238778Y-126603000D01*
X173889222Y-126603000D01*
X174490153Y-126354086D01*
X174950086Y-125894153D01*
X175199000Y-125293222D01*
X175199000Y-124642778D01*
X174950086Y-124041847D01*
X174490153Y-123581914D01*
X173889222Y-123333000D01*
X173238778Y-123333000D01*
X172637847Y-123581914D01*
X172177914Y-124041847D01*
X171929000Y-124642778D01*
X167611440Y-124642778D01*
X167611440Y-123968000D01*
X167562157Y-123720235D01*
X167421809Y-123510191D01*
X167211765Y-123369843D01*
X166964000Y-123320560D01*
X164964000Y-123320560D01*
X164716235Y-123369843D01*
X164506191Y-123510191D01*
X164365843Y-123720235D01*
X164316560Y-123968000D01*
X140356867Y-123968000D01*
X150095000Y-114229868D01*
X150095000Y-114251874D01*
X150252569Y-114632280D01*
X150543720Y-114923431D01*
X150924126Y-115081000D01*
X150984132Y-115081000D01*
X151370414Y-115467282D01*
X151416999Y-115537001D01*
X151693199Y-115721552D01*
X152019000Y-115786358D01*
X152101237Y-115770000D01*
X178476935Y-115770000D01*
X178634375Y-116005625D01*
X178932761Y-116205000D01*
X178634375Y-116404375D01*
X178561794Y-116513000D01*
X151212711Y-116513000D01*
X151170280Y-116470569D01*
X150789874Y-116313000D01*
X150378126Y-116313000D01*
X149997720Y-116470569D01*
X149706569Y-116761720D01*
X149549000Y-117142126D01*
X149549000Y-117553874D01*
X149706569Y-117934280D01*
X149997720Y-118225431D01*
X150378126Y-118383000D01*
X150789874Y-118383000D01*
X151170280Y-118225431D01*
X151212711Y-118183000D01*
X178392077Y-118183000D01*
X178634375Y-118545625D01*
X179125582Y-118873839D01*
X179558744Y-118960000D01*
X179851256Y-118960000D01*
X180284418Y-118873839D01*
X180775625Y-118545625D01*
X180975000Y-118247239D01*
X181174375Y-118545625D01*
X181665582Y-118873839D01*
X182098744Y-118960000D01*
X182391256Y-118960000D01*
X182824418Y-118873839D01*
X183315625Y-118545625D01*
X183643839Y-118054418D01*
X183759092Y-117475000D01*
X183643839Y-116895582D01*
X183315625Y-116404375D01*
X183017239Y-116205000D01*
X183315625Y-116005625D01*
X183643839Y-115514418D01*
X183759092Y-114935000D01*
X183643839Y-114355582D01*
X183315625Y-113864375D01*
X182996522Y-113651157D01*
X183126358Y-113590183D01*
X183516645Y-113161924D01*
X183686476Y-112751890D01*
X183565155Y-112522000D01*
X182372000Y-112522000D01*
X182372000Y-112542000D01*
X182118000Y-112542000D01*
X182118000Y-112522000D01*
X182098000Y-112522000D01*
X182098000Y-112268000D01*
X182118000Y-112268000D01*
X182118000Y-111074181D01*
X182372000Y-111074181D01*
X182372000Y-112268000D01*
X183565155Y-112268000D01*
X183686476Y-112038110D01*
X183516645Y-111628076D01*
X183126358Y-111199817D01*
X182601892Y-110953514D01*
X182372000Y-111074181D01*
X182118000Y-111074181D01*
X181888108Y-110953514D01*
X181363642Y-111199817D01*
X181174961Y-111406855D01*
X181153157Y-111297235D01*
X181012809Y-111087191D01*
X180802765Y-110946843D01*
X180555000Y-110897560D01*
X178855000Y-110897560D01*
X178607235Y-110946843D01*
X178397191Y-111087191D01*
X178256843Y-111297235D01*
X178207560Y-111545000D01*
X178207560Y-113245000D01*
X178256843Y-113492765D01*
X178397191Y-113702809D01*
X178607235Y-113843157D01*
X178652619Y-113852184D01*
X178634375Y-113864375D01*
X178476935Y-114100000D01*
X152364868Y-114100000D01*
X152165000Y-113900132D01*
X152165000Y-113840126D01*
X152007431Y-113459720D01*
X151716280Y-113168569D01*
X151335874Y-113011000D01*
X151313868Y-113011000D01*
X156228868Y-108096000D01*
X156288874Y-108096000D01*
X156669280Y-107938431D01*
X156960431Y-107647280D01*
X157118000Y-107266874D01*
X157118000Y-106968999D01*
X170318770Y-106968999D01*
X170401003Y-106985356D01*
X170483236Y-106968999D01*
X170483240Y-106968999D01*
X170726804Y-106920551D01*
X171003004Y-106736000D01*
X171049590Y-106666279D01*
X172197284Y-105518586D01*
X172267002Y-105472002D01*
X172451553Y-105195802D01*
X172482979Y-105037813D01*
X172935001Y-105127726D01*
X173387610Y-105037696D01*
X173771314Y-104781314D01*
X174027696Y-104397609D01*
X174095001Y-104059246D01*
X174095001Y-103380755D01*
X174027696Y-103042392D01*
X173771314Y-102658688D01*
X173387609Y-102402306D01*
X172935001Y-102312276D01*
X172482392Y-102402306D01*
X172300001Y-102524176D01*
X172117609Y-102402306D01*
X171665001Y-102312276D01*
X171213134Y-102402158D01*
X171167766Y-102371844D01*
X170920001Y-102322561D01*
X169870001Y-102322561D01*
X169622236Y-102371844D01*
X169412192Y-102512192D01*
X169271844Y-102722236D01*
X169222561Y-102970001D01*
X169222561Y-104470001D01*
X169271844Y-104717766D01*
X169412192Y-104927810D01*
X169622236Y-105068158D01*
X169870001Y-105117441D01*
X170236694Y-105117441D01*
X170055136Y-105298999D01*
X154453868Y-105298999D01*
X160552283Y-99200585D01*
X160622001Y-99154001D01*
X160806552Y-98877801D01*
X160855000Y-98634237D01*
X160855000Y-98634234D01*
X160871357Y-98552001D01*
X160855000Y-98469768D01*
X160855000Y-90515867D01*
X161034867Y-90336000D01*
X175540560Y-90336000D01*
X175540560Y-92036000D01*
X175589843Y-92283765D01*
X175730191Y-92493809D01*
X175940235Y-92634157D01*
X176188000Y-92683440D01*
X177888000Y-92683440D01*
X178135765Y-92634157D01*
X178345809Y-92493809D01*
X178486157Y-92283765D01*
X178495184Y-92238381D01*
X178507375Y-92256625D01*
X178998582Y-92584839D01*
X179431744Y-92671000D01*
X179724256Y-92671000D01*
X180157418Y-92584839D01*
X180648625Y-92256625D01*
X180848000Y-91958239D01*
X181047375Y-92256625D01*
X181538582Y-92584839D01*
X181971744Y-92671000D01*
X182264256Y-92671000D01*
X182697418Y-92584839D01*
X183188625Y-92256625D01*
X183388000Y-91958239D01*
X183587375Y-92256625D01*
X184078582Y-92584839D01*
X184511744Y-92671000D01*
X184804256Y-92671000D01*
X185237418Y-92584839D01*
X185728625Y-92256625D01*
X186056839Y-91765418D01*
X186172092Y-91186000D01*
X186056839Y-90606582D01*
X185728625Y-90115375D01*
X185237418Y-89787161D01*
X184804256Y-89701000D01*
X184511744Y-89701000D01*
X184078582Y-89787161D01*
X183587375Y-90115375D01*
X183388000Y-90413761D01*
X183188625Y-90115375D01*
X182697418Y-89787161D01*
X182264256Y-89701000D01*
X181971744Y-89701000D01*
X181538582Y-89787161D01*
X181047375Y-90115375D01*
X180848000Y-90413761D01*
X180648625Y-90115375D01*
X180157418Y-89787161D01*
X179724256Y-89701000D01*
X179431744Y-89701000D01*
X178998582Y-89787161D01*
X178507375Y-90115375D01*
X178495184Y-90133619D01*
X178486157Y-90088235D01*
X178345809Y-89878191D01*
X178135765Y-89737843D01*
X177888000Y-89688560D01*
X176188000Y-89688560D01*
X175940235Y-89737843D01*
X175730191Y-89878191D01*
X175589843Y-90088235D01*
X175540560Y-90336000D01*
X161034867Y-90336000D01*
X165450867Y-85920000D01*
X177972560Y-85920000D01*
X177972560Y-87920000D01*
X178021843Y-88167765D01*
X178162191Y-88377809D01*
X178372235Y-88518157D01*
X178620000Y-88567440D01*
X181820000Y-88567440D01*
X182067765Y-88518157D01*
X182277809Y-88377809D01*
X182418157Y-88167765D01*
X182467440Y-87920000D01*
X182467440Y-85920000D01*
X182418157Y-85672235D01*
X182277809Y-85462191D01*
X182067765Y-85321843D01*
X181820000Y-85272560D01*
X178620000Y-85272560D01*
X178372235Y-85321843D01*
X178162191Y-85462191D01*
X178021843Y-85672235D01*
X177972560Y-85920000D01*
X165450867Y-85920000D01*
X166715868Y-84655000D01*
X171072560Y-84655000D01*
X171072560Y-84820000D01*
X171121843Y-85067765D01*
X171262191Y-85277809D01*
X171472235Y-85418157D01*
X171720000Y-85467440D01*
X173720000Y-85467440D01*
X173967765Y-85418157D01*
X174177809Y-85277809D01*
X174318157Y-85067765D01*
X174367440Y-84820000D01*
X174367440Y-83494778D01*
X185585000Y-83494778D01*
X185585000Y-84145222D01*
X185833914Y-84746153D01*
X186293847Y-85206086D01*
X186894778Y-85455000D01*
X187545222Y-85455000D01*
X188146153Y-85206086D01*
X188606086Y-84746153D01*
X188855000Y-84145222D01*
X188855000Y-83494778D01*
X188606086Y-82893847D01*
X188146153Y-82433914D01*
X187545222Y-82185000D01*
X186894778Y-82185000D01*
X186293847Y-82433914D01*
X185833914Y-82893847D01*
X185585000Y-83494778D01*
X174367440Y-83494778D01*
X174367440Y-82820000D01*
X174318157Y-82572235D01*
X174177809Y-82362191D01*
X174065255Y-82286984D01*
X174106086Y-82246153D01*
X174355000Y-81645222D01*
X174355000Y-80994778D01*
X174106086Y-80393847D01*
X173782239Y-80070000D01*
X174106086Y-79746153D01*
X174355000Y-79145222D01*
X174355000Y-78494778D01*
X185585000Y-78494778D01*
X185585000Y-79145222D01*
X185833914Y-79746153D01*
X186293847Y-80206086D01*
X186894778Y-80455000D01*
X187545222Y-80455000D01*
X188146153Y-80206086D01*
X188606086Y-79746153D01*
X188855000Y-79145222D01*
X188855000Y-78494778D01*
X188606086Y-77893847D01*
X188146153Y-77433914D01*
X187545222Y-77185000D01*
X186894778Y-77185000D01*
X186293847Y-77433914D01*
X185833914Y-77893847D01*
X185585000Y-78494778D01*
X174355000Y-78494778D01*
X174106086Y-77893847D01*
X173646153Y-77433914D01*
X173045222Y-77185000D01*
X172394778Y-77185000D01*
X171793847Y-77433914D01*
X171333914Y-77893847D01*
X171296157Y-77985000D01*
X167261232Y-77985000D01*
X167178999Y-77968643D01*
X167096766Y-77985000D01*
X167096763Y-77985000D01*
X166853199Y-78033448D01*
X166576999Y-78217999D01*
X166530415Y-78287717D01*
X157201718Y-87616415D01*
X157132000Y-87662999D01*
X157085416Y-87732717D01*
X156947448Y-87939200D01*
X156882643Y-88265000D01*
X156895273Y-88328498D01*
X156882642Y-88392000D01*
X156899001Y-88474242D01*
X156899000Y-98333132D01*
X152181133Y-103051000D01*
X149709698Y-103051000D01*
X149752000Y-102948874D01*
X149752000Y-102895614D01*
X149903551Y-102668802D01*
X149951999Y-102425238D01*
X149951999Y-102425235D01*
X149968356Y-102343002D01*
X149951999Y-102260769D01*
X149951999Y-94814868D01*
X167858868Y-76908000D01*
X174542767Y-76908000D01*
X174625000Y-76924357D01*
X174707233Y-76908000D01*
X174707237Y-76908000D01*
X174950801Y-76859552D01*
X175227001Y-76675001D01*
X175273587Y-76605280D01*
X176167868Y-75711000D01*
X176227874Y-75711000D01*
X176608280Y-75553431D01*
X176899431Y-75262280D01*
X177057000Y-74881874D01*
X177057000Y-74720000D01*
X177972560Y-74720000D01*
X177972560Y-76720000D01*
X178021843Y-76967765D01*
X178162191Y-77177809D01*
X178372235Y-77318157D01*
X178620000Y-77367440D01*
X181820000Y-77367440D01*
X182067765Y-77318157D01*
X182277809Y-77177809D01*
X182418157Y-76967765D01*
X182467440Y-76720000D01*
X182467440Y-74720000D01*
X182418157Y-74472235D01*
X182277809Y-74262191D01*
X182067765Y-74121843D01*
X181820000Y-74072560D01*
X178620000Y-74072560D01*
X178372235Y-74121843D01*
X178162191Y-74262191D01*
X178021843Y-74472235D01*
X177972560Y-74720000D01*
X177057000Y-74720000D01*
X177057000Y-74470126D01*
X176899431Y-74089720D01*
X176608280Y-73798569D01*
X176227874Y-73641000D01*
X175816126Y-73641000D01*
X175435720Y-73798569D01*
X175144569Y-74089720D01*
X174987000Y-74470126D01*
X174987000Y-74530132D01*
X174279133Y-75238000D01*
X167595232Y-75238000D01*
X167512999Y-75221643D01*
X167430766Y-75238000D01*
X167430763Y-75238000D01*
X167187199Y-75286448D01*
X166910999Y-75470999D01*
X166864415Y-75540717D01*
X148584717Y-93820416D01*
X148514999Y-93867000D01*
X148468415Y-93936718D01*
X148330447Y-94143201D01*
X148265642Y-94469001D01*
X148282000Y-94551239D01*
X148281999Y-101802907D01*
X148130720Y-101865569D01*
X147839569Y-102156720D01*
X147682000Y-102537126D01*
X147682000Y-102948874D01*
X147724302Y-103051000D01*
X133470711Y-103051000D01*
X133428280Y-103008569D01*
X133047874Y-102851000D01*
X132636126Y-102851000D01*
X132255720Y-103008569D01*
X131964569Y-103299720D01*
X131807000Y-103680126D01*
X131807000Y-104091874D01*
X131964569Y-104472280D01*
X132255720Y-104763431D01*
X132636126Y-104921000D01*
X133047874Y-104921000D01*
X133428280Y-104763431D01*
X133470711Y-104721000D01*
X152444767Y-104721000D01*
X152527000Y-104737357D01*
X152609233Y-104721000D01*
X152609237Y-104721000D01*
X152685254Y-104705879D01*
X152308133Y-105083000D01*
X131409869Y-105083000D01*
X130375000Y-104048133D01*
X130375000Y-102482711D01*
X130417431Y-102440280D01*
X130575000Y-102059874D01*
X130575000Y-101648126D01*
X130417431Y-101267720D01*
X130126280Y-100976569D01*
X129745874Y-100819000D01*
X129334126Y-100819000D01*
X128953720Y-100976569D01*
X128662569Y-101267720D01*
X128505000Y-101648126D01*
X128505000Y-102059874D01*
X128662569Y-102440280D01*
X128705000Y-102482711D01*
X128705001Y-104311762D01*
X128688643Y-104394000D01*
X128753448Y-104719800D01*
X128853810Y-104870002D01*
X128938000Y-104996001D01*
X129007718Y-105042585D01*
X130415416Y-106450285D01*
X130461999Y-106520001D01*
X130738199Y-106704552D01*
X130981763Y-106753000D01*
X130981766Y-106753000D01*
X131063999Y-106769357D01*
X131146232Y-106753000D01*
X152147512Y-106753000D01*
X152000000Y-107109126D01*
X152000000Y-107520874D01*
X152157569Y-107901280D01*
X152448720Y-108192431D01*
X152829126Y-108350000D01*
X153240874Y-108350000D01*
X153621280Y-108192431D01*
X153912431Y-107901280D01*
X154070000Y-107520874D01*
X154070000Y-107460867D01*
X154561869Y-106968999D01*
X154994133Y-106968999D01*
X139167719Y-122795414D01*
X139167716Y-122795416D01*
X137322133Y-124641000D01*
X126456869Y-124641000D01*
X125158368Y-123342500D01*
X125377953Y-123342500D01*
X125900781Y-123125937D01*
X126300937Y-122725781D01*
X126365000Y-122571120D01*
X126429063Y-122725781D01*
X126829219Y-123125937D01*
X127352047Y-123342500D01*
X127917953Y-123342500D01*
X128440781Y-123125937D01*
X128840937Y-122725781D01*
X129057500Y-122202953D01*
X129057500Y-121637047D01*
X128840937Y-121114219D01*
X128521889Y-120795171D01*
X128670265Y-120765657D01*
X128880309Y-120625309D01*
X129020657Y-120415265D01*
X129069940Y-120167500D01*
X129069940Y-118592500D01*
X129020657Y-118344735D01*
X128880309Y-118134691D01*
X128670265Y-117994343D01*
X128422500Y-117945060D01*
X126847500Y-117945060D01*
X126599735Y-117994343D01*
X126389691Y-118134691D01*
X126249343Y-118344735D01*
X126219829Y-118493111D01*
X125900781Y-118174063D01*
X125377953Y-117957500D01*
X124812047Y-117957500D01*
X124289219Y-118174063D01*
X123889063Y-118574219D01*
X123825000Y-118728880D01*
X123760937Y-118574219D01*
X123360781Y-118174063D01*
X122837953Y-117957500D01*
X122272047Y-117957500D01*
X121749219Y-118174063D01*
X121430171Y-118493111D01*
X121400657Y-118344735D01*
X121260309Y-118134691D01*
X121050265Y-117994343D01*
X120802500Y-117945060D01*
X119227500Y-117945060D01*
X118979735Y-117994343D01*
X118769691Y-118134691D01*
X118629343Y-118344735D01*
X118580060Y-118592500D01*
X114162440Y-118592500D01*
X114162440Y-118006000D01*
X114113157Y-117758235D01*
X113972809Y-117548191D01*
X113762765Y-117407843D01*
X113515000Y-117358560D01*
X110005000Y-117358560D01*
X109757235Y-117407843D01*
X109547191Y-117548191D01*
X109406843Y-117758235D01*
X109357560Y-118006000D01*
X106075000Y-118006000D01*
X106075000Y-117852105D01*
X105780414Y-117140910D01*
X105236090Y-116596586D01*
X104524895Y-116302000D01*
X103755105Y-116302000D01*
X103043910Y-116596586D01*
X102499586Y-117140910D01*
X102205000Y-117852105D01*
X97917000Y-117852105D01*
X97917000Y-109579506D01*
X137045000Y-109579506D01*
X137045000Y-110130494D01*
X137255853Y-110639540D01*
X137645460Y-111029147D01*
X138154506Y-111240000D01*
X138705494Y-111240000D01*
X139214540Y-111029147D01*
X139604147Y-110639540D01*
X139815000Y-110130494D01*
X139815000Y-109579506D01*
X141945000Y-109579506D01*
X141945000Y-110130494D01*
X142155853Y-110639540D01*
X142545460Y-111029147D01*
X143054506Y-111240000D01*
X143605494Y-111240000D01*
X144114540Y-111029147D01*
X144504147Y-110639540D01*
X144715000Y-110130494D01*
X144715000Y-109579506D01*
X144504147Y-109070460D01*
X144114540Y-108680853D01*
X143605494Y-108470000D01*
X143054506Y-108470000D01*
X142545460Y-108680853D01*
X142155853Y-109070460D01*
X141945000Y-109579506D01*
X139815000Y-109579506D01*
X139604147Y-109070460D01*
X139214540Y-108680853D01*
X138705494Y-108470000D01*
X138154506Y-108470000D01*
X137645460Y-108680853D01*
X137255853Y-109070460D01*
X137045000Y-109579506D01*
X97917000Y-109579506D01*
X97917000Y-88646000D01*
X109357560Y-88646000D01*
X109357560Y-91186000D01*
X109406843Y-91433765D01*
X109547191Y-91643809D01*
X109757235Y-91784157D01*
X110005000Y-91833440D01*
X113515000Y-91833440D01*
X113762765Y-91784157D01*
X113972809Y-91643809D01*
X114113157Y-91433765D01*
X114162440Y-91186000D01*
X114162440Y-88646000D01*
X114113157Y-88398235D01*
X113972809Y-88188191D01*
X113762765Y-88047843D01*
X113515000Y-87998560D01*
X113085795Y-87998560D01*
X113680121Y-87404234D01*
X120150000Y-87404234D01*
X120150000Y-87855766D01*
X120322793Y-88272926D01*
X120629867Y-88580000D01*
X120322793Y-88887074D01*
X120150000Y-89304234D01*
X120150000Y-89755766D01*
X120322793Y-90172926D01*
X120642074Y-90492207D01*
X121059234Y-90665000D01*
X121510766Y-90665000D01*
X121927926Y-90492207D01*
X122247207Y-90172926D01*
X122420000Y-89755766D01*
X122420000Y-89304234D01*
X122247207Y-88887074D01*
X121940133Y-88580000D01*
X122247207Y-88272926D01*
X122420000Y-87855766D01*
X122420000Y-87404234D01*
X122247207Y-86987074D01*
X121927926Y-86667793D01*
X121510766Y-86495000D01*
X121059234Y-86495000D01*
X120642074Y-86667793D01*
X120322793Y-86987074D01*
X120150000Y-87404234D01*
X113680121Y-87404234D01*
X114730355Y-86354000D01*
X117836457Y-86354000D01*
X118138234Y-86479000D01*
X118589766Y-86479000D01*
X119006926Y-86306207D01*
X119326207Y-85986926D01*
X119499000Y-85569766D01*
X119499000Y-85118234D01*
X119326207Y-84701074D01*
X119080133Y-84455000D01*
X127799643Y-84455000D01*
X127816001Y-84537238D01*
X127816000Y-96818767D01*
X127799643Y-96901000D01*
X127816000Y-96983233D01*
X127816000Y-96983236D01*
X127864448Y-97226800D01*
X128048999Y-97503001D01*
X128118720Y-97549587D01*
X130747715Y-100178583D01*
X131045000Y-100475868D01*
X131045000Y-100535874D01*
X131202569Y-100916280D01*
X131493720Y-101207431D01*
X131874126Y-101365000D01*
X132285874Y-101365000D01*
X132666280Y-101207431D01*
X132957431Y-100916280D01*
X133115000Y-100535874D01*
X133115000Y-100124126D01*
X132957431Y-99743720D01*
X132666280Y-99452569D01*
X132285874Y-99295000D01*
X132225868Y-99295000D01*
X131672247Y-98741379D01*
X131874126Y-98825000D01*
X132285874Y-98825000D01*
X132666280Y-98667431D01*
X132957431Y-98376280D01*
X133115000Y-97995874D01*
X133115000Y-97935867D01*
X141569868Y-89481000D01*
X149142767Y-89481000D01*
X149225000Y-89497357D01*
X149307233Y-89481000D01*
X149307237Y-89481000D01*
X149550801Y-89432552D01*
X149827001Y-89248001D01*
X149873587Y-89178280D01*
X164332283Y-74719585D01*
X164402001Y-74673001D01*
X164586552Y-74396801D01*
X164635000Y-74153237D01*
X164635000Y-74153236D01*
X164651358Y-74071000D01*
X164635000Y-73988763D01*
X164635000Y-69322073D01*
X164862118Y-69170318D01*
X165070001Y-68859199D01*
X165277883Y-69170318D01*
X165505001Y-69322073D01*
X165505000Y-74360131D01*
X142275133Y-97590000D01*
X139693711Y-97590000D01*
X139651280Y-97547569D01*
X139270874Y-97390000D01*
X138859126Y-97390000D01*
X138478720Y-97547569D01*
X138187569Y-97838720D01*
X138030000Y-98219126D01*
X138030000Y-98630874D01*
X138187569Y-99011280D01*
X138478720Y-99302431D01*
X138859126Y-99460000D01*
X139270874Y-99460000D01*
X139651280Y-99302431D01*
X139693711Y-99260000D01*
X142538767Y-99260000D01*
X142621000Y-99276357D01*
X142703233Y-99260000D01*
X142703237Y-99260000D01*
X142946801Y-99211552D01*
X143223001Y-99027001D01*
X143269587Y-98957280D01*
X166872286Y-75354583D01*
X166942001Y-75308001D01*
X167126552Y-75031801D01*
X167175000Y-74788237D01*
X167175000Y-74788234D01*
X167191357Y-74706001D01*
X167175000Y-74623768D01*
X167175000Y-69322073D01*
X167402118Y-69170318D01*
X167610001Y-68859199D01*
X167817883Y-69170318D01*
X168305187Y-69495923D01*
X168880000Y-69610261D01*
X169454814Y-69495923D01*
X169942118Y-69170318D01*
X170150001Y-68859199D01*
X170357883Y-69170318D01*
X170845187Y-69495923D01*
X171420000Y-69610261D01*
X171994814Y-69495923D01*
X172482118Y-69170318D01*
X172690001Y-68859199D01*
X172897883Y-69170318D01*
X173385187Y-69495923D01*
X173960000Y-69610261D01*
X174534814Y-69495923D01*
X175022118Y-69170318D01*
X175230001Y-68859199D01*
X175437883Y-69170318D01*
X175925187Y-69495923D01*
X176500000Y-69610261D01*
X177074814Y-69495923D01*
X177562118Y-69170318D01*
X177887723Y-68683014D01*
X177973200Y-68253294D01*
X177973200Y-66286706D01*
X177887723Y-65856986D01*
X177562118Y-65369682D01*
X177074813Y-65044077D01*
X176500000Y-64929739D01*
X175925186Y-65044077D01*
X175437882Y-65369682D01*
X175230000Y-65680801D01*
X175022118Y-65369682D01*
X174534813Y-65044077D01*
X173960000Y-64929739D01*
X173385186Y-65044077D01*
X172897882Y-65369682D01*
X172690000Y-65680801D01*
X172482118Y-65369682D01*
X171994813Y-65044077D01*
X171420000Y-64929739D01*
X170845186Y-65044077D01*
X170357882Y-65369682D01*
X170150000Y-65680801D01*
X169942118Y-65369682D01*
X169454813Y-65044077D01*
X168880000Y-64929739D01*
X168305186Y-65044077D01*
X167817882Y-65369682D01*
X167610000Y-65680801D01*
X167402118Y-65369682D01*
X166914813Y-65044077D01*
X166340000Y-64929739D01*
X165765186Y-65044077D01*
X165277882Y-65369682D01*
X165070000Y-65680801D01*
X164862118Y-65369682D01*
X164374813Y-65044077D01*
X163800000Y-64929739D01*
X163225186Y-65044077D01*
X162737882Y-65369682D01*
X162530000Y-65680801D01*
X162322118Y-65369682D01*
X161834813Y-65044077D01*
X161260000Y-64929739D01*
X160685186Y-65044077D01*
X160197882Y-65369682D01*
X159990000Y-65680801D01*
X159782118Y-65369682D01*
X159294813Y-65044077D01*
X158720000Y-64929739D01*
X158145186Y-65044077D01*
X157657882Y-65369682D01*
X157450000Y-65680801D01*
X157242118Y-65369682D01*
X156754813Y-65044077D01*
X156180000Y-64929739D01*
X155605186Y-65044077D01*
X155117882Y-65369682D01*
X154910000Y-65680801D01*
X154702118Y-65369682D01*
X154214813Y-65044077D01*
X153640000Y-64929739D01*
X153065186Y-65044077D01*
X152577882Y-65369682D01*
X152370000Y-65680801D01*
X152162118Y-65369682D01*
X151674813Y-65044077D01*
X151100000Y-64929739D01*
X150525186Y-65044077D01*
X150037882Y-65369682D01*
X149830000Y-65680801D01*
X149622118Y-65369682D01*
X149134813Y-65044077D01*
X148560000Y-64929739D01*
X147985186Y-65044077D01*
X147497882Y-65369682D01*
X147290000Y-65680801D01*
X147082118Y-65369682D01*
X146594813Y-65044077D01*
X146020000Y-64929739D01*
X145445186Y-65044077D01*
X144957882Y-65369682D01*
X144750000Y-65680801D01*
X144542118Y-65369682D01*
X144054813Y-65044077D01*
X143480000Y-64929739D01*
X142905186Y-65044077D01*
X142417882Y-65369682D01*
X142210000Y-65680801D01*
X142002118Y-65369682D01*
X141514813Y-65044077D01*
X140940000Y-64929739D01*
X140365186Y-65044077D01*
X139877882Y-65369682D01*
X139670000Y-65680801D01*
X139462118Y-65369682D01*
X138974813Y-65044077D01*
X138400000Y-64929739D01*
X137825186Y-65044077D01*
X137337882Y-65369682D01*
X137130000Y-65680801D01*
X136922118Y-65369682D01*
X136434813Y-65044077D01*
X135860000Y-64929739D01*
X135285186Y-65044077D01*
X134797882Y-65369682D01*
X134590000Y-65680801D01*
X134382118Y-65369682D01*
X133894813Y-65044077D01*
X133320000Y-64929739D01*
X132745186Y-65044077D01*
X132257882Y-65369682D01*
X132043861Y-65689988D01*
X131731908Y-65300287D01*
X131226437Y-65022139D01*
X131135038Y-65002021D01*
X130907000Y-65123500D01*
X130907000Y-67143000D01*
X130927000Y-67143000D01*
X130927000Y-67397000D01*
X130907000Y-67397000D01*
X130907000Y-69416500D01*
X131135038Y-69537979D01*
X131226437Y-69517861D01*
X131731908Y-69239713D01*
X132043862Y-68850011D01*
X132257883Y-69170318D01*
X132745187Y-69495923D01*
X133320000Y-69610261D01*
X133587904Y-69556971D01*
X137722001Y-73691070D01*
X137722000Y-78911763D01*
X137705642Y-78994000D01*
X137770448Y-79319801D01*
X137954999Y-79596001D01*
X138231199Y-79780552D01*
X138557000Y-79845358D01*
X138639237Y-79829000D01*
X139787768Y-79829000D01*
X139742843Y-79896235D01*
X139693560Y-80144000D01*
X139693560Y-82144000D01*
X139742843Y-82391765D01*
X139883191Y-82601809D01*
X140093235Y-82742157D01*
X140341000Y-82791440D01*
X140530002Y-82791440D01*
X140530001Y-83812288D01*
X140487570Y-83854719D01*
X140330001Y-84235125D01*
X140330001Y-84646873D01*
X140487570Y-85027279D01*
X140778721Y-85318430D01*
X141159127Y-85475999D01*
X141570875Y-85475999D01*
X141951281Y-85318430D01*
X142242432Y-85027279D01*
X142400001Y-84646873D01*
X142400001Y-84235125D01*
X142242432Y-83854719D01*
X142200001Y-83812288D01*
X142200001Y-82791440D01*
X142841000Y-82791440D01*
X143088765Y-82742157D01*
X143298809Y-82601809D01*
X143439157Y-82391765D01*
X143488440Y-82144000D01*
X143488440Y-80144000D01*
X143439157Y-79896235D01*
X143394232Y-79829000D01*
X148343560Y-79829000D01*
X148343560Y-79994000D01*
X148392843Y-80241765D01*
X148533191Y-80451809D01*
X148743235Y-80592157D01*
X148991000Y-80641440D01*
X151491000Y-80641440D01*
X151738765Y-80592157D01*
X151948809Y-80451809D01*
X152089157Y-80241765D01*
X152138440Y-79994000D01*
X152138440Y-77994000D01*
X152089157Y-77746235D01*
X152044232Y-77679000D01*
X158785767Y-77679000D01*
X158868000Y-77695357D01*
X158950233Y-77679000D01*
X158950237Y-77679000D01*
X159026253Y-77663879D01*
X148879133Y-87811000D01*
X141306237Y-87811000D01*
X141224000Y-87794642D01*
X141141763Y-87811000D01*
X140898199Y-87859448D01*
X140621999Y-88043999D01*
X140575415Y-88113717D01*
X131934133Y-96755000D01*
X131874126Y-96755000D01*
X131493720Y-96912569D01*
X131202569Y-97203720D01*
X131045000Y-97584126D01*
X131045000Y-97995874D01*
X131128621Y-98197753D01*
X129486000Y-96555133D01*
X129486000Y-84800867D01*
X136035868Y-78251000D01*
X136095874Y-78251000D01*
X136476280Y-78093431D01*
X136767431Y-77802280D01*
X136925000Y-77421874D01*
X136925000Y-77010126D01*
X136767431Y-76629720D01*
X136476280Y-76338569D01*
X136095874Y-76181000D01*
X135684126Y-76181000D01*
X135303720Y-76338569D01*
X135012569Y-76629720D01*
X134855000Y-77010126D01*
X134855000Y-77070132D01*
X128118718Y-83806415D01*
X128049000Y-83852999D01*
X128002416Y-83922717D01*
X127864448Y-84129200D01*
X127799643Y-84455000D01*
X119080133Y-84455000D01*
X119006926Y-84381793D01*
X118589766Y-84209000D01*
X118138234Y-84209000D01*
X117836457Y-84334000D01*
X114411470Y-84334000D01*
X114311999Y-84314214D01*
X114212528Y-84334000D01*
X114212524Y-84334000D01*
X113917918Y-84392601D01*
X113583831Y-84615831D01*
X113527482Y-84700163D01*
X111116161Y-87111484D01*
X111031832Y-87167831D01*
X110975485Y-87252160D01*
X110975482Y-87252163D01*
X110808602Y-87501918D01*
X110730214Y-87896000D01*
X110750001Y-87995475D01*
X110750001Y-87998560D01*
X110005000Y-87998560D01*
X109757235Y-88047843D01*
X109547191Y-88188191D01*
X109406843Y-88398235D01*
X109357560Y-88646000D01*
X97917000Y-88646000D01*
X97917000Y-74295000D01*
X103895908Y-74295000D01*
X104011161Y-74874418D01*
X104339375Y-75365625D01*
X104637761Y-75565000D01*
X104339375Y-75764375D01*
X104011161Y-76255582D01*
X103895908Y-76835000D01*
X104011161Y-77414418D01*
X104339375Y-77905625D01*
X104637761Y-78105000D01*
X104339375Y-78304375D01*
X104011161Y-78795582D01*
X103895908Y-79375000D01*
X104011161Y-79954418D01*
X104339375Y-80445625D01*
X104637761Y-80645000D01*
X104339375Y-80844375D01*
X104011161Y-81335582D01*
X103895908Y-81915000D01*
X104011161Y-82494418D01*
X104339375Y-82985625D01*
X104637761Y-83185000D01*
X104339375Y-83384375D01*
X104011161Y-83875582D01*
X103895908Y-84455000D01*
X104011161Y-85034418D01*
X104339375Y-85525625D01*
X104830582Y-85853839D01*
X105263744Y-85940000D01*
X105556256Y-85940000D01*
X105989418Y-85853839D01*
X106480625Y-85525625D01*
X106492816Y-85507381D01*
X106501843Y-85552765D01*
X106642191Y-85762809D01*
X106852235Y-85903157D01*
X107100000Y-85952440D01*
X108800000Y-85952440D01*
X109047765Y-85903157D01*
X109257809Y-85762809D01*
X109398157Y-85552765D01*
X109447440Y-85305000D01*
X109447440Y-83605000D01*
X109398157Y-83357235D01*
X109257809Y-83147191D01*
X109047765Y-83006843D01*
X109002381Y-82997816D01*
X109020625Y-82985625D01*
X109348839Y-82494418D01*
X109464092Y-81915000D01*
X109348839Y-81335582D01*
X109020625Y-80844375D01*
X108722239Y-80645000D01*
X109020625Y-80445625D01*
X109348839Y-79954418D01*
X109464092Y-79375000D01*
X109348839Y-78795582D01*
X109020625Y-78304375D01*
X108701522Y-78091157D01*
X108831358Y-78030183D01*
X109221645Y-77601924D01*
X109391476Y-77191890D01*
X109270155Y-76962000D01*
X108077000Y-76962000D01*
X108077000Y-76982000D01*
X107823000Y-76982000D01*
X107823000Y-76962000D01*
X107803000Y-76962000D01*
X107803000Y-76708000D01*
X107823000Y-76708000D01*
X107823000Y-76688000D01*
X108077000Y-76688000D01*
X108077000Y-76708000D01*
X109270155Y-76708000D01*
X109391476Y-76478110D01*
X109221645Y-76068076D01*
X108831358Y-75639817D01*
X108701522Y-75578843D01*
X109020625Y-75365625D01*
X109348839Y-74874418D01*
X109464092Y-74295000D01*
X109348839Y-73715582D01*
X109020625Y-73224375D01*
X108529418Y-72896161D01*
X108096256Y-72810000D01*
X107803744Y-72810000D01*
X107370582Y-72896161D01*
X106879375Y-73224375D01*
X106680000Y-73522761D01*
X106480625Y-73224375D01*
X105989418Y-72896161D01*
X105556256Y-72810000D01*
X105263744Y-72810000D01*
X104830582Y-72896161D01*
X104339375Y-73224375D01*
X104011161Y-73715582D01*
X103895908Y-74295000D01*
X97917000Y-74295000D01*
X97917000Y-68779103D01*
X98561205Y-69423308D01*
X99494762Y-69810000D01*
X100505238Y-69810000D01*
X101438795Y-69423308D01*
X102153308Y-68708795D01*
X102540000Y-67775238D01*
X102540000Y-66764762D01*
X102341984Y-66286707D01*
X126766800Y-66286707D01*
X126766800Y-68253294D01*
X126852278Y-68683014D01*
X127177883Y-69170318D01*
X127665187Y-69495923D01*
X128240000Y-69610261D01*
X128814814Y-69495923D01*
X129302118Y-69170318D01*
X129516139Y-68850012D01*
X129828092Y-69239713D01*
X130333563Y-69517861D01*
X130424962Y-69537979D01*
X130653000Y-69416500D01*
X130653000Y-67397000D01*
X130633000Y-67397000D01*
X130633000Y-67143000D01*
X130653000Y-67143000D01*
X130653000Y-65123500D01*
X130424962Y-65002021D01*
X130333563Y-65022139D01*
X129828092Y-65300287D01*
X129516139Y-65689988D01*
X129302118Y-65369682D01*
X128814813Y-65044077D01*
X128240000Y-64929739D01*
X127665186Y-65044077D01*
X127177882Y-65369682D01*
X126852277Y-65856987D01*
X126766800Y-66286707D01*
X102341984Y-66286707D01*
X102153308Y-65831205D01*
X101438795Y-65116692D01*
X100908412Y-64897000D01*
X187091588Y-64897000D01*
X186561205Y-65116692D01*
G04 #@! TD*
M02*
